<svg id="border_silver" data-name="border_silver" xmlns="http://www.w3.org/2000/svg" width="115" height="112.001" viewBox="0 0 115 112.001">
  <defs>
    <linearGradient id="linear-gradient" x1="0.74" y1="1.165" x2="0" y2="0.355" gradientUnits="objectBoundingBox">
      <stop offset="0" stop-color="#585757"/>
      <stop offset="0.063" stop-color="#444"/>
      <stop offset="0.222" stop-color="#555"/>
      <stop offset="0.368" stop-color="#c2bdbd"/>
      <stop offset="0.496" stop-color="#999"/>
      <stop offset="0.6" stop-color="#bcb9ac"/>
      <stop offset="0.699" stop-color="#fff"/>
      <stop offset="0.841" stop-color="#a5a39e"/>
      <stop offset="1" stop-color="#847e73"/>
    </linearGradient>
  </defs>
  <path id="Subtração_7" data-name="Subtração 7" d="M1882.5-5619a58.458,58.458,0,0,1-22.382-4.4,57.407,57.407,0,0,1-18.277-12,55.756,55.756,0,0,1-12.322-17.8A54.4,54.4,0,0,1,1825-5675a54.4,54.4,0,0,1,4.519-21.8,55.757,55.757,0,0,1,12.322-17.8,57.407,57.407,0,0,1,18.277-12,58.458,58.458,0,0,1,22.382-4.4,58.455,58.455,0,0,1,22.381,4.4,57.41,57.41,0,0,1,18.277,12,55.763,55.763,0,0,1,12.323,17.8A54.4,54.4,0,0,1,1940-5675a54.4,54.4,0,0,1-4.519,21.8,55.758,55.758,0,0,1-12.323,17.8,57.422,57.422,0,0,1-18.277,12A58.455,58.455,0,0,1,1882.5-5619Zm0-106.556c-28.624,0-51.911,22.679-51.911,50.555s23.287,50.556,51.911,50.556,51.909-22.679,51.909-50.556S1911.124-5725.555,1882.5-5725.555Z" transform="translate(-1825.001 5731)" fill="url(#linear-gradient)"/>
</svg>
