<svg xmlns="http://www.w3.org/2000/svg" xmlns:xlink="http://www.w3.org/1999/xlink" width="116.391" height="112.002" viewBox="0 0 116.391 112.002">
  <defs>
    <linearGradient id="linear-gradient" x1="0.158" y1="0.221" x2="0.953" y2="0.671" gradientUnits="objectBoundingBox">
      <stop offset="0" stop-color="#540053"/>
      <stop offset="0.131" stop-color="#540053"/>
      <stop offset="0.368" stop-color="#7e0063"/>
      <stop offset="0.496" stop-color="#f9bce0"/>
      <stop offset="0.6" stop-color="#a20071"/>
      <stop offset="0.957" stop-color="#ed008e"/>
      <stop offset="1" stop-color="#f90093"/>
    </linearGradient>
  </defs>
  <path id="Subtração_2" data-name="Subtração 2" d="M57.5,112a58.462,58.462,0,0,1-22.382-4.4,57.419,57.419,0,0,1-18.277-12A55.759,55.759,0,0,1,4.519,77.8a54.834,54.834,0,0,1,0-43.6A55.759,55.759,0,0,1,16.841,16.4a57.419,57.419,0,0,1,18.277-12,59.113,59.113,0,0,1,44.764,0,57.42,57.42,0,0,1,18.277,12,55.759,55.759,0,0,1,12.323,17.8,54.842,54.842,0,0,1,.2,43.132,55.691,55.691,0,0,1-11.81,17.558c2.894,4.247,8.541,7.528,16.787,9.751a3.6,3.6,0,0,1,.732.224c0,.007-.024.011-.072.011a15.48,15.48,0,0,0-1.7.281,76.485,76.485,0,0,1-14.378,1.559,38.989,38.989,0,0,1-13.89-2.267,58.053,58.053,0,0,1-13.663,5.576A59.09,59.09,0,0,1,57.5,112Zm0-106.557C28.877,5.444,5.59,28.123,5.59,56s23.287,50.556,51.91,50.556S109.409,83.876,109.409,56,86.123,5.444,57.5,5.444Z" transform="translate(0 0.001)" fill="url(#linear-gradient)"/>
</svg>
