<svg xmlns="http://www.w3.org/2000/svg" width="52.458" height="15.283" viewBox="0 0 52.458 15.283">
  <path id="Caminho_592" data-name="Caminho 592" d="M52.818,115.219c-.091.139-.051.3,0,.507.081.36.9,3.991.956,5.037.041.621.293.956.7.956a1.283,1.283,0,0,0,.638-.2c.908-.524,8.3-3.909,9.51-4.4.295-.123.573-.229.817-.319.81-.31,1.342-.507,1.391-.8.05-.009.1-.025.163-.041.229-.049.646-.148.843-.2l.155.295.073-.009a1.9,1.9,0,0,0,.213.891c.163.319.105.63-.123,1.292s-.973,2.216-1,2.576a1.414,1.414,0,0,0,1.432,1.267c1.1.114,1.029-.123,1.169-.826a20.982,20.982,0,0,1,1.12-2.944,3.051,3.051,0,0,1,.5-.9.937.937,0,0,0,.729.311h.212c.384,0,.769-.025,1.161-.049.222-.017.441-.026.679-.041a1.066,1.066,0,0,0,.924-.4c.042,0,.075,0,.075-.007.105-.123.138-.041.187-.009v.163l.057.009c.108.106,0,.245,0,.245v.27h.131a2.393,2.393,0,0,0,.206-.7h0c.178-.073.211-.4.211-.736h.032a.465.465,0,0,1,.327-.073,14.38,14.38,0,0,0,3.591,6.86,13.776,13.776,0,0,0,3,2.454l.065.041.05-.065c0-.009.49-.753.964-1.489.278-.434.5-.785.654-1.038.1-.147.163-.262.212-.343.082-.139.115-.188.059-.246l-.008-.008a11.594,11.594,0,0,1-4.122-4.644,6.611,6.611,0,0,1-.629-2.191l.384-.311c1.292-.065,2.387-.123,2.42-.123h.008l.049-.017a.354.354,0,0,0,.278.147.134.134,0,0,0,.033.057.244.244,0,0,0,.163.057H83.7a1.8,1.8,0,0,0,.2.008h.009a.886.886,0,0,0,.424-.082,9.866,9.866,0,0,1,3.369-.384,19.967,19.967,0,0,0,2.813-.221,7.2,7.2,0,0,1,.793-.09c.427,0,.7,0,.77-.318h4.7v.032c.132,0,.156.189.156.189h.2a.5.5,0,0,0,.4-.221h5.6a.887.887,0,0,0,.148-.008,1.257,1.257,0,0,0,.613-.016.712.712,0,0,1,.515-.442h.54c.147,0,.269-.2.269-.441s-.122-.451-.269-.451h-.319v-.032c-.2,0-.352-.319-.352-.352v-.425h-.016a.671.671,0,0,0-.081-.007h-.009a3.7,3.7,0,0,1,.009-1.153v-.025h-.026a.37.37,0,0,0,.106-.3c0-.18-.073-.328-.155-.328h-.817c-.083,0-.148.147-.148.328a.42.42,0,0,0,.1.311l-.891,1.725v.261H99.025c-.008-.007-.016-.007-.026-.016v-.016h-.023a1.225,1.225,0,0,1-.59-.131v-.007h-.04a.827.827,0,0,1-.229-.18c-.278-.286-.417-.695-.67-.981h0c-.017-.017-.026-.033-.041-.041s-.009-.009-.009-.016c-.016-.008-.024-.024-.041-.033a.026.026,0,0,0-.015-.008c-.008-.016-.026-.024-.033-.033s-.008-.008-.015-.008a.178.178,0,0,0-.042-.033c-.007,0-.007-.008-.015-.008a.4.4,0,0,0-.058-.033h0c-.017-.008-.042-.024-.057-.033a.031.031,0,0,1-.026-.008.082.082,0,0,1-.041-.016.031.031,0,0,1-.026-.008c-.015,0-.033-.008-.049-.008s-.016-.009-.023-.009-.033-.008-.051-.008a.049.049,0,0,1-.033-.008h-.048c-.016,0-.024-.008-.032-.008H92.409v.057c0-.319-.263-.327-.384-.327H91.87a.423.423,0,0,0-.311-.107c-.205,0-1.464-.025-2.674-.049-1.252-.025-2.428-.049-2.624-.049a.4.4,0,0,0-.3.09c0,.008-.009.008-.017.016h-.114c-.139,0-.148.049-.148.156v.1a.184.184,0,0,0-.1-.033.109.109,0,0,0-.072.025v-.115c0-.254-.058-.425-.393-.425a.22.22,0,0,0-.172.065h-.1v-.106h-.335a.224.224,0,0,0-.408,0h-.377l-.066.065H83.4a.959.959,0,0,0-.818.074h-.056a.244.244,0,0,0-.23-.2.242.242,0,0,0-.219.2h-.345s-.113-.278-.293-.278c-.114,0-.114.032-.114.139v.433h.612v.016h-.212l-.148.106v.033h-12.2a1.332,1.332,0,0,0-1.1.9.164.164,0,0,0,.009.074,1.324,1.324,0,0,0-.825.989l-.3.106s-.458.065-.77.115h0v-.033l-.015-.017c-.025-.032-.089-.082-.261-.082a1.212,1.212,0,0,0-.32.042c-.384.09-1.537.368-1.61.385a7.246,7.246,0,0,1-.991.089,2.243,2.243,0,0,1-.269-.016,1.671,1.671,0,0,1-.376-.1,2.426,2.426,0,0,0-.852-.147,4.685,4.685,0,0,0-.629.048c-.974.131-4.71.777-6.723,1.128-.457.082-.817.148-1.006.18-.286.054-.44.119-.521.242Zm29.086-2.87h0Zm1.217.515c-.016,0-.033,0-.041.009v-.009h.041Zm9.2-.18v.4h-.23v-.343H91.34c-.155,0-.2.049-.229.131-.008.016-.008.033-.105.033H89.934c-.1,0-.1-.017-.107-.033-.026-.082-.074-.131-.229-.131H88.281c-.156,0-.205.049-.229.131-.009.016-.009.033-.107.033h-1.12c-.246,0-.263-.057-.278-.107a.155.155,0,0,0-.116-.122c.057-.009.116-.024.18-.041a2.43,2.43,0,0,1,.721-.107,3.355,3.355,0,0,1,.932.148l.008.008h.858a1.575,1.575,0,0,0,.335-.057,3.544,3.544,0,0,1,.842-.106,3.73,3.73,0,0,1,1.055.155l.008.008h.95Zm4.373.229H96.68v.171H93.318l-.115-.417.049-.048H96.7v.114h0Zm7.311-.524a.342.342,0,0,1-.343.352h-1.005l.352-.7h.654a.34.34,0,0,1,.343.344Zm-6.369,1.831h1.006a.127.127,0,0,0,.123-.122.108.108,0,0,0-.051-.1H99v-.008c.009-.009.018-.009.026-.017h3.844s.1.13.195.245H97.636Zm-.852,0h-4.2v-.245h4.1v.008a.124.124,0,0,0-.082.115.125.125,0,0,0,.123.122Zm-24.669,3.2a.657.657,0,0,1-.49-.18.2.2,0,0,0,.074-.139,1.368,1.368,0,0,0,0-.679v-.581h.041a.66.66,0,0,0,.3.237l.229.057a3.949,3.949,0,0,0,.31.679.97.97,0,0,0,.564.385c.222.024.214-.1.189-.082-.7-.294-.631-.515-.631-.908a.468.468,0,0,1,.172-.384c.05,0,.165-.008.3-.017.359-.016,1-.049,1.283-.049.262,0,.286.024.3.049a.221.221,0,0,0,.041.057.137.137,0,0,0,.057.041v1.12c-.016.041-.131.277-.72.3-.237.016-.458.024-.678.04-.466.033-.9.058-1.35.05Z" transform="translate(-52.765 -110.458)" fill="currentColor"/>
</svg>
