<svg xmlns="http://www.w3.org/2000/svg" width="196.94" height="43.014" viewBox="0 0 196.94 43.014">
  <path id="Caminho_11" data-name="Caminho 11" d="M461.47,746.211c-2.625,2.014-5.375.855-8.652.243-.646,2.582-1.463,5.21-1.919,7.9-.3,1.775-1.081,2.479-2.769,2.237-1.559-.224-3.11-.51-4.656-.813a44.135,44.135,0,0,1-6.987-1.514,38.945,38.945,0,0,1-6.8-3.593c-3.546-2.2-7.156-.817-10.737-.986-.053.256-.105.512-.158.768l2.232,1.28c-3.409.581-.943,2.536-1.7,4.188H414.3c.378-1.046.7-1.937,1.021-2.826-.6-.191-1.206-.383-1.808-.572-.822,2.841-3.541,1.9-5.331,2.349-2.722.677-5.663.469-8.1.611.119-5.856.189-11.925.381-17.99.142-4.5.379-4.7,4.833-4.64a10.851,10.851,0,0,1,4.734,1.01,9.675,9.675,0,0,1,2.981-1.1c6.319-.1,12.643-.052,19.008-.052l.966,2.513c5.919,0,11.777-.008,17.635.006,1.47,0,2.119-.514,1.952-2.133a9.5,9.5,0,0,1,.589-2.836l10.611-1.077V726.4H443.446v-7.159c6.163.276,12.229.56,18.294.814,2.211.094,4.434.014,6.633.207,2.478.218,3.332-.783,3.188-3.212-.188-3.158.455-3.621,3.66-3.381,1.587.119,2.256.713,2.187,2.451-.171,4.291-.093,4.2,4.076,3.84,9.226-.786,18.459-1.471,27.69-2.178.917-.069,1.845-.009,3.024-.009V728.01c-9.291,1.087-18.419-.532-27.5-2.14-.988,3.254-.749,3.664,2.151,3.62,2.476-.038,5.209-.9,7.371-.126,4.9,1.762,9.837.977,14.727,1.031,24.381.276,48.763.359,73.145.462,4.146.018,8.295-.176,12.441-.321,1.523-.054,2.48.263,2.494,2.1.014,1.75-.745,2.133-2.356,2.241a49.9,49.9,0,0,0-5.781,1.087c-.355.066-.875.158-1.085-.027-3.635-3.2-7.954-1.3-11.867-1.339-16.841-.147-33.686.141-50.529.269-.822.007-1.645,0-2.847,0,.235,1.319.408,2.362.609,3.4.387,1.995-.721,3.005-2.708,2.979-9.945-.138-19.9-.413-29.834-.088-3.607.117-7.164,1.765-10.663,2.692-.572,4.8-.568,4.827-5.448,5.354-2.95.318-5.913.524-8.845.778-.475-1.777-.915-3.429-1.4-5.236-1.263.661-1.974,1.034-2.687,1.406-.161-1.264.021-2.758-.612-3.707-.392-.588-2.136-.663-3.057-.346-.487.169-.514,1.672-.769,2.648-.344-.893-.7-1.811-1.392-3.609-.86,1.461-1.936,2.477-1.821,3.332a3.246,3.246,0,0,0,2.318,2.008A25.977,25.977,0,0,0,461.47,746.211Zm-20.2,3.381a5.22,5.22,0,0,0,5.56-5c.119-2.388-.973-3.538-3.473-3.655-3.959-.187-6.973,1.671-7.01,4.322C436.313,747.558,438.467,749.453,441.268,749.592Zm39.462-22.759c0-.17,0-.34,0-.51H467.469q0,.255,0,.51Z" transform="translate(-400.084 -713.62)" fill="currentColor" fill-rule="evenodd"/>
</svg>
