<svg id="Grupo_1264" data-name="Grupo 1264" xmlns="http://www.w3.org/2000/svg" width="52.931" height="10.398" viewBox="0 0 52.931 10.398">
  <path id="Caminho_524" data-name="Caminho 524" d="M109.142,52.915h-.678l-.245.2h-.181L84.914,53.1a.953.953,0,0,0-.082.2.916.916,0,0,1,.082-.2H82.575v-.335H80.563v.171h-.3v-.139H80.13v.139l-.115-.009v-.883h.5v0l1.864.474h2.74V50.135h-2.74l-1.864.475V50.6h-.5v-.13h-.736v-.286h-.768v-.246h.007a.215.215,0,0,0,0-.27H77.186a.185.185,0,0,0,0,.27h0v.425h0v.016h0v.155a.243.243,0,0,0-.058.065H75.665v-.13h-.622l-.129.13h-.606v-.008l-.442-.229H73.54V50.4h-.008l.008.024a.093.093,0,0,0-.008.041h-.606a.112.112,0,0,0-.106-.065H70.71a.187.187,0,0,0-.016.065h-.254a.255.255,0,0,0-.244-.171.261.261,0,0,0-.163.057c-.122.057-.214.45-.214.924a2.2,2.2,0,0,0,.131.826.253.253,0,0,0,.247.163.282.282,0,0,0,.221-.114h.269a.451.451,0,0,1,.026.057H72.82s.057.009.09-.065v.008h.622v.025h0a.064.064,0,0,1,.008.024l.327.008h0l.442-.172v.009h.507v.949h-.146v-.18l-.2-.008v.189h-.237v-.2h-.5v.229h-.057v.138h-.025a.228.228,0,0,0-.107.114.213.213,0,0,1,.042-.073H72.223v.818h.008a.1.1,0,0,0-.105.106V54.4l-.237.05v-.1h-2.1c-.026,0-.041.026-.049.049h-.083s-.015.066-.122.09-.089-.09-.089-.09h-.931v-.122H66.744v-.507c0-.262-.351-.237-.351-.237l-3.213-.008h-1.84C61,53.529,60.7,54,60.7,54h-.056a.3.3,0,0,1,.056-.13v-.1a13.371,13.371,0,0,1-1.382,0,.21.21,0,0,0-.065-.009c-.2-.016-.409-.033-.605-.066h-.026c-.041.017-.138.066-.195.3a.547.547,0,0,0-.026.2,9.336,9.336,0,0,0-.016,1.128c-.007.311-.024.662-.032,1.031-.066,1.733-.2,3.254-.2,3.254l.008.008c0,.025.026.033.074.041a3.61,3.61,0,0,0,.94-.3h.957l.443.008.058-.008c0-.115.212-.082.45-.082s.235-.1.235-.1v-.565l.335-.2h1.088c.017-.074.156-.057.156-.057v-.4h.007v-.032h0c0-.033.048-.025.048-.025s1.595-.008,2.078,0,1.873,1.4,2.134,1.455.254-.065.254-.065a.4.4,0,0,1,.172.024c.006.187.187.163.964.187A1.939,1.939,0,0,1,69.9,60s1.587.245,1.579-.18a8.706,8.706,0,0,1,.393-2.289c.065-.327.318-.245.318-.245.171.54,1.038.474,1.038.474l1.187-.007c.4-.009.661-.622.661-.622h.157l-.075.712h.163l.092-.712.22.009v1.349l4.015-.433.007-1.3,2.714-.8,3.035.008h3.483a.191.191,0,0,0-.024.1.3.3,0,0,0,.319.262.3.3,0,0,0,.326-.262.228.228,0,0,0-.024-.1h1.741s.041-1.341,0-1.676h16.993l.211.18h.884l.18-.2V53.144ZM78.591,50.6c-.008-.017-.015-.033-.023-.049h.605l-.041.049h-.541Zm-1.48,1.439V52.1c0,.114.082.1.082.1h.252L78.5,52.2c.107,0,.089-.122.089-.122v-.041h.5V52.3l-3.425-.008.008-.253h1.439ZM68.56,55.933h.825c.131,0,.123-.2.123-.2h.187c0,.082.017.115.1.131.629.065,1.046.572.433,1.5a1.668,1.668,0,0,1-1.839.548l-.043-.026a.087.087,0,0,0-.031-.089,1.242,1.242,0,0,1-.229-.171,1.257,1.257,0,0,1-.246-.4.9.9,0,0,1-.033-.3c.048-.6.753-.9.753-.9v-.09Zm16.264-2.625c0,.009-.008.017-.008.024s.008-.015.008-.024Zm.041.647h0Zm-4.432-.785h.2l-1.643-.008h0Zm-6.886.105a.1.1,0,0,0-.015.042h-.008a.152.152,0,0,0,.023-.042Zm-1.178.745h0Zm2.438,2.853a.642.642,0,0,1-.646.647H73.033a.649.649,0,0,1-.655-.647v-.1a.656.656,0,0,1,.655-.654h.2a.464.464,0,0,0-.163.36.749.749,0,0,0,.45.818s.114.017.105-.033A.747.747,0,0,1,73.4,56.12l.761.009a.642.642,0,0,1,.646.646h0v.1Z" transform="translate(-58.158 -49.669)" fill="#aaa"/>
  <path id="Caminho_525" data-name="Caminho 525" d="M63.856,59.271l.033-.042a.087.087,0,0,0-.033.042Z" transform="translate(-61.346 -55.018)" fill="#aaa"/>
  <path id="Caminho_526" data-name="Caminho 526" d="M93.189,57.68H93.2c0-.008,0-.008-.007,0Z" transform="translate(-77.759 -54.148)" fill="#aaa"/>
  <path id="Caminho_527" data-name="Caminho 527" d="M89.569,58.813v-.2h-.335a.106.106,0,0,0-.074.1.1.1,0,0,0,.074.09v.009Z" transform="translate(-75.504 -54.676)" fill="#aaa"/>
  <path id="Caminho_528" data-name="Caminho 528" d="M176.21,58.652a1.8,1.8,0,0,0,0-1.112h-1.5v1.112h1.5Zm-.524-.866a1.256,1.256,0,0,1,0,.662h-.351a1.016,1.016,0,0,1,.009-.662Z" transform="translate(-123.37 -54.073)" fill="#aaa"/>
</svg>
