<svg id="Grupo_1265" data-name="Grupo 1265" xmlns="http://www.w3.org/2000/svg" width="51.499" height="26.128" viewBox="0 0 51.499 26.128">
  <path id="Caminho_530" data-name="Caminho 530" d="M141.181,199.621h-1.1v-.27h-.015c0-.008-.009-.017-.009-.024,0-.123.082-.229.172-.229h-.049v-.131h-.058c-.033,0-.065-.065-.065-.147s.033-.14.065-.14h.859c.032,0,.065.066.065.14s-.033.147-.065.147h-.058v.131h7.008v-.131h-.041c-.032,0-.065-.065-.065-.147s.033-.14.065-.14h.858c.033,0,.058.066.058.14s-.025.147-.058.147h-.065v.131h.073c.082,0,.155.082.172.2h0v.057h-.009c-.025.155-.09.27-.163.27h-1.128v-.27h-.049v.63l-.711.318.156-.155-.156.155c-.318.319-.163.949-.163,1.505a17.916,17.916,0,0,1-.073,5.078l-.139.024v.36c0,.09-.36.163-.81.163s-.81-.074-.81-.163v-.377c-.025,0-.048-.008-.065-.008a15.449,15.449,0,0,1-.237-3.884c.155-1.987.556-2.78-.72-3.017v-.63h-.2v.27h-1.113v-.27h-.2v.27h-.9v-.27h-.262v.27Z" transform="translate(-104.697 -187.537)" fill="currentColor" fill-rule="evenodd"/>
  <path id="Caminho_531" data-name="Caminho 531" d="M61.075,180.706c-.982,0-1.48-.017-1.226,1.594.818,3.966-.115,7.343.179,7.981s1.341.344,2.257-.253,7.678-5.487,8.2-5.806.688-.72,1.391-.72h.515v.181h-.547v.956a.3.3,0,0,0,.335.335h.875c0,.1.138.18.311.18s.311-.082.311-.18h.474V184.9a.33.33,0,0,0,.229.221v.032h.115a1.642,1.642,0,0,0,.212.009H76.3a.642.642,0,0,0,.588.4,3.9,3.9,0,0,1,1.006.229c1.242,1.178-2.192,6.084-3.059,7.171v.393c.606.409,1.219.793,1.824,1.193a17.008,17.008,0,0,0,1.905,1.1c.515-1.251,1.4-3.515,2.208-5.348a1.343,1.343,0,0,1,.564-.057c.7.033.622.531,1.243.531h1.8c1.1,0,1.472-.2,1.676-.637s.524-1.373.769-2.077a1.469,1.469,0,0,1,.352-.572h.981l-.082,1.358s.049.163.156.041a8.1,8.1,0,0,0,.286-1.422c.041-.009.163-.025.294-.057l.392-.065-.016-.066c.008-.009.008-.016.016-.016v.007l.359-.114.057.3-.155.058.311.637a37.222,37.222,0,0,0,4.252,11.21.346.346,0,0,0,.441.1c.27-.131,1.553-.949,1.791-1.088s.139-.286.139-.286a37.487,37.487,0,0,1-4.253-11.21s-.041-.23-.1-.557l.179-.057-.032-.155-.188-.148-.122-1.194a1.867,1.867,0,0,1,.907-.359.372.372,0,0,0,.009.1s.49,0,1.717-.009h9.9s1.382.009,2.535.009c.466,0,.654-.63.7-1.366h.784a1.63,1.63,0,0,0,.073-.27h2.568c.106,0,.2-.278.2-.622s-.09-.613-.2-.613H108.5a.872.872,0,0,0-.057-.18V180.8a1.917,1.917,0,0,0-.025-1.5h.025v-.769a2.89,2.89,0,0,0-.466-1.88,3.08,3.08,0,0,0-.915,0,3.982,3.982,0,0,0,0,1.88v.769h-2.282l-.2-.106h-3.14a.786.786,0,0,0-.8-.515.769.769,0,0,0-.793.515H94.494l-1.643-.18v-.532h-.459v-.122H91.2v.122h-.4v-.139h-.106v-.523H90.8v-.131H91c.041.106.089.172.139.172h.384c.058,0,.115-.082.156-.221v.18H92c.074.188.163.294.262.294h.63c.269,0,.489-.818.489-1.831s-.22-1.84-.489-1.84h-.63c-.122,0-.237.18-.327.474h-.253v.008c-.041-.147-.1-.229-.156-.229h-.384c-.066,0-.131.115-.18.3H90.8v-.318h-.106v-.655h-1.8v-.262a.349.349,0,0,0-.3-.385.354.354,0,0,0-.3.385v-.017l-.18-.368H85.14l-.148.368v-.368h-.94l-.163.344V175h-.573c-.033-.049-.065-.082-.106-.082h-.392c-.163,0-.3.6-.3,1.333s.132,1.333.3,1.333h.392c.041,0,.073-.033.106-.082h.491l.695.319h3.189v.662h-.107v-.139H86.3v.139H85.99v-.139H84.7v.139h-.311v-.139H83.1v.139h-.3v-.139H81.5v.147l-.393.262v.262H79.979l-.237-.245v-.008l.2-.605v-.008h.156l.155-.36a4.651,4.651,0,0,0-1.61-.67.3.3,0,0,0-.106.244v.065h-.679a.826.826,0,0,0-.826.81v.523c0,.155.009.253.009.253H76.9c0-.483-.172-.785-.719-.785h-1.44c-.4,0-.556.491-.6.7a.112.112,0,0,0-.22.033h-.245v-.065a.311.311,0,0,0-.621,0v.1a.175.175,0,0,0-.132.2v.728a.5.5,0,0,0-.318.466v.328H61.075Zm45.669.058a.242.242,0,0,1-.008-.066h.2v.066Zm-27.589-3.148a.2.2,0,0,1,0,.392.2.2,0,0,1,0-.392Zm2.053,11.742a11.08,11.08,0,0,1,.842-1.546,1.589,1.589,0,0,1,.507-.318h.237a.4.4,0,0,1,.131.261,3.836,3.836,0,0,0,.131,1.5,1.167,1.167,0,0,0,.916.761c.318-.017-1.309-1.284.147-2.519H86.44a.616.616,0,0,1-.017.294c-.188.679-.351,1.137-.572,1.758s-.483.76-1.154.76H82.474l-1.243-.76h0Zm-18.161-5.569c0-.376.056-.482.089-.506a1.3,1.3,0,0,1,.532-.065h3.541c.212,0,.384.09.408.171s-.073.3-.572.63h-.009c-.025.016-2.453,1.709-3.647,2.56a.9.9,0,0,1-.311.155,1.814,1.814,0,0,1-.032-.417h0v-2.528Z" transform="translate(-59.784 -173.38)" fill="currentColor" fill-rule="evenodd"/>
</svg>
