<svg xmlns="http://www.w3.org/2000/svg" width="218.781" height="56.95" viewBox="0 0 218.781 56.95">
  <path id="Caminho_29" data-name="Caminho 29" d="M697.056,1742.4a49.184,49.184,0,0,0,11.585-1.348c11.254-2.847,22.546-5.546,33.826-8.29q15.181-3.693,30.372-7.353c.467-.112,1.009-.475,1.381.253.059.112.5.07.758.029a19.822,19.822,0,0,0,2.2-.43c2.662-.753,5.367-.278,8.1-.423a3.674,3.674,0,0,1,.095.672,5.109,5.109,0,0,0,1.348,4.113,2.052,2.052,0,0,1,.3,2.263q-3.53,9.773-7.012,19.559c-.441,1.233-.777,2.492.164,3.649a2.373,2.373,0,0,0,1.041.746,60.552,60.552,0,0,0,6.607,1.947,13.547,13.547,0,0,0,3.872-.268,3.68,3.68,0,0,0,1.455-.355,1.393,1.393,0,0,0,.389-2.054,3.712,3.712,0,0,1-.149-3.712c2.148-5.634,4.236-11.29,6.317-16.949.273-.744.659-1.166,1.487-1.1a4.615,4.615,0,0,0,.983-.037.925.925,0,0,1,1.1.642,3.324,3.324,0,0,0,3.208,2.157c4.265-.142,8.528-.326,12.792-.518a2.087,2.087,0,0,0,2.04-1.6c.2-.693.6-.745,1.142-.438.518.292,1.022.606,1.612.958l-1.261,3.04c.613.513.986.422,1.295-.247.5-1.081,1.085-2.122,1.569-3.209a2.454,2.454,0,0,1,1.091-1.191,1.906,1.906,0,0,0,.688-1.3,24.445,24.445,0,0,0,.031-2.8h1.859c.124,1.287.189,2.533.376,3.762a6.951,6.951,0,0,0,1.521,3.676,1.617,1.617,0,0,1,.175.916c.028.753.354,1.182,1.148,1.163.06,0,.12,0,.18,0,1.888.038,1.888.038,2.33-1.851.527,0,1.086,0,1.645,0q26.526.107,53.052.2c.773,0,1.436-.013,1.51,1.018.012.153.421.394.649.4a33.28,33.28,0,0,0,6.166-.07,6.547,6.547,0,0,0,3.251-2.13c1.89-2.041,2.143-4.635,1.926-7.307a8.046,8.046,0,0,0-3.339-5.975,1.462,1.462,0,0,0-.727-.254c-1.4-.116-1.4-.107-1.54-1.6.617-.156,1.143-.3,1.514.523a1.46,1.46,0,0,0,1.1.687,16.189,16.189,0,0,0,3.2-.329c.306-.063.515-.6.9-1.095,1.037.109,2.334.257,3.632.381,1.248.119,2.5.248,3.748.31a2.321,2.321,0,0,0,2.549-1.552c.5-1.2.37-2.9-.467-3.514a3.557,3.557,0,0,0-1.979-.625c-2.269.006-4.536.128-6.8.247-1.36.072-1.634-.139-1.633-1.478q0-2.464.013-4.928a7.364,7.364,0,0,1,.483-3.221c.6-1.309.243-2.421-.729-2.892a1.876,1.876,0,0,0-2.38.188.982.982,0,0,1-.635.2c-2.335.036-3.361,1.206-3.012,3.648-.424-.095-.795-.187-1.17-.259a3.067,3.067,0,0,0-.773-.1c-.952.068-1.9.251-2.854.232-.858-.016-1.716-.346-2.572-.343-1.347.005-2.7.3-4.039.254-7.762-.241-15.522-.543-23.283-.825-.324-.013-.648-.045-1.091-.077,0-.789-.006-1.529,0-2.27.005-.479-.024-.886-.661-.956a.972.972,0,0,1-.646-.427,1.409,1.409,0,0,0-2.01-.567c-2.569,1.1-5.224.872-7.887.6-.644-.066-1.354.057-1.739-.755-.084-.177-.7-.179-1.051-.132a6.085,6.085,0,0,0-1.159.391c-.431-1.257-.613-1.376-1.526-.9a.993.993,0,0,0-.427.7,2.328,2.328,0,0,0,1.188,2.366.516.516,0,0,1,.172.195c.025.044.005.114.005.313a6.974,6.974,0,0,1-.791.053q-9.984-.352-19.969-.717-12.984-.469-25.969-.946c-2.6-.095-5.193-.184-7.788-.317a2.633,2.633,0,0,0-2.115.747,13.769,13.769,0,0,0-1.265,1.134c-.8,1.006-1.716.854-2.7.41a1.236,1.236,0,0,1-.167-.064c-1.106-.717-1.1-.717-1.789.47-.325.564-.653,1.126-1.021,1.759l1.293.72c-.612.65-1.208,1.273-1.792,1.907-.161.175-.384.368-.412.575-.172,1.288-1.021,1.271-2.02,1.183-1.068-.093-2.148-.049-3.224-.071a2.185,2.185,0,0,0-1.626.48,1.488,1.488,0,0,1-1.951-.127,2.109,2.109,0,0,0-3.286-.012,1.764,1.764,0,0,1-1.133.3q-15.048-.4-30.1-.831-17.556-.482-35.113-.954c-.577-.016-1.179.086-1.618-.512-.119-.163-.555-.115-.847-.127-.865-.031-1.731-.07-2.6-.056s-1.211.4-1.119,1.235c.25,2.254.636,4.5.746,6.762.126,2.589-.022,5.19.011,7.785.063,5.042-.882,9.983-1.411,14.967-.021.207-.042.416-.048.624C695.793,1742.16,696.009,1742.41,697.056,1742.4Zm195.906-21.78a2.936,2.936,0,0,0-.376,1.2c.091.884-.4,1.077-1.063,1.176a5.337,5.337,0,0,1-.894.014c-14.569-.364-29.138-.755-43.709-1.062a15.4,15.4,0,0,1-4.841-1.046c.647,0,1.214,0,1.78,0,3.4.014,6.8.383,10.189-.185a10.84,10.84,0,0,1,1.959-.173c8.271.135,16.542.356,24.813.4,2.852.015,5.717.68,8.59-.266A11.855,11.855,0,0,1,892.962,1720.62Zm-55.422,6.82a3.664,3.664,0,0,1,1.628-.629c1.814-.126,3.639-.206,5.456-.171,2.495.048,4.985.28,7.479.314,2.231.031,4.466-.141,6.7-.14.938,0,1.872.273,2.813.313,1.117.046,2.239-.066,3.357-.039,1.687.041,3.37.2,5.056.206,2.118.009,4.235-.087,6.354-.127a4.277,4.277,0,0,1,.889.077c1.424.274,2.844.564,4.267.842.081.017.172-.045.261-.054a46.415,46.415,0,0,1,4.69-.394c2.018.023,4.032.289,6.05.423,1.129.075,2.265.065,3.391.167.234.021.438.367.656.564-.24.117-.478.329-.721.336-1.519.041-3.041-.009-4.558.066a14.217,14.217,0,0,0-2.15.429c-.442.01-.929-.158-1.422-.181q-6.345-.294-12.692-.535c-.741-.028-1.5.126-2.225.024-.686-.1-1.188.362-1.951.256a50.174,50.174,0,0,0-6.427-.274,8.759,8.759,0,0,0-1.813.356c-.214.053-.464-.125-.723-.14-2.586-.145-5.172-.313-7.76-.376-2.912-.07-5.828-.062-8.741-.034a6.173,6.173,0,0,0-1.531.418c-.011.075-.021.151-.03.227-.233-.145-.455-.387-.7-.418-1.152-.144-2.314-.216-3.47-.339a15.97,15.97,0,0,1-1.94-.3C837.143,1728.17,837.057,1727.75,837.54,1727.44Zm-33.27,4.7c.06-.5,0-1.015.038-1.52.127-1.677.274-3.352.419-5.091.482-.032.927-.03,1.362-.1.932-.142,1.309.306,1.387,1.177.065.712.174,1.421.294,2.126.423,2.491,3.061,4.518,5.322,4.022-.372-.181-.688-.326-1-.484a3.959,3.959,0,0,1-2.4-3.317,24.838,24.838,0,0,1,.045-3.037c.01-.191.213-.528.34-.535,1.325-.066,2.455-.9,3.872-.768,1.914.177,3.857.043,5.693.043a6.488,6.488,0,0,1,.581,1.714q.1,3.575.021,7.151a1.7,1.7,0,0,1-1.785,1.751c-3.667.172-7.332.358-11,.447A2.955,2.955,0,0,1,804.27,1732.14ZM770.1,1716.23a4.2,4.2,0,0,0-1.238,4.355c-1.214.5-2.269.914-3.3,1.37a1.516,1.516,0,0,1-1.948-.323c-.509-.587-.313-1.139.126-1.687.894-1.121,1.755-2.267,2.651-3.384.173-.217.433-.492.667-.506.963-.058,1.933-.024,2.9-.024C770.005,1716.1,770.054,1716.16,770.1,1716.23Zm-68.978,21.19c.158-1.286.229-2.253.4-3.2a51.329,51.329,0,0,0,.669-12.75c-.152-2.2-.857-4.4-.107-6.708l63.8,1.224c-1.018,1.315-1.875,2.418-2.729,3.523-.759.982-.811,1.7-.187,2.51a2.042,2.042,0,0,0,2.632.651,9.842,9.842,0,0,1,4.158-1.252c.176.289.368.607.631,1.042C747.316,1727.44,724.376,1732.4,701.125,1737.42Z" transform="translate(-695.819 -1700.916)" fill="currentColor" fill-rule="evenodd"/>
</svg>
