<svg xmlns="http://www.w3.org/2000/svg" width="118.885" height="68.116" viewBox="0 0 118.885 68.116">
  <path id="Caminho_2" data-name="Caminho 2" d="M210.594,328.456q-11.535,0-23.071-.011a1.546,1.546,0,0,0-1.278.549,4.605,4.605,0,0,0-1.323,2.852c-.026.559-.213.707-.751.709q-4.146.018-8.29.1a12.376,12.376,0,0,0-1.859.2,3.849,3.849,0,0,0-3.388,3.374c-.152.81-.271,1.629-.5,2.419a6.751,6.751,0,0,1-6.167,4.8c-3.744.034-7.484.26-11.227.327a2.04,2.04,0,0,0-2.175,1.608c-1.766,5.378-3.582,10.738-5.373,16.107-.529,1.585-1.021,3.184-1.556,4.767-.146.434-.164.737.29,1.005a1.357,1.357,0,0,1,.633,1.565,19.631,19.631,0,0,1-.659,2.31c-.476,1.319-1.031,2.611-1.508,3.931a.728.728,0,0,1-.95.562c-2.005-.415-4.03-.754-6.017-1.246q-7.85-1.945-15.672-4.006c-2.155-.563-2.309-.846-1.5-2.945,1.883-4.887,3.825-9.751,5.735-14.627q3.1-7.906,6.179-15.816c.251-.644.465-1.3.668-1.962.227-.737.1-1.166-.6-1.491a8.915,8.915,0,0,0-2.212-.706c-1.558-.264-3.139-.4-4.7-.632a3.641,3.641,0,0,1-2.989-2.281,3.222,3.222,0,0,1-.217-.838c-.188-1.439.056-1.687,1.461-1.545,1.572.158,3.161.255,4.468-.847a8.021,8.021,0,0,0,2.778-5.662,1.47,1.47,0,0,0-.391-.949,6.726,6.726,0,0,0-5.006-2.6,8.774,8.774,0,0,1-1-.112,2.577,2.577,0,0,1-1.576-4.246,6.33,6.33,0,0,1,3.53-1.9,1.348,1.348,0,0,1,.9.162c.938.544,1.857,1.125,2.758,1.729.57.382,1.106.8,1.83.409.774-.414,1.473-.9,1.388-1.925-.048-.587.224-.7.744-.7,1.716-.013,3.432-.091,5.147-.1a.794.794,0,0,0,.9-.638c.407-1.237.165-1.047,1.452-1.078,1.938-.047,3.878-.093,5.817-.089a1.187,1.187,0,0,1,.861.427,1.583,1.583,0,0,0,1.409.734c1.182.016,2.364.006,3.544.041.934.029,1.87.086,2.8.175a2.083,2.083,0,0,1,1.913,1.442.887.887,0,0,0,.987.668c3.633-.008,7.266.026,10.9.032,1.22,0,1.444-.111,1.768-1.281.221-.8.639-.941,1.384-.944,9.785-.049,19.57-.1,29.354-.216,2.087-.023,4.172-.258,6.254-.449.562-.053,1.1-.42,1.657-.45,1.372-.072,2.75-.047,4.124-.025a.839.839,0,0,1,.64.3c.347.692.97.639,1.556.647q4.548.06,9.093.076a.919.919,0,0,0,.642-.258,12.776,12.776,0,0,0,1.255-1.713,1.041,1.041,0,0,1,.933-.628c1.27-.018,2.541-.036,3.811-.014a1.713,1.713,0,0,1,.72.306c1.37.777,2.74,1.557,4.1,2.361a.853.853,0,0,1,.324.522,6.141,6.141,0,0,1,.041.933c.019.46.088.831.633,1.04a1.17,1.17,0,0,1,.639.839c.05,2.515.039,5.03.007,7.545a.8.8,0,0,1-.469.572c-.673.221-.783.722-.793,1.308-.018,1.048-.017,2.1-.053,3.142-.075,2.156-.084,2.213-2.219,2.221-7.511.025-15.023.01-22.534.01C210.594,328.389,210.594,328.422,210.594,328.456Zm-51.41,10.482-.24.033a4.975,4.975,0,0,1-.354-1.093c-.126-1.571-.225-3.144-.282-4.718-.017-.46-.127-.666-.6-.618a22.733,22.733,0,0,0-2.646.273,3.1,3.1,0,0,0-2.434,2.333c-.767,2.957.265,4.836,2.867,5.613a4.282,4.282,0,0,0,1.168.257c2.356.005,4.722.087,7.068-.086a4.135,4.135,0,0,0,3.663-3.553,4.247,4.247,0,0,0-1.308-3.819,2.393,2.393,0,0,0-2.077-.914,27.6,27.6,0,0,1-3.138.012.77.77,0,0,0-.842.558,10.391,10.391,0,0,0-.735,4.246C159.292,337.955,159.223,338.446,159.184,338.938Z" transform="translate(-117.806 -307.548)" fill="currentColor" fill-rule="evenodd"/>
</svg>
