<svg xmlns="http://www.w3.org/2000/svg" width="184.836" height="68.229" viewBox="0 0 184.836 68.229">
  <path id="Caminho_16" data-name="Caminho 16" d="M446.763,935.069c-3.34,0-6.326-.36-9.165.129a11.221,11.221,0,0,0-5.153,2.946c-1.485,1.35-5.051,2.405-6.9,1.437a1.343,1.343,0,0,0-.884-.12c-2.549.692-5.431.9-7.528,2.291a8.754,8.754,0,0,1-5.337,1.3c-6.822.022-6.971.03-7.89-6.734-.944-6.956-2.22-13.93-.047-20.948.659-2.129,1.4-3.213,3.891-3.123,5.61.2,11.236.2,16.847,0a7,7,0,0,1,5.652,2.479c1.539,1.587,3.02,3.465,5.666,2.822a18.116,18.116,0,0,0,1.941-.87,6.017,6.017,0,0,1,1.968-.547q14.205-.059,28.407-.023c1.918.005,3.835.186,5.984.3.229-2.947.481-5.708.65-8.474.265-4.322,1.83-5.887,6.164-5.819q21.645.332,43.286.746c8.649.175,17.3.484,25.946.686,4.566.106,5.938,1.313,6.036,5.79.075,3.507-.036,7.018,0,10.526a1.734,1.734,0,0,0,.616,1.309c1.282.7,2.645,1.744,3.988,1.761,5.193.067,10.391-.214,15.587-.36,3.2-.091,6.4-.258,9.6-.231,1.975.017,1.3,1.747,1.288,2.757-.008.537-.925,1.528-1.412,1.517-4.625-.106-9.245-.529-13.87-.575-4.993-.049-10.147-1.4-14.878,1.421-3.707-.681-3.664,2.158-4.295,4.469-.176.644-.858,1.639-1.282,1.626-.926-.029-2.29-.347-2.657-1a3.12,3.12,0,0,0-3.272-1.743c-6.141.084-12.294-.167-18.419.162-1.525.082-3.451,1.548-4.354,2.927-3.729,5.691-7.11,11.612-10.7,17.4a5.414,5.414,0,0,1-2.207,1.985c-6.436,2.933-13.187,4.746-20.258,3.619-3.02-.482-5.933-2.051-8.69-3.512-.813-.431-1.346-2.2-1.292-3.321a23.33,23.33,0,0,1,5.443-14.048,13.041,13.041,0,0,0,1.406-1.937c1.242-2.246.489-3.838-2.1-4.01a32.329,32.329,0,0,0-7.594.112c-5.056.878-7.5,4.629-9.216,9.1a4.508,4.508,0,0,1-2.3,2.344c-1.518.595-2.046,1.484-1.678,2.9,1.568,6.029,3.2,12.042,4.806,18.061.288,1.077.582,2.154.872,3.231l-.641.257q-1.127-2.217-2.254-4.432c1.255,2.809-.294,4.116-2.535,5.023a67.047,67.047,0,0,1-6.734,2.489,2.456,2.456,0,0,1-2.165-1.029c-1.852-4.905-3.486-9.892-5.26-14.827-1.916-5.336-1.687-10.8-1.136-16.293a1.842,1.842,0,0,0-.159-.7c-.093-.284-.212-.559-.557-1.446-1.9,12.911,2.056,24.17,5.864,35.463C448.847,959.082,444.986,947.586,446.763,935.069Zm53.349-4.036a15.257,15.257,0,0,0-1.414,2.026c-1.093,2.472-.9,5.246-2.383,7.779-.858,1.463-.809,3.582-2.471,4.867a1.949,1.949,0,0,0-.628,1.487c.175,1.757-.6,2.915-1.769,4.162-1.4,1.5-1.019,4.055.432,4.2,2.525.25,5.189.654,7.6.122a78.456,78.456,0,0,0,10.413-3.594,2.987,2.987,0,0,0,1.322-1.295c2.845-4.921,5.666-9.854,8.424-14.823a2.166,2.166,0,0,0,.085-1.881c-2.174-2.953-5.348-2.71-8.521-2.529-2.738.155-1.865,2.432-2.381,4.089-.835-3.963-1.764-4.807-5.079-3.986-.973.241-1.923,1.574-2.376,2.625a11.348,11.348,0,0,0-.337,3.543l-.5.052C500.4,935.826,500.28,933.777,500.112,931.033Zm-14.92-12.845a15.207,15.207,0,0,1,2.022-2.142,2.151,2.151,0,0,1,1.553-.1c.827,2.676,2.982,1.713,4.7,1.728,5.6.052,11.192.02,16.7.02,1.006-4.565,1.711-5.677,3.825-6.262-1.864,2.1-1.977,4.158-.112,4.888a14.709,14.709,0,0,0,4.567.93c2.232.112,4.482-.175,6.72-.1,1.824.055,2.914-.264,2.721-2.471-.161-1.844,1.044-2.31,2.661-1.923.521.125,1.018.508,1.527.512,4.937.04,9.873.024,14.856.024-.325-3.541-1.553-4.789-4.411-4.771-2.717.02-5.433.2-8.149.266q-22.932.525-45.864.994c-1.888.036-3.4.577-4.048,2.341C483.747,914.068,483.469,916.115,485.192,918.188Zm-32.073,6.642v-.122c2.158,0,4.316-.017,6.474.006a39.506,39.506,0,0,0,5.5.036c.724-.1,1.311-1.227,1.961-1.885a7.281,7.281,0,0,0-2.1-.745c-7.476-.218-14.954-.43-22.432-.44-.836,0-1.673,1.257-2.51,1.93.689.407,1.368,1.144,2.07,1.166C445.759,924.894,449.44,924.83,453.119,924.83Zm1.12,12.66q-.193.466-.385.932a25.03,25.03,0,0,1,3.974,2.409,5.523,5.523,0,0,1,1.565,2.9c.789,3.806,1.25,7.683,2.115,11.469a60.9,60.9,0,0,0,2.4,6.833c.458-1.164.8-2.044,1.15-2.925-.438-.34.754-3.438-2-2.264-.624-3.369-1.023-6.927-2-10.317-.654-2.271-1.294-4.061,1.525-5.091.04-.016-.018-.3-.029-.463Zm77.935-21.378a9.258,9.258,0,0,1,2.181-.342c3.058.25,6.1.676,9.163.871,1.25.08,2.73.078,3.109-1.737C541.633,914.232,532.658,914.994,532.174,916.112Zm-79.961,21.1c-2.009,2.953.9,20.987,3.853,23.627A58.8,58.8,0,0,1,452.213,937.209Z" transform="translate(-402.667 -902.114)" fill="currentColor" fill-rule="evenodd"/>
</svg>
