<svg xmlns="http://www.w3.org/2000/svg" width="115.546" height="74.616" viewBox="0 0 115.546 74.616">
  <path id="Caminho_3" data-name="Caminho 3" d="M832.016,331.673c-.853.2-1.751.22-2.618.381a3.07,3.07,0,0,0-2.254,1.408,29.172,29.172,0,0,0-1.42,3.865c-.311.908-.57,1.833-.874,2.742a4.907,4.907,0,0,0-.215,2.473c.146.813.313,1.627.387,2.448a1.772,1.772,0,0,1-1.9,2.063c-5.888.006-11.775-.019-17.664.012a13.665,13.665,0,0,1-6.5-1.491,4.061,4.061,0,0,0-6.075,2.537c-.7,2.144-1.3,4.316-1.929,6.482-1.561,5.4-3.376,10.721-5.074,16.079a18.213,18.213,0,0,0-.743,2.8,5.882,5.882,0,0,0-.053,3.092c.318.833.451,1.737.77,2.57.423,1.109.2,1.827-.937,2.206a8.72,8.72,0,0,1-2.379.472q-4.906.2-9.814.271c-4.086.06-8.173.078-12.259.078a6.76,6.76,0,0,1-3.177-.649,1.218,1.218,0,0,1-.653-1.689,2.588,2.588,0,0,1,.418-.573c-.183-.3-.468-.572-.506-.873a6.787,6.787,0,0,1,.032-1.69c.133-1.028.313-2.051.5-3.072a122.326,122.326,0,0,1,3.869-16.236c1.937-5.965,4.309-11.759,6.814-17.5a15.63,15.63,0,0,0,.946-1.918,6.8,6.8,0,0,0-3.976-7.959c-1.364-.541-2.771-.981-4.169-1.433-1.267-.408-2.552-.761-3.823-1.152-.479-.148-.954-.4-1.011-.937a6.922,6.922,0,0,1,.066-1.748,1.419,1.419,0,0,1,1-1.164c-.136-.224-.4-.456-.367-.636a18.671,18.671,0,0,1,.728-3.255c.652-1.747,1.456-3.439,2.227-5.142.343-.757.769-1.448,1.816-1.232.146.031.34-.171.512-.265l-.062-.129c-.4.054-.762-.233-1.191.02-.313.186-.591-.129-.648-.374a5.834,5.834,0,0,1,.021-1.045,3.4,3.4,0,0,0-.093-1.225,3.074,3.074,0,0,1-.063-1.231.41.41,0,0,1,.313-.253,3.98,3.98,0,0,1,1.21.173c.789.306,1.554.678,2.313,1.056a3.474,3.474,0,0,1,.622.513.783.783,0,0,0,.511.11c1.646,0,3.291,0,4.936.007.567,0,.777.193.872.744.016.1.041.189.063.285,1.971,0,3.909.006,5.848,0,4.676-.019,9.352-.1,14.027-.048,4.649.049,9.306-.317,13.95.182.268.029.423.061.535.347a.679.679,0,0,0,.684.5q9.768-.031,19.535-.025c.4,0,.614-.1.637-.535.036-.714.053-.714.79-.714h33.612c0-.251.011-.438,0-.622a5.346,5.346,0,0,1,.4-2.431c.354-.871.329-.889,1.257-.693a1.116,1.116,0,0,1,.188.077c0,.395-.141.877.04,1.111s.677.215,1.04.245c1.006.085,1,.071,1.149-.9.018-.116.19-.209.292-.313a2.544,2.544,0,0,1,.274.345c.036.065,0,.17,0,.256-.008.819-.008.818.836.854.155.007.311.022.466.037.9.085,1.1.159,1.042-.84-.021-.34.128-.451.472-.413.619.07.85.294.854.937.007.807,0,1.613,0,2.293.5.238.872.451,1.27.6a1.131,1.131,0,0,1,.855,1.378c-.022.137.088.421.153.426.6.044.5.512.505.852.026,1.3.017,2.6.013,3.9,0,.462,0,.938-.694.892,0,1.58-.024,3.1.009,4.624a5.128,5.128,0,0,1-.9,2.769c-.089.147-.295.346-.421.328-.616-.085-.781.323-.907.766a4.755,4.755,0,0,1-2.44,3.06c-.243.126-.466.4-.706.4-1.064.045-2.133.02-3.26.02v-1.47h-2.966v1.446h-2.3c0-.387-.01-.746,0-1.105.009-.261-.083-.381-.355-.378-.779.009-1.56-.011-2.338.019a.474.474,0,0,0-.319.324,9.95,9.95,0,0,0-.015,1.135h-2.34c0-.394.022-.756-.012-1.112-.013-.126-.16-.34-.251-.342-.877-.026-1.756-.016-2.71-.016v1.475h-2.3v-1.44h-2.948v1.434h-2.316c0-.4.017-.759-.01-1.117-.009-.121-.13-.332-.2-.333-.926-.023-1.852-.015-2.818-.015v1.489A27.157,27.157,0,0,0,832.016,331.673ZM807.771,343.48c-.026.371-.245.548-.652.589a2.066,2.066,0,0,1-2.361-1.331c-.61-1.392-1.43-2.7-1.925-4.128a12.19,12.19,0,0,0-1.409-2.914c-.477-.7-.924-1.42-1.432-2.2a6.488,6.488,0,0,0-.34.617,15.951,15.951,0,0,0-1.234,6.169c0,.277.029.49.354.6.136.047.234.278.3.446a2.133,2.133,0,0,1,.136.658,1.963,1.963,0,0,0,1.324,1.749,7.1,7.1,0,0,0,3.142.8q7.689.021,15.379.007a3,3,0,0,0,3.087-2.225q.957-2.879,1.79-5.8a2.576,2.576,0,0,0-1.6-3.237,3.049,3.049,0,0,0-.87-.1c-4.8-.006-9.594,0-14.392-.012-.378,0-.643.093-.764.457-.282.846-.576,1.688-.815,2.545a.863.863,0,0,0,.194.608c1.094,1.539,2.193,3.072,3.314,4.59.295.4.495.774.133,1.208-.382.458-.8.253-1.208.019-.07-.04-.146-.068-.221-.1A6.912,6.912,0,0,1,807.771,343.48Z" transform="translate(-755.696 -307.548)" fill="currentColor" fill-rule="evenodd"/>
</svg>
