<svg xmlns="http://www.w3.org/2000/svg" width="44.82" height="39.529" viewBox="0 0 44.82 39.529">
  <g id="head" transform="translate(-162.295 -260.361)">
    <path id="Caminho_506" data-name="Caminho 506" d="M201.08,267.165c-.943.521-1.751.92-2.51,1.4a4.958,4.958,0,0,1-2.863.675c-2.3-.042-4.61-.025-6.916-.026-.772,0-.826.1-.578.827.271.8.541,1.6.777,2.414a4.6,4.6,0,0,1-.358,3.09,6.053,6.053,0,0,0-.189,4.146,7.314,7.314,0,0,1-.634,5.1,42.532,42.532,0,0,0-1.44,4.205,7.625,7.625,0,0,1-2.651,4.283,1.5,1.5,0,0,0-.665,1.864c.1.283.152.583.227.875a1.791,1.791,0,0,1-.79,2.165,8.925,8.925,0,0,1-9.13.837,23.761,23.761,0,0,1-7.192-5.2c-.688-.671-1.391-1.327-2.071-2.006a1.964,1.964,0,0,1-.624-1.9c.283-1.345.5-2.7.8-4.045a11.452,11.452,0,0,0-.353-4.921c-.535-2.542-1.219-5.069-1.515-7.64-.418-3.623.335-7.015,3.105-9.652a11.7,11.7,0,0,1,9.984-3.179,14.33,14.33,0,0,1,6.213,2.079,17.144,17.144,0,0,1,2.38,1.976,2.109,2.109,0,0,0,1.555.65c3.344,0,6.688.03,10.032.04a5.09,5.09,0,0,1,2.3.49c.793.391,1.624.7,2.434,1.06C200.582,266.851,200.745,266.968,201.08,267.165Zm-28.816-4.558-.223-.049c-.258.358-.538.7-.768,1.078-.206.336-.409.357-.741.17-.939-.529-1.03-.476-1.251.6a1.19,1.19,0,0,0-.036.223c-.006.44-.249.593-.66.575-.491-.02-.982-.032-1.473-.027-.371,0-.526.175-.353.548a9.495,9.495,0,0,0,.418.927c.27.451.08.711-.314.9-.356.17-.729.306-1.086.474-.089.042-.221.187-.2.222a.477.477,0,0,0,.255.246c.362.1.733.167,1.1.24.851.169.873.2.965,1.038.043.383-.028.884.643.81.072-.008.21.233.253.378.161.542.3,1.091.439,1.638.106.4.3.569.674.254.1-.085.21-.16.308-.248.545-.486.742-.492,1.314-.03.161.13.33.252.483.392.677.616.893.62,1.41-.147.467-.692.968-1.126,1.864-.768.407.163.627-.05.654-.5.065-1.1.075-1.1,1.158-1.239a2.031,2.031,0,0,0,.337-.033c.172-.054.336-.137.5-.207a2.031,2.031,0,0,0-.271-.515c-.9-.918-.9-.912.08-1.779.634-.561.642-.649-.082-1.077-1.132-.668-2.25-1.316-2.454-2.809-.05-.364-.42-.371-.744-.308-.5.1-1,.176-1.5.279-.435.09-.585-.113-.6-.513C172.349,263.1,172.3,262.855,172.265,262.607Zm7.322,11.091a4,4,0,0,0-2.986.982,1.4,1.4,0,0,0-.1,2.106,4.606,4.606,0,0,0,1.4.892,3.959,3.959,0,0,0,4.089-.816,1.537,1.537,0,0,0-.077-2.257A2.975,2.975,0,0,0,179.586,273.7Zm4.388,11.455a5.066,5.066,0,0,0-3.833,1.011c-.414.318-.39.632-.065.937a5.231,5.231,0,0,0,4.28,1.643c1.655-.18,2.336-1.011,2.139-2.659a.914.914,0,0,0-1-.929C185.009,285.137,184.518,285.153,183.974,285.153Zm1.785-8.246a2.027,2.027,0,0,0,1.811,1.582.433.433,0,0,0,.259-.294c.192-.973.38-1.949.519-2.931.019-.137-.247-.456-.363-.448A2.334,2.334,0,0,0,185.759,276.907Z" fill="#aaa" fill-rule="evenodd"/>
    <path id="Caminho_507" data-name="Caminho 507" d="M430.1,302.8c-.583,0-1.168.017-1.75-.005-.513-.02-.655-.337-.624-1.15.018-.486.319-.472.658-.458,1.147.05,2.294.09,3.441.145.5.024.6.274.584,1.123-.008.478-.321.426-.616.429-.564.006-1.128,0-1.693,0C430.1,302.859,430.1,302.83,430.1,302.8Z" transform="translate(-225.295 -34.65)" fill="#aaa" fill-rule="evenodd"/>
    <path id="Caminho_508" data-name="Caminho 508" d="M425.229,320.108c-.681-.744-1.272-1.4-1.87-2.039-.23-.247-.467-.491-.719-.715-.568-.505.008-.765.219-1.111.267-.438.47-.175.7.039.7.654,1.386,1.321,2.11,1.946.41.353.49.671.12,1.088C425.628,319.494,425.508,319.707,425.229,320.108Z" transform="translate(-220.774 -47.231)" fill="#aaa" fill-rule="evenodd"/>
    <path id="Caminho_509" data-name="Caminho 509" d="M423.05,274.446a4.249,4.249,0,0,1,.772.8.78.78,0,0,1-.189.675c-.591.631-1.228,1.219-1.848,1.822a.459.459,0,0,1-.7,0c-.676-.568-.707-.884-.085-1.507.505-.507,1.03-.994,1.556-1.479A3.5,3.5,0,0,1,423.05,274.446Z" transform="translate(-219.213 -11.955)" fill="#aaa" fill-rule="evenodd"/>
    <path id="Caminho_510" data-name="Caminho 510" d="M413.969,326.54a4.622,4.622,0,0,1-.868.642c-.118.053-.437-.151-.547-.316a11.624,11.624,0,0,1-.769-1.377c-.3-.609.318-.65.6-.886s.516-.146.679.171C413.34,325.322,413.624,325.87,413.969,326.54Z" transform="translate(-211.699 -54.414)" fill="#aaa" fill-rule="evenodd"/>
    <path id="Caminho_511" data-name="Caminho 511" d="M410.3,272.349c-.291.66-.5,1.181-.758,1.674-.052.1-.317.106-.486.111a.781.781,0,0,1-.312-.122c-.777-.368-.79-.411-.364-1.149.15-.26.3-.52.442-.785.131-.247.273-.493.6-.31C409.728,271.937,410,272.148,410.3,272.349Z" transform="translate(-208.644 -9.628)" fill="#aaa" fill-rule="evenodd"/>
  </g>
</svg>
