<svg xmlns="http://www.w3.org/2000/svg" width="49.938" height="88.729" viewBox="0 0 49.938 88.729">
  <path id="Caminho_42" data-name="Caminho 42" d="M465.4,2152.92c.888-2.142,1.8-4.273,2.766-6.381,1.447-3.157,2.96-6.283,4.415-9.438.8-1.734,1.636-3.463,2.282-5.256a12.285,12.285,0,0,1,4.742-6.3,14.145,14.145,0,0,0,4.323-4.867c1.174-2,2.365-3.988,3.54-5.986.2-.343.358-.71.529-1.052a3.856,3.856,0,0,1-1.022-.5,2.34,2.34,0,0,0-3.167-.529,1.063,1.063,0,0,1-1.646-.5,7.6,7.6,0,0,0-1.579-1.715,1.113,1.113,0,0,1-.13-1.7c.382-.375.854-.662,1.221-1.049,1.07-1.125,2.111-2.279,3.156-3.428a2.963,2.963,0,0,0,.526-.679c.82-1.729,1.59-3.481,2.433-5.2.572-1.166.936-2.522,2.624-3.159a7.145,7.145,0,0,1-.438,1.538c-.739,1.268-1.844,2.37-1.625,4.268a14.48,14.48,0,0,0,.984-1.654c.714-1.688,1.409-3.385,2.048-5.1.672-1.808,1.27-3.645,1.9-5.467.061-.176.1-.412.229-.5.755-.525,1.515-1.048,2.311-1.508a13.621,13.621,0,0,0,2.577-1.4,7.519,7.519,0,0,1,5.394-2.281,1.777,1.777,0,0,1,1.313.535,2.882,2.882,0,0,0,2.5,1.417c.232.015.451.217.68.325,1.75.824,2.155,2.576,2.852,4.129.729,1.627.057,2.96-.847,4.27a1.813,1.813,0,0,0-.321,1.027c.028.769,0,1.378-.969,1.561-.3.057-.626.5-.741.838a7.289,7.289,0,0,0-.237,1.607,2.736,2.736,0,0,1-1.287,2.422,2.26,2.26,0,0,0-.793,1.057c-.554,1.258-1.1,2.524-1.557,3.818-2.336,6.566-4.6,13.157-6.983,19.708a17.187,17.187,0,0,0-1.312,7.753,8.177,8.177,0,0,1-.435,3.385,55.771,55.771,0,0,1-2.286,5.353c-1.135,2.431-2.342,4.827-3.505,7.245q-3.075,6.39-6.132,12.787c-.99,2.063-1.9,4.171-2.994,6.178-1.368,2.508-3.715,3.428-6.433,3.3a14.7,14.7,0,0,1-11.239-5.466,5.949,5.949,0,0,1-1.269-5.746c.723-2.124,1.767-4.14,2.647-6.15l.7.118A7.239,7.239,0,0,1,465.4,2152.92Zm32.445-50.93c.21-.447-.042-.6-.516-.548-.963.106-1.124.842-1.494,1.56-.787,1.525-1.818,2.923-2.666,4.421q-2.443,4.322-4.785,8.7a47.466,47.466,0,0,0-2.374,4.863,8.96,8.96,0,0,1-1.612,2.359c-.72.891-1.841,1.493-2.2,2.72a.707.707,0,0,1-1.128.453c-.108-.072-.875.536-.844.6.331.728-.277.821-.641,1.1a3.539,3.539,0,0,0-1.6,2.519c-.041.393-.479.842-.509,1.411-.069,1.3.474,1.672,1.728,1.534,2.439-.27,3.055-2.38,4.273-3.9.824-1.031.894-2.632,2.446-3.133.458-.146.612-.557.212-1.072a1.784,1.784,0,0,1,.07-2.337c.26-.337.41-.759.666-1.1a9.835,9.835,0,0,1,1.506-1.43,6.264,6.264,0,0,0,1.556-2.66c.877-2.546,2.4-4.744,3.606-7.109,1.151-2.252,2.251-4.531,3.354-6.807a1.582,1.582,0,0,0,.011-.611A15.421,15.421,0,0,0,497.846,2101.99Zm3.335-6.43c.287-.686.647-1.342,1.06-2.184-.262-.131-.658-.478-1.047-.469-.25.006-.56.5-.716.836-.332.713-.582,1.464-.887,2.254C500.619,2096.51,500.819,2096.43,501.181,2095.56Zm-2.081,3.52a.916.916,0,0,0,.582-.354.664.664,0,0,0-.16-.627c-.193-.127-.636-.2-.738-.082a8.4,8.4,0,0,0-.8,1.2A8.193,8.193,0,0,0,499.1,2099.08Zm-23.826,37.22,1.962,3.261A3.716,3.716,0,0,0,475.274,2136.3Z" transform="translate(-461.517 -2083.08)" fill="currentColor" fill-rule="evenodd"/>
</svg>
