<svg xmlns="http://www.w3.org/2000/svg" width="195.839" height="68.943" viewBox="0 0 195.839 68.943">
  <path id="Caminho_18" data-name="Caminho 18" d="M215.075,1139.42c-1.357-.588-2.4-1.073-3.477-1.487a4.051,4.051,0,0,0-1.518-.311q-16.433.482-32.863,1.006c-3.859.117-4.545-.584-4.56-4.553-.005-1.291,0-2.58,0-4.137l-2.169-.128a33.148,33.148,0,0,1,.4,3.486c.037,5.924.056,11.85-.028,17.773a4.08,4.08,0,0,1-.949,2.727,29.066,29.066,0,0,0-7.352,11.129c-.922,2.307-2.357,3.241-4.97,3.147-6.054-.217-12.121-.079-18.18-.094-.665,0-1.33-.063-2.187-.107v-23.558c-2.154,0-4.115-.1-6.053.068-.485.041-1.116.859-1.306,1.442-1.588,4.849-3.08,9.729-4.617,14.593a5.438,5.438,0,0,1-6.427,3.392c-5-1.489-10-2.986-15.227-4.55l11.425-21.546c-1.068-1.871-2.512-2.76-4.588-2.431-.267.043-.549-.024-.816.016-6.88,1.027-13.186-1-19.331-3.728a2.641,2.641,0,0,1-1.29-1.884c-.151-2.374.035-4.769-.072-7.146-.077-1.711-.625-3.416-.583-5.114a42.1,42.1,0,0,1,.813-6.1c.042-.248.627-.451,1-.586A30.27,30.27,0,0,1,94,1109.427a4.8,4.8,0,0,1,2.587.357c3.774-1.191,7.5-2.849,11.686-2.3,1.408.185,1.79-.474,2.021-1.811a13.262,13.262,0,0,1,1.61-4.34,4.1,4.1,0,0,1,4.732-2.041c3.625,1.01,7.51,1.34,10.642,3.817.65.517,1.71.479,2.474.9.926.505,2.212,1.061,2.493,1.884.516,1.515,1.45,1.539,2.616,1.476,5.955-.319,11.909-.7,17.867-.943,1.929-.077,3.872.3,5.811.34,3.053.063,6.114-.08,9.161.074a3.225,3.225,0,0,1,2.464,1.276c1.713,4.386,5.534,4.54,9.272,4.915.871.086,1.756.013,2.829.013.124-1.052.245-2.088.4-3.4,3.513,0,6.966,0,10.421,0q16.948.024,33.9.052c3.191.007,3.189.018,3.486,3.224.029.33.115.652.2,1.08.654.048,1.248.113,1.842.13,4.354.13,8.709.293,13.064.362,2.887.043,3.646-.907,4.066-3.646.17-1.1,1.213-2.135,2.018-3.061.889-1.019,1.791-1.647.273-3.089-1.434-1.359.348-4.087,2.793-4.447a10.217,10.217,0,0,1,1.834,0c2.088.076,2.941,1.32,1.734,3.06-2.176,3.134.033,6.364-.486,9.511-.035.21,1.244.892,1.932.923,2,.088,4.008-.36,5.865,1.011a3.407,3.407,0,0,0,2.578.015c4.543-1.461,9.178-.505,13.762-.549a2.129,2.129,0,0,1,1.422,3.813,5.45,5.45,0,0,1-3.4,1.446c-4.262.012-8.521-.319-12.785-.411a19.5,19.5,0,0,0-3.547.524c-1.2.2-2.4.363-3.574.671a2.662,2.662,0,0,0-1.605,1.215c1.934-.119,3.867-.324,5.8-.335,2.49-.016,4.227,1.6,4.221,3.754a4.516,4.516,0,0,1-4.09,4.327c-3.387.52-6.32-.872-9.367-1.866a7.169,7.169,0,0,0-2.094-.5q-12.87-.06-25.74-.021c-1.488,0-2.973.23-4.686.373,1.148,2.341,1.537,4.569-.52,6.382-2.1,1.856-4.27,1.035-6.625-.481C215.262,1135.2,215.184,1136.98,215.075,1139.42Zm32.279-15.97c.646-3.712.041-4.466-3.4-4.467q-4.679,0-9.359,0h-5.41v4.469Zm-111,19.28c-3.635-1.311-2.35-4.841-3.47-7.305h-4.263c-.291,1.762-.561,3.4-.778,4.712,1.341.428,2.92.443,3.46,1.2C132.688,1143.29,134.353,1143.1,136.354,1142.73Zm-16.691-42.33a3.42,3.42,0,0,0-3.136,1.525c-.925,1.273-1.047,2.537-.605,2.721C117.169,1103.23,118.416,1101.81,119.663,1100.4Zm97.988,32.12c1.77-1.178,2.143-2.729,1.076-3.65-.234-.2-1.215.026-1.215.059C217.506,1130.06,217.581,1131.2,217.651,1132.52ZM164.6,1113.81l.042-.638h-6.98c-.007.041-.015.082-.023.123Q161.114,1113.557,164.6,1113.81Z" transform="translate(-88.33 -1099.135)" fill="currentColor" fill-rule="evenodd"/>
</svg>
