<svg xmlns="http://www.w3.org/2000/svg" width="98.977" height="90.435" viewBox="0 0 98.977 90.435">
  <path id="Caminho_5" data-name="Caminho 5" d="M478.145,568.844c-2.162,0-4.2.074-6.221-.033a7,7,0,0,1-2.813-.726c-2.077-1.092-2.271-2.553-1.825-4.7,1.109-5.347,2.438-10.648,3.672-15.969a.72.72,0,0,0-.374-.927,1.811,1.811,0,0,1-.723-1.328q.074-5.424.33-10.846a5.653,5.653,0,0,1,.778-1.771c-.92-.628-2.48-.97-1.8-2.825-2.958-.149-5.273-1.765-7.8-2.781-2.549-1.025-5.045-2.183-7.547-3.321a10.735,10.735,0,0,1-1.2-.887,1.463,1.463,0,0,0-.735-.231c-1.389-.022-2.778-.005-4.168-.013-.9-.005-1.315-.381-1.327-1.263q-.093-6.954-.158-13.908c0-.055-.023-.129,0-.162.679-.826.229-1.75.285-2.637a6.531,6.531,0,0,1,.786-1.894l-.586-.424c1.173-1.16,2-2.768,3.71-3a21.742,21.742,0,0,1,5.243-.023,3.369,3.369,0,0,1,2.6,3.319,9.414,9.414,0,0,0,.263,2.48,1.559,1.559,0,0,0,1.89,1.032c1.627-.176,3.268-.239,4.9-.351a1.6,1.6,0,0,0,.489-.037c2.151-.917,4.432-.756,6.678-.768,5.829-.032,11.658.007,17.487-.019q3.951-.018,7.9-.178c2.856-.117,5.71-.31,8.563-.5.228-.015.623-.261.629-.412.025-.639.5-.818.923-.874,2.068-.276,2.287-1.994,2.008-3.56-.123-.685.089-.771.623-.764.164,0,.328,0,.491-.016.676-.049.981.188.938.938-.064,1.151.025,2.311-.031,3.463-.038.78.127,1.107,1.018,1.115,1.91.02,3.82.175,5.728.311.629.044.868-.182.78-.789a3.808,3.808,0,0,1,1.561-3.674c.916-.752,1.529-1.862,2.794-2.2a2.416,2.416,0,0,1,2.984,1.025,3.791,3.791,0,0,1,.938,3.235,10.508,10.508,0,0,0-.016,1.73c0,.611-.128,1.246.527,1.686.174.117.188.472.295.769.925-.155,1.038.423,1.073,1.175.052,1.079.2,2.154.307,3.3h2.194c1.171,0,1.455.206,1.828,1.327.12.361.227.728.358,1.157h8.551c1.749,0,2.25.476,2.247,2.262a18.045,18.045,0,0,1-.2,2.679,1.2,1.2,0,0,1-1.4,1.141c-3.043-.062-6.087-.024-9.136-.024a21.24,21.24,0,0,1-.951,2.341,1.4,1.4,0,0,1-.986.627c-.891.046-1.79-.08-2.687-.11a.983.983,0,0,0-.467.2c-.084.052-.122.216-.2.232a17.217,17.217,0,0,1-2.742.525c-2.572.116-5.15.114-7.724.2a1.025,1.025,0,0,0-.741.448,51.425,51.425,0,0,0-2.707,5.385,10.488,10.488,0,0,0-.306,3.32c-.064,1.673.011,3.354-.126,5.02a5.318,5.318,0,0,1-3.323,4.424,12.119,12.119,0,0,1-3.6.909c-1.542.2-3.115.14-4.666.288a6.921,6.921,0,0,1-4.038-1.05c-1.7-.912-3.443-1.74-5.171-2.6a6.825,6.825,0,0,0-.694-.232c0,1.121.011,2.126,0,3.13-.024,1.867-.064,3.733-.1,5.6q-.1,5.86-.19,11.723c-.036,2.078-.144,4.157-.111,6.234a11.418,11.418,0,0,0,.534,2.326.738.738,0,0,1-.286.117c-1.187.028-1.09.828-1.119,1.678-.109,3.251-.294,6.5-.432,9.749-.045,1.03-.018,2.063-.051,3.094-.03.954-.142,1.906-.136,2.859a18.452,18.452,0,0,0,.251,2.081c-.506.04-1.217.132-1.93.147q-4.811.1-9.619.161a3.447,3.447,0,0,1-1.189-.206c-1.146-.411-1.408-.94-1.16-2.138a4.949,4.949,0,0,0,.1-.973c.011-2.475-.019-4.949.022-7.423s.147-4.924.223-7.385C478.153,569.55,478.145,569.251,478.145,568.844Zm27.063-29.336-.187.2a6.575,6.575,0,0,1-4.347-2.767,7.141,7.141,0,0,1-.968-6.468c.235-.856.019-1.1-.846-1.092-1.1.005-2.2.021-3.3.018-.99,0-1.333.319-1.336,1.32-.005,2.034.011,4.069-.008,6.1a1.449,1.449,0,0,0,.854,1.44c1.235.643,2.463,1.3,3.667,2a7.828,7.828,0,0,0,4.826,1.218c1.765-.177,3.546-.2,5.313-.364a4.982,4.982,0,0,0,4.563-4.2,12.741,12.741,0,0,0,.1-2.291c.013-1.721,0-3.442,0-5.153-.076-.033-.123-.073-.17-.073q-5.292,0-10.583.008c-.168,0-.423.058-.489.174a6.184,6.184,0,0,0,2.1,9.026A4.8,4.8,0,0,1,505.208,539.508Z" transform="translate(-446.223 -497.534)" fill="currentColor" fill-rule="evenodd"/>
</svg>
