<svg xmlns="http://www.w3.org/2000/svg" width="205.254" height="39.274" viewBox="0 0 205.254 39.274">
  <path id="Caminho_28" data-name="Caminho 28" d="M391.186,1738.59a7.731,7.731,0,0,0,1.031,3.819,9.661,9.661,0,0,0,3.225,4.06,27.016,27.016,0,0,1,2.545,1.839,12.886,12.886,0,0,0,5.239,2.374,6.3,6.3,0,0,0,1.324.107,1.808,1.808,0,0,0,1.654-1.083c1.519-2.531,3.04-5.067,4.718-7.493a19.651,19.651,0,0,1,2.771-2.744,41.525,41.525,0,0,1,7.521-5.377,25.061,25.061,0,0,1,4-1.806,4.584,4.584,0,0,1,4.624,1.742c.806,1.348,1.574,2.718,2.408,4.048a7.168,7.168,0,0,0,4.811,3.2c4.908,1.052,9.235-.5,13.371-2.971,2.986-1.782,5.945-3.651,9.373-4.5,1.672-.415,3.38-.689,5.077-.994.436-.077.751-.147.73-.692a.661.661,0,0,1,.279-.477c.406-.258.877-.692,1.268-.642,1.022.135,1.753-.639,2.674-.677,6.068-.248,12.137-.469,18.2-.722a1.774,1.774,0,0,1,1.416.635,2.84,2.84,0,0,0,1.34.634,7.643,7.643,0,0,0,1.566.024,2.258,2.258,0,0,0,2.5-1.881.819.819,0,0,1,.956-.73q15.513-.008,31.026-.054h.878c.559,2.573,1.4,3.441,3.91,3.791a32,32,0,0,0,4.454.254q23.8-.027,47.6-.1a7.862,7.862,0,0,0,6.142-2.638c.07-.078.182-.142.209-.232.273-.92.951-.995,1.769-.933,2.578.194,4.162-1.766,3.766-4.531a3.283,3.283,0,0,0-3.541-3.054h-.393c-1.462,0-1.878-.637-1.267-2.038,1.328,0,2.688-.034,4.045.015a1.5,1.5,0,0,0,1.44-.775,6.127,6.127,0,0,0,.156-4.894c-.245-.806-.954-.957-1.706-.953q-6.558.031-13.117.062-8.758.03-17.516.047-13.23.044-26.461.1H536.15c-.092.311-.17.575-.248.836-.672-.841-1.315.265-2.048-.054.029-.123.076-.325.1-.416.547-.069,1.011-.129,1.474-.189,0-.049-.007-.1-.011-.147q-2.765,0-5.529,0c-4.475.006-8.947,0-13.421.03-.9.006-1.807.134-2.71.2a.682.682,0,0,1-.269-.068c-.677-.251-1.182-.154-1.366.715.065-.73-.184-.742-.852-.754-3.571-.062-7.141-.272-10.71-.419a42.059,42.059,0,0,1-4.472-.156c-5.032-.756-10.081-.221-15.119-.309-5.078-.09-10.159.01-15.239.031-5.44.022-10.881.072-16.321.071a48.263,48.263,0,0,0-12.159,1.7A50.038,50.038,0,0,0,425,1718.173c-1.479.835-2.869,1.825-4.313,2.724-1.621,1.008-3.216,2.071-4.9,2.953a13.9,13.9,0,0,1-2.849.81c-2.6.7-5.215,1.357-7.8,2.1a4.712,4.712,0,0,1-3.221-.155c-1.334-.573-2.6-1.32-3.877-2.012-.529-.285-1.018-.645-1.549-.925a2.727,2.727,0,0,0-3.874,1.194,9.9,9.9,0,0,0-1.384,5.092C391.2,1732.84,391.237,1735.72,391.186,1738.59Zm42.845-3.95a3.837,3.837,0,0,1,2.07-1.954c-.737,3.718-.177,5.824,1.909,6.617-.232-.473-.368-.772-.525-1.062-1.565-2.878.4-6.367,4.107-6.434a46.427,46.427,0,0,1,4.864.023,5.58,5.58,0,0,1,2.407.953,1.886,1.886,0,0,1,.869,1.647,4.372,4.372,0,0,1-2.547,4.017,12.893,12.893,0,0,1-11.109.986A3.386,3.386,0,0,1,434.031,1734.64Z" transform="translate(-391.185 -1711.515)" fill="currentColor" fill-rule="evenodd"/>
</svg>
