<svg xmlns="http://www.w3.org/2000/svg" width="41.732" height="20.14" viewBox="0 0 41.732 20.14">
  <path id="Caminho_590" data-name="Caminho 590" d="M65.026,432.853c-.138.875-.115,1.317.1,1.562a.8.8,0,0,0,.6.229l.041.057,6.885,1.08.049-.107c.237.033.655.131.835.131.212,0,.172-.213.057-.238a2.323,2.323,0,0,1-.5-.114h.122l.025-.083c.017-.065,2.053-7.228,2.747-8.242a2.686,2.686,0,0,1,2.52-1.047h2.919a2.02,2.02,0,0,0,1.946-2.282,1.551,1.551,0,0,1,.688-1.366l.008.008a.222.222,0,0,1,.066-.057,2.062,2.062,0,0,1,.588-.229,2.64,2.64,0,0,1,.524-.048h5.552a.464.464,0,0,0,.4-.286v-.163h5.863c.212,0,.261-.213.278-.531h.139s.22-.156.147-.965c0-.016-.009-.033-.009-.057h.009a1.7,1.7,0,0,1-.009-.213h.115c.009.115.017.139.033.139h.433c.018.63.05.63.075.63h8.152c.155,0,.254-.614.254-1.21s-.1-1.2-.254-1.2H98.267c-.026,0-.058,0-.075.63H97.76c-.008,0-.008.009-.016.017.04-.148.065-.229.065-.229v-.074c.107-.057.181-.376.181-.76,0-.409-.082-.745-.2-.769v-.009h-.026a.411.411,0,0,0-.359-.3v.009c-.057-.2-.139-.385-.269-.385h-.205a1.391,1.391,0,0,0-.367-.319.494.494,0,0,0-.377-.082.6.6,0,0,0-.2.082c-.181.106-.278.278-.524.319H78.691v-.115H72.55a.692.692,0,0,0-.115-.2.545.545,0,0,0-.147-.131.4.4,0,0,1-.156-.262H71.9s0,.13-.237.269a.51.51,0,0,0-.132.123.268.268,0,0,0-.057.2H70.212a4.509,4.509,0,0,0-.36.613h-.106l-.017.041c-.032.065-.066.131-.107.2-.041,0-.1.009-.172.009a1.471,1.471,0,0,1-1.079-.426.584.584,0,0,0-.442-.189.559.559,0,0,0-.491.23.137.137,0,0,0,.016.146,1.312,1.312,0,0,0,.311.2c.465.255,1.292.711,1.4,1.276a6.349,6.349,0,0,0-.189,1.211.153.153,0,0,0-.023.065,1.192,1.192,0,0,1-1.014.973,1.728,1.728,0,0,0-.835.245c-.033,0-.066-.008-.1-.008a.7.7,0,0,0-.195-.016,1.233,1.233,0,0,0-.826.286.657.657,0,0,0-.254.647.442.442,0,0,0,.3.327c.042.008.106.016.205.032.564.065,2.035.246,2.289,1.121.3,1.038.065,1.513-1.088,3.573v.009a.294.294,0,0,0,0,.3.617.617,0,0,0,.548.212H68a.4.4,0,0,0-.107.148c-.024.057-.178.3-.358.589a22.748,22.748,0,0,0-2.512,4.759v.017Zm32.348-13.917-.007.082h0v-.082h.007Zm.337.081c.007-.025.015-.058.024-.082a.222.222,0,0,0-.009.082h-.015Zm-.369,1.611v-.736h.016v.213H97.35l-.008.523ZM79.794,425.5a2.087,2.087,0,0,1-.573-1.529,2.623,2.623,0,0,1,.483-1.635h1.873a1.607,1.607,0,0,1,1.217,1.382v.009a1.575,1.575,0,0,1-.392,1.258,1.457,1.457,0,0,1-1.006.515Z" transform="translate(-64.94 -415.665)" fill="currentColor"/>
</svg>
