<svg xmlns="http://www.w3.org/2000/svg" width="173.653" height="39.742" viewBox="0 0 173.653 39.742">
  <path id="Caminho_4" data-name="Caminho 4" d="M259.889,514.262c.118.609.236,1.219.37,1.913l.507.1.009.1-.381.16c.007.046,0,.114.025.137a8.562,8.562,0,0,0,1.027.818,1.757,1.757,0,0,1,.949,1.586c0,.269.1.355.38.407.624.117,1.235.3,1.849.475.244.067.477.177.72.248a1.615,1.615,0,0,1,.859,2.443.26.26,0,0,1-.106.107,4.788,4.788,0,0,1-2.449.937c-1.167-.03-2.335-.007-3.5,0-.179,0-.357.019-.543.028a5.652,5.652,0,0,0,.078,1,.745.745,0,0,0,.395.43c.5.2,1.018.351,1.533.507a4.363,4.363,0,0,1,2.616,2.518.344.344,0,0,1,.028.238c-.2.536-.381,1.078-.613,1.6a1.88,1.88,0,0,1-1.266.894,11.59,11.59,0,0,1-4.475.609,26.921,26.921,0,0,0-2.74.005,5.563,5.563,0,0,1-2.741-.542,2.041,2.041,0,0,0-.824-.175c-6.43-.008-12.86-.02-19.292,0-3.482.012-6.966.081-10.448.13-.473.007-.946.028-1.415.079a1.34,1.34,0,0,0-.547.218,12.74,12.74,0,0,1-1.382.913,4.265,4.265,0,0,1-1.312.271,16.522,16.522,0,0,1-1.765.1q-15.915.03-31.829.053c-2.434.006-4.866.094-7.3.163-.424.013-.592-.074-.588-.548.026-2.5.016-5.007.019-7.512v-.526h-.141v7.737c-.139.012-.282.032-.427.033-1.286,0-2.572-.007-3.858,0-.46,0-.777-.1-.789-.66-.007-.339-.177-.477-.6-.415-1.365.2-2.74.362-4.116.441-1.052.06-2.113-.038-3.17-.045a1.12,1.12,0,0,0-.563.151,6.164,6.164,0,0,1-3.96.683,4.655,4.655,0,0,1-1.854-.754,5.682,5.682,0,0,0-3.02-.759,3.952,3.952,0,0,0-2.686.873c-.693.554-1.494.98-2.152,1.569a10.951,10.951,0,0,0-1.7,1.926,7.222,7.222,0,0,1-2.608,2.217,2.047,2.047,0,0,1-.9.238c-2.332.053-4.667.037-7,.149-.46.021-.887.526-1.35.768-1.268.657-1.57,1.957-2.079,3.109-1.246,2.818-2.467,5.647-3.693,8.474-.382.881-.754,1.765-1.123,2.65a1.754,1.754,0,0,1-.715.795,4.174,4.174,0,0,1-3.71.44c-2.726-.741-5.5-1.316-8.248-1.962-.16-.038-.315-.1-.545-.166.255-.425.479-.813.717-1.192.665-1.055,1.345-2.1,2-3.161a4.314,4.314,0,0,0,.42-.913,30.621,30.621,0,0,1,2.687-5.2c.508-.913,1.042-1.813,1.58-2.71a1.7,1.7,0,0,0-.051-1.776,6.683,6.683,0,0,0-1.384-1.571,1.387,1.387,0,0,0-.968-.24c-1.048.106-2.088.286-3.169.443a3.438,3.438,0,0,1,.418-2.477,3.528,3.528,0,0,0,.548-.963,1.2,1.2,0,0,1,1.086-.754c.527-.1,1.054-.2,1.578-.316.663-.147.719-.236.691-1.006l-17.352,2.034c-.308,1.4-.621,2.811-.925,4.219-.956,4.421-1.917,8.84-2.851,13.266a1.374,1.374,0,0,1-1.17,1.026c-1.53.426-3.082.777-4.631,1.132a2.19,2.19,0,0,1-.9-.01c-.113-.023-.263-.286-.25-.426.087-.9.215-1.8.331-2.706l.564-4.354c.191-1.484.386-2.97.575-4.456.185-1.452.361-2.905.545-4.358s.378-2.9.565-4.354c.183-1.419.367-2.838.543-4.258.145-1.171.27-2.343.425-3.511.017-.127.169-.328.271-.337a26.408,26.408,0,0,1,5.848-.164,23.477,23.477,0,0,0,2.477.144c.415.012.575.107.463.568-.275,1.143-.5,2.3-.764,3.531.874-.047,1.709-.08,2.543-.138.637-.044,1.271-.136,1.909-.177,2.237-.146,4.474-.272,6.71-.42,1.916-.125,3.83-.264,5.745-.4.755-.055,1.509-.128,2.263-.2a.473.473,0,0,0,.309-.129,5.467,5.467,0,0,1,2.924-1.775c1.329-.462,2.681-.86,3.992-1.366a9.9,9.9,0,0,0,1.691-1c.861-.549,1.71-1.118,2.564-1.68.039.041.079.081.118.12-.168.249-.338.5-.507.746,7.329-.136,14.641-.212,22.021.219.039-.193.1-.481.13-.656-.6.007-1.184,0-1.767.022-.515.017-1.03.095-1.545.084-1.874-.041-3.747-.131-5.62-.155-1.33-.018-2.66.056-3.99.061q-3.955.015-7.913-.006a2.645,2.645,0,0,1-.563-.123c.068-.218.069-.532.217-.634.4-.277.437-.705.63-1.078a19.222,19.222,0,0,1,1.684-2.808c.523-.691,1.136-1.025,2.49-.469.368.151.746.283,1.126.4a2.463,2.463,0,0,1,1.487,1.044,1.277,1.277,0,0,0,1.107.558,12.261,12.261,0,0,1,3.549.923.331.331,0,0,1,.191.192l-.956-.267c-.024.055-.049.107-.073.161.393.555,1.226.355,1.675.918.063-.75.119-1.413.179-2.124.5-.067.227.4.434.58h1.52c.032-.212.062-.407.093-.6l.132-.011c.068.214.137.426.206.64l.164.095.174-.532c.369.682.82.367,1.228.418v-.56c.3,0,.3,0,.413.6l.4-.355c.2.38.33.41,1.163.282.021-.182.044-.372.067-.563l.139-.049c.087.2.175.4.312.71.067-.163.125-.3.2-.494.357.749.872.324,1.293.453.04-.254.07-.451.1-.649l.159,0c.032.193.063.387.1.614h1.549c.091-.224.168-.416.245-.606l.33.59h1.487c.029-.2.057-.389.085-.589.087.016.158.009.176.036.126.186.213.514.363.543a3.405,3.405,0,0,0,1.253.01c.131-.023.2-.387.33-.665.2.236.339.566.563.637a2.6,2.6,0,0,0,1.142.025c.092-.015.128-.381.227-.708.232.257.414.623.694.727a2.958,2.958,0,0,0,1.052.03c.146-.287.251-.495.356-.7l.32.675h1.463c.027-.245.051-.464.083-.746.126.089.211.114.223.16.224.852.906.6,1.468.593.1,0,.22-.187.281-.311a1.092,1.092,0,0,0,.045-.367l.141-.03.244.729c.138,0,.321.008.5,0,.518-.024,1.229.275,1.115-.824l.175.1c.045.215.091.43.146.686h1.575a3.2,3.2,0,0,1,.038-.475c.017-.073.111-.129.17-.193.06.067.165.129.172.2.025.252-.017.512.025.76.114.671.26,1.337.4,2.051l2.538.368c.031.23.059.435.086.64l.173.036c.068-.2.137-.407.237-.7h24.98q6.955,0,13.91-.01,16.52-.04,33.037-.1c.553,0,1.1-.079,1.717-.126a2.951,2.951,0,0,0-.014-.848,1.246,1.246,0,0,1,.416-1.311c.212-.234.4-.494.638-.8h-.7c0-.036,0-.071-.005-.106l2.536-.374c-.088-.337-.16-.619-.244-.938l.468-.2c-.123-.281-.239-.546-.354-.813Zm-9.467,9.448c-.164-.008-.313-.021-.463-.021q-13.85,0-27.7-.007c-.479,0-.667.108-.494.609a2.015,2.015,0,0,1,.028.6c.01.741.009.747.757.75q14.148.059,28.3.1a5.35,5.35,0,0,0,1.4-.3c.4-.111.779-.278,1.235-.445l.088-.4h1.315l-.006-.082h-4.343C250.5,524.294,250.466,524.032,250.422,523.71ZM139.465,536.086a3.253,3.253,0,0,1-.966-2.609c-.057-.945-.013-1.9-.013-2.847H137.16c-.32,2-.634,3.957-.958,5.981.2,0,.362.005.526,0,1.822-.057,3.645-.155,5.467-.153a3.172,3.172,0,0,0,2.343-.806,2.449,2.449,0,0,0,.59-2.445c-.344-.7-.729-1.374-1.046-2.083-.184-.41-.437-.492-.871-.554a2.545,2.545,0,0,0-2.774,1.372,5.18,5.18,0,0,0-1,3.743C139.456,535.783,139.453,535.884,139.465,536.086Zm115.468-16.624h4.354c.323-1.221-.567-1.691-1.319-2.293l1.213-.236c-.009-.032-.017-.065-.024-.1h-2.548v1.557h-.717l-.384-1.165C254.479,517.775,254.816,518.611,254.933,519.462Zm-97.544.735,0,.247c.635.044,1.27.09,1.9.132.486.032.973.1,1.458.085,1.836-.053,3.671-.151,5.507-.2,1.537-.035,3.074-.011,4.611-.025.33,0,.66-.058.989-.089l-.006-.138C167.034,520.13,162.211,520.039,157.389,520.2Zm17.921.94c.283-1.1.281-1.421-.052-1.885.033.611-.357.537-.683.545-.708.017-1.464.339-2.163-.453l.06.916c.754-.012,1.381-.048,2.007-.023C175.16,520.263,175.249,520.372,175.31,521.137Zm62.269,5.156v-.159H232.86c0,.053,0,.106,0,.159Zm-15.73-6.226c0,.036-.007.071-.01.106h5.515v-.106Zm-2.927,9.177.21-.017a6.8,6.8,0,0,0,.182-.837,1.322,1.322,0,0,0-.13-.457c-.133.094-.378.186-.379.281A6.942,6.942,0,0,0,218.922,529.244Zm-31.416-8.938.021-.181H185.97c0,.026-.005.052-.007.078Zm-13-1.185-.009-.181-1.367.132c.005.045.009.09.014.135Zm10.859,1.079,0-.068H184.3c0,.022,0,.045,0,.068Z" transform="translate(-92.795 -514.261)" fill="currentColor" fill-rule="evenodd"/>
</svg>
