<svg xmlns="http://www.w3.org/2000/svg" width="60" height="14.688" viewBox="0 0 60 14.688">
  <g id="Grupo_1226" data-name="Grupo 1226" transform="translate(-119.497 -252.805)">
    <g id="Grupo_709" data-name="Grupo 709" transform="translate(-14.996 41.116)">
      <g id="star" transform="translate(134.493 211.689)">
        <path id="Caminho_404" data-name="Caminho 404" d="M507.566,159.7l1.2,3.687a.9.9,0,0,0,.852.619h3.876a.9.9,0,0,1,.527,1.619l-3.136,2.278a.9.9,0,0,0-.326,1l1.2,3.687a.9.9,0,0,1-1.378,1l-3.136-2.279a.894.894,0,0,0-1.052,0l-3.137,2.279a.9.9,0,0,1-1.376-1l1.2-3.687a.9.9,0,0,0-.325-1l-3.136-2.278a.9.9,0,0,1,.526-1.619h3.879a.9.9,0,0,0,.851-.619l1.2-3.687A.892.892,0,0,1,507.566,159.7Z" transform="translate(-459.251 -159.084)" fill="#a19e99"/>
      </g>
    </g>
  </g>
</svg>
