<svg xmlns="http://www.w3.org/2000/svg" width="103.869" height="105.089" viewBox="0 0 103.869 105.089">
  <g id="trofeu" transform="translate(41.114 571.982)">
    <path id="Caminho_588" data-name="Caminho 588" d="M13.548-466.893q-13.1,0-26.2,0c-2.81,0-4.3-1.486-4.31-4.295-.01-3.289-.01-6.262,0-9.088a3.834,3.834,0,0,1,3.987-4.168c1.1-.05,2.244-.059,3.648-.026-.012-.556,0-1.162.023-1.861a5.12,5.12,0,0,1,5.351-5.258c.818-.016,1.636-.012,2.454-.009.786,0,1.573.007,2.359-.008.922-.017.923-.116.928-.883.032-4.553.03-8.258-.006-11.659A4.47,4.47,0,0,0-.768-508.4c-.83-.445-1.633-.928-2.409-1.4-.724-.436-1.407-.847-2.112-1.231a9.74,9.74,0,0,1-3.974-4.033.909.909,0,0,0-.333-.232c-9.857-2.161-17.738-8.085-23.419-17.6a60.983,60.983,0,0,1-8.04-24.3,5.391,5.391,0,0,1,1.1-4.381,5.631,5.631,0,0,1,4.4-1.668q2.808-.014,5.615-.012h5.05c-.112-.388-.224-.772-.34-1.155a5.921,5.921,0,0,1,.717-5.359,5.84,5.84,0,0,1,4.855-2.209q30.527,0,61.055,0a5.866,5.866,0,0,1,4.8,2.227,5.9,5.9,0,0,1,.774,5.258c-.122.412-.246.823-.375,1.245h1.581l5.305,0q1.564,0,3.128,0c2.249.005,3.919.622,4.966,1.832a5.951,5.951,0,0,1,1.082,4.926c-1.988,13.832-6.59,24-14.482,32.01a32.493,32.493,0,0,1-16.763,9.125c-.232.048-.391.1-.723.6a13.882,13.882,0,0,1-3.282,3.435,35.46,35.46,0,0,1-4,2.408c-.34.185-.68.369-1.017.557a4.334,4.334,0,0,0-2.461,4.045c-.041,3.495-.042,7.285,0,11.93a1.255,1.255,0,0,0,.1.639h0a1.5,1.5,0,0,0,.778.136c.771.015,1.543.011,2.315.007q.531,0,1.063,0c.613,0,1.116.005,1.581.017a5.082,5.082,0,0,1,5.243,5.212c0,.05,0,.1,0,.156.019.658.039,1.329.086,1.718.377.034,1,.034,1.444.034h.277c1.954,0,3.641,0,4.74,1.1s1.1,2.773,1.1,4.717q0,1.034,0,2.068c0,1.8.006,3.671-.01,5.51-.024,2.7-1.541,4.182-4.271,4.183Zm-24.428-14.3c-.7,0-1.331.013-1.944.042-.747.034-.833.125-.836.885-.012,2.818-.012,5.782,0,9.063a1.656,1.656,0,0,0,.138.869,1.668,1.668,0,0,0,.872.135q23.514.007,47.028,0a1.589,1.589,0,0,0,.845-.131h0a1.516,1.516,0,0,0,.126-.78c.017-1.822.013-3.679.01-5.475q0-1.037,0-2.073a12.249,12.249,0,0,0-.143-2.366,12.272,12.272,0,0,0-2.4-.146h-.277c-1.749,0-3.012,0-3.917-.974-.82-.883-.855-2.046-.912-3.975v-.108c-.062-1.4-.687-2.032-2.026-2.065-.437-.011-.914-.016-1.5-.016q-.524,0-1.047,0c-.8,0-1.6.008-2.395-.008-2.635-.051-4.1-1.489-4.119-4.049-.039-4.667-.038-8.479,0-12a7.636,7.636,0,0,1,4.16-6.893c.346-.192.694-.381,1.043-.571a32.451,32.451,0,0,0,3.632-2.177,10.686,10.686,0,0,0,2.488-2.612,4.294,4.294,0,0,1,2.782-1.98A29.251,29.251,0,0,0,45.82-526.8c7.372-7.479,11.683-17.062,13.566-30.162a3.142,3.142,0,0,0-.312-2.3,3.534,3.534,0,0,0-2.476-.69q-1.561,0-3.121,0l-5.305,0H46.01c-.368,0-.728-.022-1.109-.045-.184-.011-.382-.023-.6-.034l-2.115-.1.617-2.026c.127-.415.247-.809.364-1.188.224-.73.432-1.408.633-2.087a2.616,2.616,0,0,0-.254-2.346,2.585,2.585,0,0,0-2.151-.9q-30.528,0-61.054,0a2.651,2.651,0,0,0-2.206.878,2.737,2.737,0,0,0-.2,2.439c.213.707.416,1.417.625,2.147q.144.5.293,1.019l.52,1.8-1.849.292c-.126.02-.231.04-.323.057a4,4,0,0,1-.778.092l-2.86,0h-3.5q-2.8,0-5.6.012a2.786,2.786,0,0,0-1.942.553,2.5,2.5,0,0,0-.3,1.807,57.7,57.7,0,0,0,7.6,22.994c5.268,8.828,12.235,14.085,21.3,16.073a4,4,0,0,1,2.517,1.873,6.45,6.45,0,0,0,2.655,2.716c.768.418,1.514.868,2.235,1.3.776.467,1.509.909,2.266,1.315a7.769,7.769,0,0,1,4.293,7.125c.036,3.42.038,7.144.006,11.717-.018,2.632-1.5,4.109-4.167,4.16-.812.015-1.624.012-2.436.008-.792,0-1.584-.007-2.376.008-1.444.028-2.057.633-2.115,2.09-.035.865-.035,1.559,0,2.181a2.7,2.7,0,0,1-.667,2.092,2.651,2.651,0,0,1-2.013.772l-.139,0C-9.584-481.181-10.256-481.193-10.88-481.193Zm2.793-40.678-3.09-1.028a25.531,25.531,0,0,1-9.276-5.354c-5.187-4.642-8.859-10.8-11.557-19.368l-.077-.244c-.184-.583-.374-1.186-.535-1.809a5.375,5.375,0,0,1,.774-4.652,5.285,5.285,0,0,1,4.174-2.024c.517-.017,1.07-.026,1.738-.026.439,0,.878,0,1.317.007s.861.007,1.291.007c.659,0,1.2-.008,1.7-.026l.163,0a3.071,3.071,0,0,1,3.064,2.43c1.98,6.224,4.019,12.546,5.991,18.66Zm-17.848-31.2c-.631,0-1.148.007-1.628.024a2.1,2.1,0,0,0-1.643.7,2.165,2.165,0,0,0-.218,1.852c.138.536.306,1.07.485,1.635l.078.248c2.512,7.982,5.883,13.67,10.609,17.9a22.184,22.184,0,0,0,4.938,3.376l-2.24-6.949c-1.973-6.117-4.013-12.442-6-18.672-.016-.049-.03-.091-.043-.127-.515.017-1.069.025-1.734.025-.439,0-.878,0-1.317-.007S-25.5-553.073-25.935-553.073Zm55.8,30.868,2.034-6.269c.717-2.21,1.408-4.337,2.095-6.464q.677-2.1,1.356-4.191c1.573-4.86,3.2-9.886,4.754-14.84a3.106,3.106,0,0,1,3.189-2.421c.062,0,.125,0,.19,0,.481.016,1,.024,1.642.024.4,0,.808,0,1.212-.006s.824-.006,1.236-.006c.706,0,1.286.009,1.824.028a5.328,5.328,0,0,1,4.217,2.057,5.039,5.039,0,0,1,.729,4.384c-2.17,8.172-5.3,14.318-9.852,19.34a27.3,27.3,0,0,1-10.59,7.329,5.012,5.012,0,0,1-.683.192c-.12.028-.268.062-.459.11Zm13.424-30.883c-.011.03-.023.066-.037.108-1.558,4.968-3.187,10-4.763,14.868q-.678,2.094-1.355,4.189c-.688,2.129-1.378,4.257-2.1,6.469l-.042.128a24.548,24.548,0,0,0,7.048-5.456c4.184-4.617,7.078-10.327,9.108-17.97a1.837,1.837,0,0,0-.191-1.571,2.118,2.118,0,0,0-1.682-.724c-.5-.018-1.04-.026-1.706-.026-.4,0-.808,0-1.212.006s-.824.006-1.236.006c-.677,0-1.234-.008-1.753-.026h-.082ZM10.82-555.346l4.421,8.958,9.885,1.436-7.153,6.972,1.688,9.845-8.841-4.648-8.842,4.648,1.689-9.845-7.153-6.972L6.4-546.389Z" transform="translate(0 0)" fill="#555"/>
  </g>
</svg>
