<svg xmlns="http://www.w3.org/2000/svg" width="26.884" height="17.344" viewBox="0 0 26.884 17.344">
  <g id="Grupo_760" data-name="Grupo 760" transform="translate(-3606 -10125)">
    <path id="retweet" d="M26.883,13.161l-4.19,4.183-4.22-4.2,1.481-1.487,1.673,1.666V3.155a1.025,1.025,0,0,0-.3-.735,1.038,1.038,0,0,0-.742-.308H9.286L7.178.013H20.587a3.137,3.137,0,0,1,3.141,3.152v10.18l1.672-1.67ZM17.22,15.233H6.3a1.038,1.038,0,0,1-.742-.308,1.026,1.026,0,0,1-.3-.735V4.024L6.928,5.69,8.41,4.2,4.19,0,0,4.184,1.483,5.67,3.156,4V14.18A3.137,3.137,0,0,0,6.3,17.332H19.706l-2.108-2.1Zm0,0" transform="translate(3606 10124.999)" fill="currentColor"/>
  </g>
</svg>
