<svg xmlns="http://www.w3.org/2000/svg" width="23.271" height="21.236" viewBox="0 0 23.271 21.236">
  <g id="Grupo_1205" data-name="Grupo 1205" transform="translate(-668.243 -231.348)">
    <g id="MAQUINA" transform="translate(668.243 231.348)">
      <path id="Caminho_357" data-name="Caminho 357" d="M213.786,189.383c-2.311,0-4.622.009-6.933,0a3.018,3.018,0,0,1-3.176-3.165q-.019-4.929.005-9.859a3.016,3.016,0,0,1,3.18-3.158.8.8,0,0,1,.108,0,3.036,3.036,0,0,0,3.047-1.162,2.6,2.6,0,0,1,2.146-.861c1.156,0,2.311-.008,3.467,0,.759.006,1.2.4,1.188,1.034s-.46.986-1.231.989c-1.1,0-2.2-.029-3.3.023a2.28,2.28,0,0,0-1.006.407,3.928,3.928,0,0,0-.659.639,3.09,3.09,0,0,1-2.284.955c-.524,0-1.048-.011-1.571.007a1,1,0,0,0-1.056,1.057q-.014,5.011,0,10.021c0,.7.423,1.037,1.235,1.039,2.618.008,5.236.006,7.854.007q2.871,0,5.742,0c1.014,0,1.338-.321,1.339-1.321q0-3.142,0-6.283c0-.144,0-.289,0-.433a1.012,1.012,0,1,1,2.019.037c.01,1.264.006,2.528.006,3.792,0,1.029,0,2.058,0,3.088a3.009,3.009,0,0,1-3.133,3.144C218.445,189.393,216.115,189.382,213.786,189.383Z" transform="translate(-203.669 -168.151)" fill="#aaa" fill-rule="evenodd"/>
      <path id="Caminho_358" data-name="Caminho 358" d="M348.874,146.313c.657,0,1.249-.008,1.84,0,.752.013,1.2.415,1.188,1.038-.016.6-.468.977-1.187.985-.592.007-1.185,0-1.844,0,0,.649.006,1.256,0,1.863-.009.71-.4,1.162-1,1.168s-1-.433-1.017-1.152c-.013-.594,0-1.189,0-1.879-.673,0-1.314.013-1.954,0a1,1,0,0,1-1.006-1.358.967.967,0,0,1,.963-.657,14.194,14.194,0,0,1,1.461,0c.445.031.567-.149.542-.562a13.633,13.633,0,0,1,0-1.407,1,1,0,0,1,1.049-1.061,1.016,1.016,0,0,1,.969,1.089c.009.307,0,.614.005.921S348.874,145.908,348.874,146.313Z" transform="translate(-328.631 -143.288)" fill="#aaa" fill-rule="evenodd"/>
      <path id="Caminho_359" data-name="Caminho 359" d="M255.437,217.859a5.057,5.057,0,1,0,5.092,5.035A5.071,5.071,0,0,0,255.437,217.859Zm0,8.082a3.025,3.025,0,1,1,3.057-3.046A3.014,3.014,0,0,1,255.44,225.941Z" transform="translate(-245.35 -209.778)" fill="#aaa" fill-rule="evenodd"/>
    </g>
  </g>
</svg>
