<svg xmlns="http://www.w3.org/2000/svg" width="21.593" height="20.861" viewBox="0 0 21.593 20.861">
  <g id="publish" transform="translate(-30.151 -129.56) rotate(3)">
    <path id="Caminho_460" data-name="Caminho 460" d="M37.472,305.166c.023-.034.049-.067.069-.1a13.907,13.907,0,0,1,2.613-3.4,6.865,6.865,0,0,1,2.735-1.583,3.109,3.109,0,0,1,1.6.016c.141.031.28.07.449.113a27.689,27.689,0,0,0-2.628,4.548l-.13-.1a3,3,0,0,0-.808-.536,2.463,2.463,0,0,0-1.728-.009,9.847,9.847,0,0,0-2.027,1.026c-.045.028-.094.048-.141.071C37.472,305.195,37.472,305.181,37.472,305.166Z" transform="translate(0 -166.311)" fill="currentColor" fill-rule="evenodd"/>
    <path id="Caminho_461" data-name="Caminho 461" d="M459.018,126.922a12.859,12.859,0,0,1-.311,2.576,13.37,13.37,0,0,1-.564,2.082c-.012.032-.025.064-.045.112-1.272-1.288-2.564-2.536-3.814-3.867.282-.091.535-.175.79-.255a15.144,15.144,0,0,1,3.561-.631.973.973,0,0,0,.1-.018Z" transform="translate(-400.551 0)" fill="currentColor" fill-rule="evenodd"/>
    <path id="Caminho_462" data-name="Caminho 462" d="M174.277,193.065a.916.916,0,0,1-.1-.071c-.413-.395-.829-.786-1.235-1.187-.633-.624-1.258-1.256-1.889-1.882a.129.129,0,0,1-.036-.168c.178-.385.346-.775.531-1.155a23.509,23.509,0,0,1,3.418-5.161,20.533,20.533,0,0,1,4.529-3.914c.1-.063.206-.114.3-.177a.13.13,0,0,1,.186.027c.478.466.962.926,1.438,1.394q1.684,1.655,3.365,3.315a.122.122,0,0,1,.022.185,21.921,21.921,0,0,1-7.372,7.163,29.977,29.977,0,0,1-3,1.567C174.389,193.022,174.339,193.04,174.277,193.065Zm5.211-6.7a1.676,1.676,0,0,0,1.717-1.674,1.685,1.685,0,1,0-3.37,0A1.683,1.683,0,0,0,179.488,186.364Z" transform="translate(-128.323 -50.355)" fill="currentColor" fill-rule="evenodd"/>
    <path id="Caminho_463" data-name="Caminho 463" d="M268.506,480.9c.048-.074.1-.148.142-.222a9.242,9.242,0,0,0,.981-2,2.3,2.3,0,0,0-.471-2.346l-.183-.217a28.981,28.981,0,0,0,4.549-2.679c.035.2.08.381.094.563a4.511,4.511,0,0,1-.2,2.047,7.035,7.035,0,0,1-.8,1.506,9.458,9.458,0,0,1-1.942,1.95,15.772,15.772,0,0,1-2.047,1.362c-.034.019-.068.036-.1.054Z" transform="translate(-222.021 -332.995)" fill="currentColor" fill-rule="evenodd"/>
    <path id="Caminho_464" data-name="Caminho 464" d="M422.563,164.3l-4.628-4.591c.2-.106.381-.209.572-.3.026-.013.091.026.123.057.371.356.741.712,1.106,1.074q1.539,1.528,3.075,3.059a.12.12,0,0,1,.026.172C422.735,163.95,422.644,164.139,422.563,164.3Z" transform="translate(-365.62 -31.213)" fill="currentColor" fill-rule="evenodd"/>
  </g>
</svg>
