<svg xmlns="http://www.w3.org/2000/svg" xmlns:xlink="http://www.w3.org/1999/xlink" width="48.925" height="42.458" viewBox="0 0 48.925 42.458">
  <defs>
    <linearGradient id="linear-gradient" x1="0.758" y1="0.312" x2="0.232" y2="0.76" gradientUnits="objectBoundingBox">
      <stop offset="0" stop-color="#ff0095"/>
      <stop offset="0.592" stop-color="#630059"/>
      <stop offset="1" stop-color="#540053"/>
    </linearGradient>
  </defs>
  <g id="Grupo_1261" data-name="Grupo 1261" transform="translate(5.798 -9.491)">
    <path id="Caminho_35" data-name="Caminho 35" d="M395.738,75.193a21.215,21.215,0,1,0-5.73,6.47c6.126,2.757,14.29.49,14.969.49S396.791,80.736,395.738,75.193ZM388.6,73.035a8.327,8.327,0,0,1-6.441,5.621,1.114,1.114,0,0,1-1.04.724h-1.99a1.115,1.115,0,1,1,0-2.229h1.99a1.1,1.1,0,0,1,.825.372,7.088,7.088,0,0,0,5.242-4.036,6.328,6.328,0,0,1-1.207.117V60.852a6.353,6.353,0,0,1,1.957.308v-.592a10.282,10.282,0,0,0-20.564,0v.423a6.5,6.5,0,0,1,1.322-.136V73.6a6.374,6.374,0,0,1-3.3-11.826v-1.21a12.265,12.265,0,1,1,24.529,0v1.65A6.367,6.367,0,0,1,388.6,73.035Z" transform="translate(-361.886 -33.922)" fill="url(#linear-gradient)"/>
  </g>
</svg>
