<svg xmlns="http://www.w3.org/2000/svg" width="37.437" height="36" viewBox="0 0 37.437 36">
  <g id="Grupo_1589" data-name="Grupo 1589" transform="translate(-175.563 -188)">
    <g id="Elipse_18" data-name="Elipse 18" transform="translate(175.563 188)" fill="#222" stroke="#222" stroke-width="2">
      <circle cx="18" cy="18" r="18" stroke="none"/>
      <circle cx="18" cy="18" r="17" fill="none"/>
    </g>
    <path id="Caminho_474" data-name="Caminho 474" d="M383.869,65.679a14.863,14.863,0,1,0-4.014,4.533c4.292,1.932,10.012.344,10.487.344S384.606,69.563,383.869,65.679Zm-5-1.512a5.834,5.834,0,0,1-4.513,3.938.78.78,0,0,1-.729.507h-1.394a.781.781,0,1,1,0-1.562h1.394a.771.771,0,0,1,.578.26,4.966,4.966,0,0,0,3.673-2.828,4.435,4.435,0,0,1-.846.082V55.631a4.451,4.451,0,0,1,1.371.215v-.415a7.2,7.2,0,0,0-14.408,0v.3a4.556,4.556,0,0,1,.926-.1v8.933a4.466,4.466,0,0,1-2.315-8.286v-.848a8.593,8.593,0,1,1,17.186,0v1.156a4.461,4.461,0,0,1-.924,7.579Z" transform="translate(-177.367 147.713)" fill="#e4008b"/>
  </g>
</svg>
