<svg xmlns="http://www.w3.org/2000/svg" width="45.891" height="39.866" viewBox="0 0 45.891 39.866">
  <g id="Grupo_1275" data-name="Grupo 1275" transform="translate(11719.718 -6230.952)">
    <g id="Grupo_1268" data-name="Grupo 1268" transform="translate(-11699.181 5651.887)">
      <path id="União_1" data-name="União 1" d="M12.063,9.28H8.817a5.513,5.513,0,0,1-3.4,1.161A5.319,5.319,0,0,1,0,5.22,5.286,5.286,0,0,1,4.64.053V0H16.627V.12a5.27,5.27,0,0,1,4.254,5.1,5.32,5.32,0,0,1-5.414,5.22A5.513,5.513,0,0,1,12.063,9.28Z" transform="translate(-8.163 595.537)" fill="#371f2d"/>
      <g id="Grupo_1127" data-name="Grupo 1127" transform="translate(-8.687 584.726)">
        <path id="Caminho_546" data-name="Caminho 546" d="M-247.179-446.3h.713c0,.435,0,.854,0,1.271,0,.625.273.892.9.894.524,0,1.047,0,1.57,0a1.457,1.457,0,0,1,1.544,1.434,1.464,1.464,0,0,1-1.536,1.482c-1.843.009-3.687,0-5.529.005a1.525,1.525,0,0,0-.5.06.693.693,0,0,0-.416.808.7.7,0,0,0,.708.573c.569.011,1.138,0,1.707,0a1.448,1.448,0,0,1,1.558,1.551c0,.191,0,.383,0,.6l.725.047v1.407c.161.009.292.022.422.022,1.115,0,2.23.014,3.345,0a5.783,5.783,0,0,1,4.726,2.245,5.358,5.358,0,0,1,.92,5.751,5.615,5.615,0,0,1-4.642,3.608,5.57,5.57,0,0,1-3.762-.784,3.818,3.818,0,0,0-4.189.006,5.83,5.83,0,0,1-8.775-4.217,5.981,5.981,0,0,1,5.255-6.556c1.339-.063,2.683-.036,4.025-.049.147,0,.294,0,.486,0v-1.43l.731-.042a6.116,6.116,0,0,0-.007-.823.689.689,0,0,0-.749-.6c-.58-.011-1.16,0-1.741-.007a1.425,1.425,0,0,1-1.347-.828,1.369,1.369,0,0,1,.116-1.455,1.458,1.458,0,0,1,1.289-.633q2.815,0,5.632,0a.73.73,0,0,0,.8-.584.712.712,0,0,0-.726-.862c-.557-.014-1.115,0-1.672-.005a1.451,1.451,0,0,1-1.575-1.569C-247.181-445.4-247.179-445.834-247.179-446.3Zm10.555,16.053c-.02-.292-.017-.545-.056-.791a5.479,5.479,0,0,0-5.207-4.376c-3.287.065-6.575.027-9.863.01a4.862,4.862,0,0,0-3.185,1.106,4.905,4.905,0,0,0-2.032,4.684,5.1,5.1,0,0,0,7.725,3.651,4.816,4.816,0,0,1,1.046-.488,4.55,4.55,0,0,1,3.8.478,4.885,4.885,0,0,0,5.188.087A4.936,4.936,0,0,0-236.624-430.244Zm-9.856-6.575h-.677v.658h.677Z" transform="translate(257.752 446.297)" fill="currentColor" fill-rule="evenodd"/>
        <path id="Caminho_547" data-name="Caminho 547" d="M-248.385-410.618c0-.457,0-.874,0-1.291s.114-.536.551-.538c.4,0,.8,0,1.193,0,.292,0,.441.134.437.436-.006.442,0,.885,0,1.394h1.227c.539,0,.6.065.6.61,0,.363,0,.727,0,1.09s-.121.467-.474.478a8.6,8.6,0,0,1-.988,0c-.314-.026-.393.1-.371.388.024.328,0,.659.007.988a.378.378,0,0,1-.432.44c-.432,0-.863,0-1.3,0-.317,0-.451-.171-.453-.469,0-.352-.012-.7,0-1.056.01-.227-.077-.3-.3-.288-.34.014-.681.009-1.022,0-.37-.008-.49-.129-.494-.494-.005-.4,0-.8,0-1.193s.095-.49.513-.492S-248.848-410.618-248.385-410.618Zm.735,3.247c.141.008.242.008.34.022.31.046.43-.072.4-.392-.027-.281-.007-.568-.005-.852,0-.5.08-.579.568-.58h1.211v-.735c-.427,0-.822,0-1.218,0-.491,0-.558-.068-.561-.548,0-.406,0-.812,0-1.24h-.735c0,.462,0,.9,0,1.343a.384.384,0,0,1-.432.444h-.785c-.659,0-.66,0-.59.655,0,.02.024.038.036.056a.265.265,0,0,0,.065.019c.409,0,.818,0,1.227.005.351,0,.473.121.476.467C-247.647-408.273-247.65-407.842-247.65-407.37Z" transform="translate(253.119 425.536)" fill="currentColor" fill-rule="evenodd"/>
        <path id="Caminho_548" data-name="Caminho 548" d="M-225.192-405.772a1.461,1.461,0,0,1-1.466-1.436,1.457,1.457,0,0,1,1.46-1.475,1.476,1.476,0,0,1,1.459,1.452A1.478,1.478,0,0,1-225.192-405.772Zm0-.74a.707.707,0,0,0,.713-.709.723.723,0,0,0-.73-.733.718.718,0,0,0-.711.716A.7.7,0,0,0-225.194-406.512Z" transform="translate(238.681 423.228)" fill="currentColor" fill-rule="evenodd"/>
        <path id="Caminho_549" data-name="Caminho 549" d="M-218.61-411.438a1.458,1.458,0,0,1-1.457-1.444,1.475,1.475,0,0,1,1.436-1.474,1.478,1.478,0,0,1,1.474,1.471A1.46,1.46,0,0,1-218.61-411.438Zm.713-1.438a.707.707,0,0,0-.716-.739.724.724,0,0,0-.725.7.718.718,0,0,0,.724.737A.7.7,0,0,0-217.9-412.875Z" transform="translate(234.639 426.707)" fill="currentColor" fill-rule="evenodd"/>
        <path id="Caminho_550" data-name="Caminho 550" d="M-217.157-401.577a1.455,1.455,0,0,1-1.469,1.44,1.454,1.454,0,0,1-1.442-1.467,1.469,1.469,0,0,1,1.469-1.447A1.472,1.472,0,0,1-217.157-401.577Zm-1.471-.737a.728.728,0,0,0-.711.72.722.722,0,0,0,.739.725.707.707,0,0,0,.7-.753A.711.711,0,0,0-218.628-402.313Z" transform="translate(234.639 419.773)" fill="currentColor" fill-rule="evenodd"/>
        <path id="Caminho_551" data-name="Caminho 551" d="M-213.457-407.226a1.441,1.441,0,0,1,1.444-1.457,1.446,1.446,0,0,1,1.452,1.452,1.451,1.451,0,0,1-1.447,1.459A1.445,1.445,0,0,1-213.457-407.226Zm1.44.713a.713.713,0,0,0,.731-.694.727.727,0,0,0-.721-.746.748.748,0,0,0-.739.736A.733.733,0,0,0-212.017-406.513Z" transform="translate(230.585 423.227)" fill="currentColor" fill-rule="evenodd"/>
      </g>
      <path id="Caminho_569" data-name="Caminho 569" d="M-246.021-460.937H-284.88a3.519,3.519,0,0,0-3.516,3.515v25.876a3.519,3.519,0,0,0,3.516,3.515h14.792v5.413h-10.159a.774.774,0,0,0-.773.773.774.774,0,0,0,.773.773h29.595a.774.774,0,0,0,.773-.773.774.774,0,0,0-.773-.773h-10.159v-5.413h14.791a3.519,3.519,0,0,0,3.516-3.515v-25.876A3.519,3.519,0,0,0-246.021-460.937Zm-16.338,38.32h-6.183v-5.413h6.183Zm18.307-8.929a1.971,1.971,0,0,1-1.969,1.969H-284.88a1.971,1.971,0,0,1-1.969-1.969v-25.876a1.971,1.971,0,0,1,1.969-1.969h38.859a1.971,1.971,0,0,1,1.969,1.969Z" transform="translate(267.859 1040.002)" fill="currentColor"/>
    </g>
  </g>
</svg>
