<svg xmlns="http://www.w3.org/2000/svg" xmlns:xlink="http://www.w3.org/1999/xlink" width="105.202" height="111.877" viewBox="0 0 105.202 111.877">
  <defs>
    <linearGradient id="linear-gradient" x1="0.5" x2="0.245" y2="0.301" gradientUnits="objectBoundingBox">
      <stop offset="0" stop-color="#f90093"/>
      <stop offset="1" stop-color="#555"/>
    </linearGradient>
  </defs>
  <g id="Grupo_1149" data-name="Grupo 1149" transform="translate(-253 -608.218)">
    <g id="invite" transform="translate(97.542 390.441)">
      <path id="Caminho_580" data-name="Caminho 580" d="M267.859,320.181a13.243,13.243,0,1,0-10.038,0,23.234,23.234,0,0,0-18.179,22.645h2.9a20.294,20.294,0,0,1,40.588,0h2.9A23.234,23.234,0,0,0,267.859,320.181Zm-15.346-12.253a10.327,10.327,0,1,1,10.327,10.327A10.339,10.339,0,0,1,252.513,307.928Z" transform="translate(-54.781 -57.031)" fill="url(#linear-gradient)"/>
      <path id="Caminho_581" data-name="Caminho 581" d="M208.085,349.593q-23.487,0-46.974,0c-3.7,0-5.658-1.833-5.653-5.525q.037-30.559.144-61.119a7.738,7.738,0,0,1,2.9-5.924c1.7-1.5,3.538-2.854,5.179-4.416a3.678,3.678,0,0,0,1.075-2.318c.106-4.13.046-8.264.051-12.4.007-6.02,3.536-9.579,9.5-9.583,5.763,0,11.526.036,17.287-.042a4.377,4.377,0,0,0,2.474-.914c3.052-2.424,6.013-4.964,9.012-7.456,3.376-2.806,6.341-2.832,9.733-.053,3.061,2.508,6.066,5.086,9.171,7.538a4.385,4.385,0,0,0,2.483.886c5.936.075,11.874.028,17.811.044a8.691,8.691,0,0,1,9.058,9c.044,4.191.055,8.383-.016,12.573a3.3,3.3,0,0,0,1.423,3.095c1.691,1.228,3.265,2.624,4.836,4.009a8.348,8.348,0,0,1,2.966,6.6c-.01,19.966-.015,39.931.115,59.9.025,3.974-2.109,6.209-6.125,6.17C239.053,349.5,223.569,349.593,208.085,349.593ZM164.8,276.025c-1.653,1.383-3.018,2.433-4.276,3.6-1.788,1.657-1.739,1.98.133,3.452q22.087,17.366,44.17,34.737c2.756,2.168,3.7,2.178,6.419.04q18.1-14.253,36.2-28.5c3.19-2.511,6.384-5.017,9.991-7.852l-6.094-5.6c0,2.365-.01,4.107,0,5.85.009,1.234-.074,2.511-1.671,2.532-1.621.021-1.694-1.28-1.7-2.5,0-.407,0-.815,0-1.222,0-7.681-.019-15.362.012-23.043a5.747,5.747,0,0,0-1.638-4.432,6.416,6.416,0,0,0-4.839-1.546q-33.256.011-66.511.006c-5.091,0-6.9,1.829-6.9,6.971q-.006,11.609,0,23.218c0,1.19.042,2.54-1.618,2.553-1.622.014-1.693-1.257-1.68-2.5C164.818,280.019,164.8,278.241,164.8,276.025ZM196.17,315.13l-34.977,31.1h93.29a8.1,8.1,0,0,0-.671-.824q-16.476-14.7-32.943-29.4a1.31,1.31,0,0,0-2.062,0c-1.971,1.631-3.99,3.206-6,4.787-3.277,2.574-6.224,2.569-9.5-.01C200.982,318.947,198.665,317.105,196.17,315.13Zm26.345-2.041,34.67,30.9V285.874Zm-63.587,30.748,34.64-30.786-34.64-27.191Zm39.373-95.7h19.391c-2.769-2.286-5.19-4.368-7.706-6.327a3.1,3.1,0,0,0-4.043.036C203.446,243.826,201.022,245.894,198.3,248.142Z" transform="translate(0 -20)" fill-rule="evenodd" fill="url(#linear-gradient)"/>
    </g>
  </g>
</svg>
