<svg xmlns="http://www.w3.org/2000/svg" xmlns:xlink="http://www.w3.org/1999/xlink" width="118.68" height="103.1" viewBox="0 0 118.68 103.1">
  <defs>
    <linearGradient id="linear-gradient" x1="0.5" x2="0.304" y2="0.244" gradientUnits="objectBoundingBox">
      <stop offset="0" stop-color="#f90093"/>
      <stop offset="1" stop-color="#555"/>
    </linearGradient>
  </defs>
  <g id="Grupo_1148" data-name="Grupo 1148" transform="translate(-247 -616.149)">
    <g id="Grupo_1141" data-name="Grupo 1141" transform="translate(267.537 37.084)">
      <path id="União_1" data-name="União 1" d="M12566.661-10613.336h-8.4a14.262,14.262,0,0,1-8.8,3,13.755,13.755,0,0,1-14-13.5,13.671,13.671,0,0,1,12-13.364v-.137h31v.311a13.629,13.629,0,0,1,11,13.19,13.757,13.757,0,0,1-14,13.5A14.263,14.263,0,0,1,12566.661-10613.336Z" transform="translate(-12524 11259)" fill="#222"/>
      <g id="Grupo_1127" data-name="Grupo 1127" transform="translate(267.859 1040.002)">
        <path id="Caminho_546" data-name="Caminho 546" d="M-230.408-446.3h1.845c0,1.126-.006,2.208,0,3.288.012,1.616.706,2.307,2.317,2.313,1.354.006,2.707-.008,4.06.005a3.767,3.767,0,0,1,3.992,3.708,3.786,3.786,0,0,1-3.973,3.832c-4.767.023-9.534,0-14.3.014a3.946,3.946,0,0,0-1.3.156,1.792,1.792,0,0,0-1.076,2.089,1.819,1.819,0,0,0,1.83,1.483c1.471.028,2.943.005,4.414.011a3.745,3.745,0,0,1,4.03,4.012c.006.495,0,.99,0,1.562l1.874.122v3.639c.417.023.754.057,1.091.058,2.883,0,5.768.036,8.65-.005a14.955,14.955,0,0,1,12.222,5.8,13.856,13.856,0,0,1,2.38,14.872A14.521,14.521,0,0,1-214.353-390a14.4,14.4,0,0,1-9.729-2.028,9.873,9.873,0,0,0-10.833.016,15.076,15.076,0,0,1-22.693-10.9c-1.323-9.073,6.734-16.629,13.589-16.954,3.464-.164,6.939-.094,10.41-.128.379,0,.76,0,1.256,0v-3.7l1.89-.108a15.814,15.814,0,0,0-.018-2.128,1.781,1.781,0,0,0-1.937-1.559c-1.5-.028-3,.009-4.5-.019a3.685,3.685,0,0,1-3.484-2.141,3.541,3.541,0,0,1,.3-3.763,3.77,3.77,0,0,1,3.333-1.637q7.281.01,14.564,0a1.888,1.888,0,0,0,2.074-1.511,1.842,1.842,0,0,0-1.878-2.229c-1.441-.036-2.883,0-4.325-.014a3.751,3.751,0,0,1-4.073-4.058C-230.415-443.983-230.408-445.1-230.408-446.3Zm27.3,41.516c-.051-.756-.043-1.41-.146-2.045-.952-5.878-6.983-11.445-13.466-11.316-8.5.169-17.005.069-25.508.026a12.574,12.574,0,0,0-8.236,2.859c-3.845,3.115-5.964,7.074-5.256,12.113a13.184,13.184,0,0,0,19.979,9.442,12.458,12.458,0,0,1,2.705-1.261,11.767,11.767,0,0,1,9.826,1.237,12.633,12.633,0,0,0,13.416.226A12.766,12.766,0,0,0-203.112-404.781Zm-25.49-17h-1.75v1.7h1.75Z" fill="#5d5e5e" fill-rule="evenodd"/>
        <path id="Caminho_547" data-name="Caminho 547" d="M-245.51-407.715c0-1.183-.009-2.261,0-3.338.011-1.115.294-1.386,1.424-1.392,1.028-.006,2.056,0,3.085,0,.755,0,1.14.347,1.13,1.128-.015,1.144,0,2.289,0,3.6,1.089,0,2.131,0,3.173,0,1.394,0,1.558.168,1.561,1.578,0,.94.012,1.88-.005,2.82-.015.9-.313,1.209-1.226,1.237a22.22,22.22,0,0,1-2.555-.009c-.812-.068-1.016.25-.96,1,.062.848,0,1.7.017,2.555a.977.977,0,0,1-1.118,1.138c-1.116,0-2.233,0-3.35,0-.82,0-1.166-.441-1.171-1.213-.006-.911-.032-1.823.006-2.732.025-.588-.2-.769-.766-.746-.88.036-1.762.024-2.644,0-.958-.022-1.266-.333-1.278-1.278-.014-1.028-.012-2.056,0-3.084.012-1.045.245-1.266,1.326-1.272S-246.706-407.715-245.51-407.715Zm1.9,8.4c.365.022.625.02.88.058.8.119,1.113-.186,1.034-1.015-.069-.728-.017-1.468-.013-2.2.006-1.29.208-1.5,1.468-1.5,1.049,0,2.1,0,3.133,0v-1.9c-1.1,0-2.126,0-3.151,0-1.269-.007-1.443-.177-1.45-1.418-.006-1.05,0-2.1,0-3.207h-1.9c0,1.194-.006,2.335,0,3.474a.992.992,0,0,1-1.117,1.149l-2.029,0c-1.7,0-1.706,0-1.525,1.693.005.051.061.1.092.146a.685.685,0,0,0,.167.049c1.058.006,2.116,0,3.174.014.908.011,1.222.314,1.232,1.208C-243.6-401.651-243.609-400.536-243.609-399.317Z" fill="#5d5e5e" fill-rule="evenodd"/>
        <path id="Caminho_548" data-name="Caminho 548" d="M-222.867-401.155a3.778,3.778,0,0,1-3.79-3.714,3.767,3.767,0,0,1,3.776-3.814,3.816,3.816,0,0,1,3.772,3.756A3.823,3.823,0,0,1-222.867-401.155Zm-.007-1.914a1.827,1.827,0,0,0,1.844-1.833,1.869,1.869,0,0,0-1.888-1.895,1.856,1.856,0,0,0-1.839,1.852A1.819,1.819,0,0,0-222.874-403.069Z" fill="#5d5e5e" fill-rule="evenodd"/>
        <path id="Caminho_549" data-name="Caminho 549" d="M-216.3-406.808a3.769,3.769,0,0,1-3.768-3.735,3.816,3.816,0,0,1,3.715-3.813,3.821,3.821,0,0,1,3.812,3.8A3.776,3.776,0,0,1-216.3-406.808Zm1.843-3.718a1.829,1.829,0,0,0-1.852-1.91,1.872,1.872,0,0,0-1.875,1.821,1.857,1.857,0,0,0,1.873,1.9A1.809,1.809,0,0,0-214.456-410.526Z" fill="#5d5e5e" fill-rule="evenodd"/>
        <path id="Caminho_550" data-name="Caminho 550" d="M-212.54-399.239a3.764,3.764,0,0,1-3.8,3.724,3.761,3.761,0,0,1-3.729-3.794,3.8,3.8,0,0,1,3.8-3.741A3.807,3.807,0,0,1-212.54-399.239Zm-3.8-1.9a1.884,1.884,0,0,0-1.838,1.861,1.868,1.868,0,0,0,1.91,1.876,1.829,1.829,0,0,0,1.817-1.948A1.839,1.839,0,0,0-216.344-401.144Z" fill="#5d5e5e" fill-rule="evenodd"/>
        <path id="Caminho_551" data-name="Caminho 551" d="M-213.457-404.914a3.726,3.726,0,0,1,3.734-3.769,3.739,3.739,0,0,1,3.755,3.756,3.752,3.752,0,0,1-3.743,3.772A3.737,3.737,0,0,1-213.457-404.914Zm3.725,1.844a1.843,1.843,0,0,0,1.89-1.8,1.881,1.881,0,0,0-1.864-1.93,1.935,1.935,0,0,0-1.91,1.9A1.9,1.9,0,0,0-209.732-403.07Z" fill="#5d5e5e" fill-rule="evenodd"/>
      </g>
      <path id="Caminho_569" data-name="Caminho 569" d="M-178.809-460.937H-279.3a9.1,9.1,0,0,0-9.092,9.091v66.918a9.1,9.1,0,0,0,9.092,9.091h38.253v14h-26.273a2,2,0,0,0-2,2,2,2,0,0,0,2,2h76.536a2,2,0,0,0,2-2,2,2,0,0,0-2-2h-26.273v-14h38.252a9.1,9.1,0,0,0,9.092-9.091v-66.918A9.1,9.1,0,0,0-178.809-460.937Zm-42.252,99.1H-237.05v-14h15.989Zm47.344-23.092a5.1,5.1,0,0,1-5.092,5.091H-279.3a5.1,5.1,0,0,1-5.092-5.091v-66.918a5.1,5.1,0,0,1,5.092-5.091h100.495a5.1,5.1,0,0,1,5.092,5.091Z" transform="translate(267.859 1040.002)" fill="url(#linear-gradient)"/>
    </g>
  </g>
</svg>
