<svg xmlns="http://www.w3.org/2000/svg" width="172.096" height="166.795" viewBox="0 0 172.096 166.795">
  <g id="Grupo_1266" data-name="Grupo 1266" transform="translate(201.17 717.004)" opacity="0.5">
    <circle id="Elipse_49" data-name="Elipse 49" cx="0.031" cy="0.031" r="0.031" transform="translate(-156.729 -716.697)" fill="#403f3f"/>
    <circle id="Elipse_50" data-name="Elipse 50" cx="0.123" cy="0.123" r="0.123" transform="translate(-145.726 -716.788)" fill="#403f3f"/>
    <circle id="Elipse_51" data-name="Elipse 51" cx="0.246" cy="0.246" r="0.246" transform="translate(-134.753 -716.911)" fill="#403f3f"/>
    <circle id="Elipse_52" data-name="Elipse 52" cx="0.338" cy="0.338" r="0.338" transform="translate(-123.751 -717.004)" fill="#403f3f"/>
    <circle id="Elipse_53" data-name="Elipse 53" cx="0.338" cy="0.338" r="0.338" transform="translate(-112.656 -717.004)" fill="#403f3f"/>
    <circle id="Elipse_54" data-name="Elipse 54" cx="0.277" cy="0.277" r="0.277" transform="translate(-101.499 -716.943)" fill="#403f3f"/>
    <circle id="Elipse_55" data-name="Elipse 55" cx="0.154" cy="0.154" r="0.154" transform="translate(-90.281 -716.82)" fill="#403f3f"/>
    <circle id="Elipse_56" data-name="Elipse 56" cx="0.031" cy="0.031" r="0.031" transform="translate(-79.064 -716.697)" fill="#403f3f"/>
    <circle id="Elipse_57" data-name="Elipse 57" cx="0.031" cy="0.031" r="0.031" transform="translate(-173.371 -705.602)" fill="#403f3f"/>
    <circle id="Elipse_58" data-name="Elipse 58" cx="0.216" cy="0.216" r="0.216" transform="translate(-162.461 -705.786)" fill="#403f3f"/>
    <circle id="Elipse_59" data-name="Elipse 59" cx="0.492" cy="0.492" r="0.492" transform="translate(-151.642 -706.062)" fill="#403f3f"/>
    <circle id="Elipse_60" data-name="Elipse 60" cx="0.677" cy="0.677" r="0.677" transform="translate(-140.732 -706.247)" fill="#403f3f"/>
    <circle id="Elipse_61" data-name="Elipse 61" cx="0.8" cy="0.8" r="0.8" transform="translate(-129.76 -706.37)" fill="#403f3f"/>
    <circle id="Elipse_62" data-name="Elipse 62" cx="0.861" cy="0.861" r="0.861" transform="translate(-118.726 -706.431)" fill="#403f3f"/>
    <circle id="Elipse_63" data-name="Elipse 63" cx="0.831" cy="0.831" r="0.831" transform="translate(-107.601 -706.401)" fill="#403f3f"/>
    <circle id="Elipse_64" data-name="Elipse 64" cx="0.708" cy="0.708" r="0.708" transform="translate(-96.383 -706.278)" fill="#403f3f"/>
    <circle id="Elipse_65" data-name="Elipse 65" cx="0.492" cy="0.492" r="0.492" transform="translate(-85.072 -706.062)" fill="#403f3f"/>
    <circle id="Elipse_66" data-name="Elipse 66" cx="0.246" cy="0.246" r="0.246" transform="translate(-73.731 -705.816)" fill="#403f3f"/>
    <circle id="Elipse_67" data-name="Elipse 67" cx="0.031" cy="0.031" r="0.031" transform="translate(-62.421 -705.602)" fill="#403f3f"/>
    <circle id="Elipse_68" data-name="Elipse 68" cx="0.123" cy="0.123" r="0.123" transform="translate(-179.01 -694.599)" fill="#403f3f"/>
    <circle id="Elipse_69" data-name="Elipse 69" cx="0.461" cy="0.461" r="0.461" transform="translate(-168.253 -694.936)" fill="#403f3f"/>
    <circle id="Elipse_70" data-name="Elipse 70" cx="0.8" cy="0.8" r="0.8" transform="translate(-157.498 -695.276)" fill="#403f3f"/>
    <circle id="Elipse_71" data-name="Elipse 71" cx="1.077" cy="1.077" r="1.077" transform="translate(-146.68 -695.552)" fill="#403f3f"/>
    <circle id="Elipse_72" data-name="Elipse 72" cx="1.261" cy="1.261" r="1.261" transform="translate(-135.768 -695.736)" fill="#403f3f"/>
    <circle id="Elipse_73" data-name="Elipse 73" cx="1.354" cy="1.354" r="1.354" transform="translate(-124.767 -695.83)" fill="#403f3f"/>
    <circle id="Elipse_74" data-name="Elipse 74" cx="1.354" cy="1.354" r="1.354" transform="translate(-113.672 -695.83)" fill="#403f3f"/>
    <circle id="Elipse_75" data-name="Elipse 75" cx="1.261" cy="1.261" r="1.261" transform="translate(-102.483 -695.736)" fill="#403f3f"/>
    <circle id="Elipse_76" data-name="Elipse 76" cx="1.077" cy="1.077" r="1.077" transform="translate(-91.204 -695.552)" fill="#403f3f"/>
    <circle id="Elipse_77" data-name="Elipse 77" cx="0.831" cy="0.831" r="0.831" transform="translate(-79.864 -695.306)" fill="#403f3f"/>
    <circle id="Elipse_78" data-name="Elipse 78" cx="0.492" cy="0.492" r="0.492" transform="translate(-68.429 -694.968)" fill="#403f3f"/>
    <circle id="Elipse_79" data-name="Elipse 79" cx="0.154" cy="0.154" r="0.154" transform="translate(-56.996 -694.629)" fill="#403f3f"/>
    <circle id="Elipse_80" data-name="Elipse 80" cx="0.215" cy="0.215" r="0.215" transform="translate(-184.65 -683.595)" fill="#403f3f"/>
    <circle id="Elipse_81" data-name="Elipse 81" cx="0.646" cy="0.646" r="0.646" transform="translate(-173.986 -684.026)" fill="#403f3f"/>
    <circle id="Elipse_82" data-name="Elipse 82" cx="1.015" cy="1.015" r="1.015" transform="translate(-163.26 -684.395)" fill="#403f3f"/>
    <circle id="Elipse_83" data-name="Elipse 83" cx="1.354" cy="1.354" r="1.354" transform="translate(-152.504 -684.734)" fill="#403f3f"/>
    <circle id="Elipse_84" data-name="Elipse 84" cx="1.63" cy="1.63" r="1.63" transform="translate(-141.685 -685.01)" fill="#403f3f"/>
    <circle id="Elipse_85" data-name="Elipse 85" cx="1.815" cy="1.815" r="1.815" transform="translate(-130.775 -685.195)" fill="#403f3f"/>
    <circle id="Elipse_86" data-name="Elipse 86" cx="1.908" cy="1.908" r="1.908" transform="translate(-119.773 -685.288)" fill="#403f3f"/>
    <circle id="Elipse_87" data-name="Elipse 87" cx="1.846" cy="1.846" r="1.846" transform="translate(-108.616 -685.226)" fill="#403f3f"/>
    <circle id="Elipse_88" data-name="Elipse 88" cx="1.662" cy="1.662" r="1.662" transform="translate(-97.337 -685.042)" fill="#403f3f"/>
    <circle id="Elipse_89" data-name="Elipse 89" cx="1.384" cy="1.384" r="1.384" transform="translate(-85.964 -684.764)" fill="#403f3f"/>
    <circle id="Elipse_90" data-name="Elipse 90" cx="1.046" cy="1.046" r="1.046" transform="translate(-74.531 -684.426)" fill="#403f3f"/>
    <circle id="Elipse_91" data-name="Elipse 91" cx="0.677" cy="0.677" r="0.677" transform="translate(-63.067 -684.057)" fill="#403f3f"/>
    <circle id="Elipse_92" data-name="Elipse 92" cx="0.277" cy="0.277" r="0.277" transform="translate(-51.571 -683.657)" fill="#403f3f"/>
    <circle id="Elipse_93" data-name="Elipse 93" cx="0.246" cy="0.246" r="0.246" transform="translate(-190.228 -672.531)" fill="#403f3f"/>
    <circle id="Elipse_94" data-name="Elipse 94" cx="0.708" cy="0.708" r="0.708" transform="translate(-179.595 -672.994)" fill="#403f3f"/>
    <circle id="Elipse_95" data-name="Elipse 95" cx="1.169" cy="1.169" r="1.169" transform="translate(-168.961 -673.454)" fill="#403f3f"/>
    <circle id="Elipse_96" data-name="Elipse 96" cx="1.569" cy="1.569" r="1.569" transform="translate(-158.267 -673.854)" fill="#403f3f"/>
    <circle id="Elipse_97" data-name="Elipse 97" cx="1.938" cy="1.938" r="1.938" transform="translate(-147.541 -674.223)" fill="#403f3f"/>
    <circle id="Elipse_98" data-name="Elipse 98" cx="2.215" cy="2.215" r="2.215" transform="translate(-136.722 -674.501)" fill="#403f3f"/>
    <circle id="Elipse_99" data-name="Elipse 99" cx="2.4" cy="2.4" r="2.4" transform="translate(-125.813 -674.686)" fill="#403f3f"/>
    <circle id="Elipse_100" data-name="Elipse 100" cx="2.4" cy="2.4" r="2.4" transform="translate(-114.718 -674.686)" fill="#403f3f"/>
    <circle id="Elipse_101" data-name="Elipse 101" cx="2.246" cy="2.246" r="2.246" transform="translate(-103.468 -674.531)" fill="#403f3f"/>
    <circle id="Elipse_102" data-name="Elipse 102" cx="1.969" cy="1.969" r="1.969" transform="translate(-92.096 -674.255)" fill="#403f3f"/>
    <circle id="Elipse_103" data-name="Elipse 103" cx="1.6" cy="1.6" r="1.6" transform="translate(-80.633 -673.885)" fill="#403f3f"/>
    <circle id="Elipse_104" data-name="Elipse 104" cx="1.2" cy="1.2" r="1.2" transform="translate(-69.137 -673.486)" fill="#403f3f"/>
    <circle id="Elipse_105" data-name="Elipse 105" cx="0.738" cy="0.738" r="0.738" transform="translate(-57.58 -673.023)" fill="#403f3f"/>
    <circle id="Elipse_106" data-name="Elipse 106" cx="0.308" cy="0.308" r="0.308" transform="translate(-46.056 -672.593)" fill="#403f3f"/>
    <circle id="Elipse_107" data-name="Elipse 107" cx="0.185" cy="0.185" r="0.185" transform="translate(-195.715 -661.375)" fill="#403f3f"/>
    <circle id="Elipse_108" data-name="Elipse 108" cx="0.677" cy="0.677" r="0.677" transform="translate(-185.112 -661.867)" fill="#403f3f"/>
    <circle id="Elipse_109" data-name="Elipse 109" cx="1.169" cy="1.169" r="1.169" transform="translate(-174.509 -662.359)" fill="#403f3f"/>
    <circle id="Elipse_110" data-name="Elipse 110" cx="1.631" cy="1.631" r="1.631" transform="translate(-163.876 -662.821)" fill="#403f3f"/>
    <circle id="Elipse_111" data-name="Elipse 111" cx="2.092" cy="2.092" r="2.092" transform="translate(-153.242 -663.282)" fill="#403f3f"/>
    <circle id="Elipse_112" data-name="Elipse 112" cx="2.492" cy="2.492" r="2.492" transform="translate(-142.547 -663.682)" fill="#403f3f"/>
    <circle id="Elipse_113" data-name="Elipse 113" cx="2.8" cy="2.8" r="2.8" transform="translate(-131.76 -663.99)" fill="#403f3f"/>
    <circle id="Elipse_114" data-name="Elipse 114" cx="2.923" cy="2.923" r="2.923" transform="translate(-120.788 -664.113)" fill="#403f3f"/>
    <circle id="Elipse_115" data-name="Elipse 115" cx="2.83" cy="2.83" r="2.83" transform="translate(-109.6 -664.02)" fill="#403f3f"/>
    <circle id="Elipse_116" data-name="Elipse 116" cx="2.523" cy="2.523" r="2.523" transform="translate(-98.198 -663.713)" fill="#403f3f"/>
    <circle id="Elipse_117" data-name="Elipse 117" cx="2.123" cy="2.123" r="2.123" transform="translate(-86.703 -663.313)" fill="#403f3f"/>
    <circle id="Elipse_118" data-name="Elipse 118" cx="1.692" cy="1.692" r="1.692" transform="translate(-75.177 -662.882)" fill="#403f3f"/>
    <circle id="Elipse_119" data-name="Elipse 119" cx="1.2" cy="1.2" r="1.2" transform="translate(-63.59 -662.39)" fill="#403f3f"/>
    <circle id="Elipse_120" data-name="Elipse 120" cx="0.738" cy="0.738" r="0.738" transform="translate(-52.032 -661.928)" fill="#403f3f"/>
    <circle id="Elipse_121" data-name="Elipse 121" cx="0.246" cy="0.246" r="0.246" transform="translate(-40.446 -661.436)" fill="#403f3f"/>
    <circle id="Elipse_122" data-name="Elipse 122" cx="0.092" cy="0.092" r="0.092" transform="translate(-201.17 -650.187)" fill="#403f3f"/>
    <circle id="Elipse_123" data-name="Elipse 123" cx="0.554" cy="0.554" r="0.554" transform="translate(-190.536 -650.649)" fill="#403f3f"/>
    <circle id="Elipse_124" data-name="Elipse 124" cx="1.077" cy="1.077" r="1.077" transform="translate(-179.964 -651.172)" fill="#403f3f"/>
    <circle id="Elipse_125" data-name="Elipse 125" cx="1.569" cy="1.569" r="1.569" transform="translate(-169.361 -651.664)" fill="#403f3f"/>
    <circle id="Elipse_126" data-name="Elipse 126" cx="2.061" cy="2.061" r="2.061" transform="translate(-158.759 -652.156)" fill="#403f3f"/>
    <circle id="Elipse_127" data-name="Elipse 127" cx="2.553" cy="2.553" r="2.553" transform="translate(-148.156 -652.648)" fill="#403f3f"/>
    <circle id="Elipse_128" data-name="Elipse 128" cx="3.015" cy="3.015" r="3.015" transform="translate(-137.522 -653.11)" fill="#403f3f"/>
    <circle id="Elipse_129" data-name="Elipse 129" cx="3.354" cy="3.354" r="3.354" transform="translate(-126.767 -653.45)" fill="#403f3f"/>
    <circle id="Elipse_130" data-name="Elipse 130" cx="3.384" cy="3.384" r="3.384" transform="translate(-115.702 -653.479)" fill="#403f3f"/>
    <circle id="Elipse_131" data-name="Elipse 131" cx="3.046" cy="3.046" r="3.046" transform="translate(-104.268 -653.142)" fill="#403f3f"/>
    <circle id="Elipse_132" data-name="Elipse 132" cx="2.615" cy="2.615" r="2.615" transform="translate(-92.742 -652.71)" fill="#403f3f"/>
    <circle id="Elipse_133" data-name="Elipse 133" cx="2.123" cy="2.123" r="2.123" transform="translate(-81.156 -652.218)" fill="#403f3f"/>
    <circle id="Elipse_134" data-name="Elipse 134" cx="1.63" cy="1.63" r="1.63" transform="translate(-69.567 -651.725)" fill="#403f3f"/>
    <circle id="Elipse_135" data-name="Elipse 135" cx="1.108" cy="1.108" r="1.108" transform="translate(-57.95 -651.203)" fill="#403f3f"/>
    <circle id="Elipse_136" data-name="Elipse 136" cx="0.616" cy="0.616" r="0.616" transform="translate(-46.364 -650.711)" fill="#403f3f"/>
    <circle id="Elipse_137" data-name="Elipse 137" cx="0.123" cy="0.123" r="0.123" transform="translate(-34.775 -650.219)" fill="#403f3f"/>
    <circle id="Elipse_138" data-name="Elipse 138" cx="0.338" cy="0.338" r="0.338" transform="translate(-195.868 -639.338)" fill="#403f3f"/>
    <circle id="Elipse_139" data-name="Elipse 139" cx="0.861" cy="0.861" r="0.861" transform="translate(-185.296 -639.861)" fill="#403f3f"/>
    <circle id="Elipse_140" data-name="Elipse 140" cx="1.384" cy="1.384" r="1.384" transform="translate(-174.724 -640.384)" fill="#403f3f"/>
    <circle id="Elipse_141" data-name="Elipse 141" cx="1.908" cy="1.908" r="1.908" transform="translate(-164.153 -640.908)" fill="#403f3f"/>
    <circle id="Elipse_142" data-name="Elipse 142" cx="2.4" cy="2.4" r="2.4" transform="translate(-153.55 -641.4)" fill="#403f3f"/>
    <circle id="Elipse_143" data-name="Elipse 143" cx="2.923" cy="2.923" r="2.923" transform="translate(-142.978 -641.923)" fill="#403f3f"/>
    <circle id="Elipse_144" data-name="Elipse 144" cx="3.446" cy="3.446" r="3.446" transform="translate(-132.406 -642.446)" fill="#403f3f"/>
    <circle id="Elipse_145" data-name="Elipse 145" cx="3.784" cy="3.784" r="3.784" transform="translate(-121.649 -642.784)" fill="#403f3f"/>
    <circle id="Elipse_146" data-name="Elipse 146" cx="3.477" cy="3.477" r="3.477" transform="translate(-110.247 -642.477)" fill="#403f3f"/>
    <circle id="Elipse_147" data-name="Elipse 147" cx="2.984" cy="2.984" r="2.984" transform="translate(-98.659 -641.984)" fill="#403f3f"/>
    <circle id="Elipse_148" data-name="Elipse 148" cx="2.461" cy="2.461" r="2.461" transform="translate(-87.041 -641.461)" fill="#403f3f"/>
    <circle id="Elipse_149" data-name="Elipse 149" cx="1.938" cy="1.938" r="1.938" transform="translate(-75.423 -640.938)" fill="#403f3f"/>
    <circle id="Elipse_150" data-name="Elipse 150" cx="1.415" cy="1.415" r="1.415" transform="translate(-63.805 -640.415)" fill="#403f3f"/>
    <circle id="Elipse_151" data-name="Elipse 151" cx="0.923" cy="0.923" r="0.923" transform="translate(-52.217 -639.923)" fill="#403f3f"/>
    <circle id="Elipse_152" data-name="Elipse 152" cx="0.4" cy="0.4" r="0.4" transform="translate(-40.6 -639.4)" fill="#403f3f"/>
    <circle id="Elipse_153" data-name="Elipse 153" cx="0.031" cy="0.031" r="0.031" transform="translate(-29.136 -639.031)" fill="#403f3f"/>
    <circle id="Elipse_154" data-name="Elipse 154" cx="0.092" cy="0.092" r="0.092" transform="translate(-201.17 -627.997)" fill="#403f3f"/>
    <circle id="Elipse_155" data-name="Elipse 155" cx="0.554" cy="0.554" r="0.554" transform="translate(-190.536 -628.459)" fill="#403f3f"/>
    <circle id="Elipse_156" data-name="Elipse 156" cx="1.077" cy="1.077" r="1.077" transform="translate(-179.964 -628.982)" fill="#403f3f"/>
    <circle id="Elipse_157" data-name="Elipse 157" cx="1.569" cy="1.569" r="1.569" transform="translate(-169.361 -629.474)" fill="#403f3f"/>
    <circle id="Elipse_158" data-name="Elipse 158" cx="2.092" cy="2.092" r="2.092" transform="translate(-158.79 -629.997)" fill="#403f3f"/>
    <circle id="Elipse_159" data-name="Elipse 159" cx="2.584" cy="2.584" r="2.584" transform="translate(-148.187 -630.489)" fill="#403f3f"/>
    <circle id="Elipse_160" data-name="Elipse 160" cx="3.046" cy="3.046" r="3.046" transform="translate(-137.553 -630.951)" fill="#403f3f"/>
    <circle id="Elipse_161" data-name="Elipse 161" cx="3.415" cy="3.415" r="3.415" transform="translate(-126.828 -631.32)" fill="#403f3f"/>
    <circle id="Elipse_162" data-name="Elipse 162" cx="3.445" cy="3.445" r="3.445" transform="translate(-115.763 -631.35)" fill="#403f3f"/>
    <circle id="Elipse_163" data-name="Elipse 163" cx="3.076" cy="3.076" r="3.076" transform="translate(-104.298 -630.981)" fill="#403f3f"/>
    <circle id="Elipse_164" data-name="Elipse 164" cx="2.615" cy="2.615" r="2.615" transform="translate(-92.742 -630.52)" fill="#403f3f"/>
    <circle id="Elipse_165" data-name="Elipse 165" cx="2.123" cy="2.123" r="2.123" transform="translate(-81.156 -630.028)" fill="#403f3f"/>
    <circle id="Elipse_166" data-name="Elipse 166" cx="1.631" cy="1.631" r="1.631" transform="translate(-69.568 -629.536)" fill="#403f3f"/>
    <circle id="Elipse_167" data-name="Elipse 167" cx="1.107" cy="1.107" r="1.107" transform="translate(-57.949 -629.012)" fill="#403f3f"/>
    <circle id="Elipse_168" data-name="Elipse 168" cx="0.615" cy="0.615" r="0.615" transform="translate(-46.363 -628.52)" fill="#403f3f"/>
    <circle id="Elipse_169" data-name="Elipse 169" cx="0.123" cy="0.123" r="0.123" transform="translate(-34.775 -628.028)" fill="#403f3f"/>
    <circle id="Elipse_170" data-name="Elipse 170" cx="0.215" cy="0.215" r="0.215" transform="translate(-195.745 -617.025)" fill="#403f3f"/>
    <circle id="Elipse_171" data-name="Elipse 171" cx="0.708" cy="0.708" r="0.708" transform="translate(-185.143 -617.518)" fill="#403f3f"/>
    <circle id="Elipse_172" data-name="Elipse 172" cx="1.169" cy="1.169" r="1.169" transform="translate(-174.509 -617.98)" fill="#403f3f"/>
    <circle id="Elipse_173" data-name="Elipse 173" cx="1.662" cy="1.662" r="1.662" transform="translate(-163.907 -618.472)" fill="#403f3f"/>
    <circle id="Elipse_174" data-name="Elipse 174" cx="2.123" cy="2.123" r="2.123" transform="translate(-153.273 -618.933)" fill="#403f3f"/>
    <circle id="Elipse_175" data-name="Elipse 175" cx="2.523" cy="2.523" r="2.523" transform="translate(-142.578 -619.333)" fill="#403f3f"/>
    <circle id="Elipse_176" data-name="Elipse 176" cx="2.831" cy="2.831" r="2.831" transform="translate(-131.791 -619.641)" fill="#403f3f"/>
    <circle id="Elipse_177" data-name="Elipse 177" cx="2.984" cy="2.984" r="2.984" transform="translate(-120.849 -619.795)" fill="#403f3f"/>
    <circle id="Elipse_178" data-name="Elipse 178" cx="2.861" cy="2.861" r="2.861" transform="translate(-109.631 -619.672)" fill="#403f3f"/>
    <circle id="Elipse_179" data-name="Elipse 179" cx="2.554" cy="2.554" r="2.554" transform="translate(-98.229 -619.365)" fill="#403f3f"/>
    <circle id="Elipse_180" data-name="Elipse 180" cx="2.154" cy="2.154" r="2.154" transform="translate(-86.734 -618.964)" fill="#403f3f"/>
    <circle id="Elipse_181" data-name="Elipse 181" cx="1.692" cy="1.692" r="1.692" transform="translate(-75.177 -618.502)" fill="#403f3f"/>
    <circle id="Elipse_182" data-name="Elipse 182" cx="1.231" cy="1.231" r="1.231" transform="translate(-63.621 -618.041)" fill="#403f3f"/>
    <circle id="Elipse_183" data-name="Elipse 183" cx="0.738" cy="0.738" r="0.738" transform="translate(-52.032 -617.549)" fill="#403f3f"/>
    <circle id="Elipse_184" data-name="Elipse 184" cx="0.246" cy="0.246" r="0.246" transform="translate(-40.446 -617.057)" fill="#403f3f"/>
    <circle id="Elipse_185" data-name="Elipse 185" cx="0.277" cy="0.277" r="0.277" transform="translate(-190.259 -605.992)" fill="#403f3f"/>
    <circle id="Elipse_186" data-name="Elipse 186" cx="0.739" cy="0.739" r="0.739" transform="translate(-179.626 -606.454)" fill="#403f3f"/>
    <circle id="Elipse_187" data-name="Elipse 187" cx="1.169" cy="1.169" r="1.169" transform="translate(-168.961 -606.884)" fill="#403f3f"/>
    <circle id="Elipse_188" data-name="Elipse 188" cx="1.6" cy="1.6" r="1.6" transform="translate(-158.298 -607.315)" fill="#403f3f"/>
    <circle id="Elipse_189" data-name="Elipse 189" cx="1.969" cy="1.969" r="1.969" transform="translate(-147.572 -607.684)" fill="#403f3f"/>
    <circle id="Elipse_190" data-name="Elipse 190" cx="2.246" cy="2.246" r="2.246" transform="translate(-136.753 -607.961)" fill="#403f3f"/>
    <circle id="Elipse_191" data-name="Elipse 191" cx="2.431" cy="2.431" r="2.431" transform="translate(-125.844 -608.146)" fill="#403f3f"/>
    <circle id="Elipse_192" data-name="Elipse 192" cx="2.431" cy="2.431" r="2.431" transform="translate(-114.749 -608.146)" fill="#403f3f"/>
    <circle id="Elipse_193" data-name="Elipse 193" cx="2.277" cy="2.277" r="2.277" transform="translate(-103.499 -607.992)" fill="#403f3f"/>
    <circle id="Elipse_194" data-name="Elipse 194" cx="2" cy="2" r="2" transform="translate(-92.127 -607.715)" fill="#403f3f"/>
    <circle id="Elipse_195" data-name="Elipse 195" cx="1.63" cy="1.63" r="1.63" transform="translate(-80.663 -607.345)" fill="#403f3f"/>
    <circle id="Elipse_196" data-name="Elipse 196" cx="1.231" cy="1.231" r="1.231" transform="translate(-69.168 -606.946)" fill="#403f3f"/>
    <circle id="Elipse_197" data-name="Elipse 197" cx="0.769" cy="0.769" r="0.769" transform="translate(-57.611 -606.484)" fill="#403f3f"/>
    <circle id="Elipse_198" data-name="Elipse 198" cx="0.308" cy="0.308" r="0.308" transform="translate(-46.056 -606.023)" fill="#403f3f"/>
    <circle id="Elipse_199" data-name="Elipse 199" cx="0.246" cy="0.246" r="0.246" transform="translate(-184.681 -594.866)" fill="#403f3f"/>
    <circle id="Elipse_200" data-name="Elipse 200" cx="0.677" cy="0.677" r="0.677" transform="translate(-174.017 -595.297)" fill="#403f3f"/>
    <circle id="Elipse_201" data-name="Elipse 201" cx="1.046" cy="1.046" r="1.046" transform="translate(-163.291 -595.666)" fill="#403f3f"/>
    <circle id="Elipse_202" data-name="Elipse 202" cx="1.415" cy="1.415" r="1.415" transform="translate(-152.565 -596.035)" fill="#403f3f"/>
    <circle id="Elipse_203" data-name="Elipse 203" cx="1.692" cy="1.692" r="1.692" transform="translate(-141.747 -596.312)" fill="#403f3f"/>
    <circle id="Elipse_204" data-name="Elipse 204" cx="1.877" cy="1.877" r="1.877" transform="translate(-130.837 -596.497)" fill="#403f3f"/>
    <circle id="Elipse_205" data-name="Elipse 205" cx="1.938" cy="1.938" r="1.938" transform="translate(-119.803 -596.558)" fill="#403f3f"/>
    <circle id="Elipse_206" data-name="Elipse 206" cx="1.877" cy="1.877" r="1.877" transform="translate(-108.647 -596.497)" fill="#403f3f"/>
    <circle id="Elipse_207" data-name="Elipse 207" cx="1.692" cy="1.692" r="1.692" transform="translate(-97.367 -596.312)" fill="#403f3f"/>
    <circle id="Elipse_208" data-name="Elipse 208" cx="1.446" cy="1.446" r="1.446" transform="translate(-86.026 -596.066)" fill="#403f3f"/>
    <circle id="Elipse_209" data-name="Elipse 209" cx="1.077" cy="1.077" r="1.077" transform="translate(-74.562 -595.697)" fill="#403f3f"/>
    <circle id="Elipse_210" data-name="Elipse 210" cx="0.708" cy="0.708" r="0.708" transform="translate(-63.098 -595.329)" fill="#403f3f"/>
    <circle id="Elipse_211" data-name="Elipse 211" cx="0.277" cy="0.277" r="0.277" transform="translate(-51.571 -594.897)" fill="#403f3f"/>
    <circle id="Elipse_212" data-name="Elipse 212" cx="0.154" cy="0.154" r="0.154" transform="translate(-179.041 -583.679)" fill="#403f3f"/>
    <circle id="Elipse_213" data-name="Elipse 213" cx="0.492" cy="0.492" r="0.492" transform="translate(-168.284 -584.017)" fill="#403f3f"/>
    <circle id="Elipse_214" data-name="Elipse 214" cx="0.831" cy="0.831" r="0.831" transform="translate(-157.529 -584.356)" fill="#403f3f"/>
    <circle id="Elipse_215" data-name="Elipse 215" cx="1.107" cy="1.107" r="1.107" transform="translate(-146.71 -584.632)" fill="#403f3f"/>
    <circle id="Elipse_216" data-name="Elipse 216" cx="1.292" cy="1.292" r="1.292" transform="translate(-135.799 -584.817)" fill="#403f3f"/>
    <circle id="Elipse_217" data-name="Elipse 217" cx="1.415" cy="1.415" r="1.415" transform="translate(-124.828 -584.94)" fill="#403f3f"/>
    <circle id="Elipse_218" data-name="Elipse 218" cx="1.415" cy="1.415" r="1.415" transform="translate(-113.733 -584.94)" fill="#403f3f"/>
    <circle id="Elipse_219" data-name="Elipse 219" cx="1.323" cy="1.323" r="1.323" transform="translate(-102.545 -584.848)" fill="#403f3f"/>
    <circle id="Elipse_220" data-name="Elipse 220" cx="1.138" cy="1.138" r="1.138" transform="translate(-91.265 -584.663)" fill="#403f3f"/>
    <circle id="Elipse_221" data-name="Elipse 221" cx="0.861" cy="0.861" r="0.861" transform="translate(-79.894 -584.386)" fill="#403f3f"/>
    <circle id="Elipse_222" data-name="Elipse 222" cx="0.523" cy="0.523" r="0.523" transform="translate(-68.46 -584.048)" fill="#403f3f"/>
    <circle id="Elipse_223" data-name="Elipse 223" cx="0.185" cy="0.185" r="0.185" transform="translate(-57.027 -583.71)" fill="#403f3f"/>
    <circle id="Elipse_224" data-name="Elipse 224" cx="0.031" cy="0.031" r="0.031" transform="translate(-173.371 -572.461)" fill="#403f3f"/>
    <circle id="Elipse_225" data-name="Elipse 225" cx="0.277" cy="0.277" r="0.277" transform="translate(-162.522 -572.707)" fill="#403f3f"/>
    <circle id="Elipse_226" data-name="Elipse 226" cx="0.523" cy="0.523" r="0.523" transform="translate(-151.673 -572.953)" fill="#403f3f"/>
    <circle id="Elipse_227" data-name="Elipse 227" cx="0.739" cy="0.739" r="0.739" transform="translate(-140.794 -573.169)" fill="#403f3f"/>
    <circle id="Elipse_228" data-name="Elipse 228" cx="0.862" cy="0.862" r="0.862" transform="translate(-129.822 -573.292)" fill="#403f3f"/>
    <circle id="Elipse_229" data-name="Elipse 229" cx="0.923" cy="0.923" r="0.923" transform="translate(-118.788 -573.353)" fill="#403f3f"/>
    <circle id="Elipse_230" data-name="Elipse 230" cx="0.862" cy="0.862" r="0.862" transform="translate(-107.632 -573.292)" fill="#403f3f"/>
    <circle id="Elipse_231" data-name="Elipse 231" cx="0.739" cy="0.739" r="0.739" transform="translate(-96.414 -573.169)" fill="#403f3f"/>
    <circle id="Elipse_232" data-name="Elipse 232" cx="0.554" cy="0.554" r="0.554" transform="translate(-85.134 -572.984)" fill="#403f3f"/>
    <circle id="Elipse_233" data-name="Elipse 233" cx="0.277" cy="0.277" r="0.277" transform="translate(-73.762 -572.707)" fill="#403f3f"/>
    <circle id="Elipse_234" data-name="Elipse 234" cx="0.061" cy="0.061" r="0.061" transform="translate(-62.451 -572.491)" fill="#403f3f"/>
    <circle id="Elipse_235" data-name="Elipse 235" cx="0.031" cy="0.031" r="0.031" transform="translate(-156.729 -561.366)" fill="#403f3f"/>
    <circle id="Elipse_236" data-name="Elipse 236" cx="0.154" cy="0.154" r="0.154" transform="translate(-145.757 -561.489)" fill="#403f3f"/>
    <circle id="Elipse_237" data-name="Elipse 237" cx="0.308" cy="0.308" r="0.308" transform="translate(-134.815 -561.643)" fill="#403f3f"/>
    <circle id="Elipse_238" data-name="Elipse 238" cx="0.369" cy="0.369" r="0.369" transform="translate(-123.782 -561.704)" fill="#403f3f"/>
    <circle id="Elipse_239" data-name="Elipse 239" cx="0.369" cy="0.369" r="0.369" transform="translate(-112.687 -561.704)" fill="#403f3f"/>
    <circle id="Elipse_240" data-name="Elipse 240" cx="0.308" cy="0.308" r="0.308" transform="translate(-101.53 -561.643)" fill="#403f3f"/>
    <circle id="Elipse_241" data-name="Elipse 241" cx="0.185" cy="0.185" r="0.185" transform="translate(-90.312 -561.52)" fill="#403f3f"/>
    <circle id="Elipse_242" data-name="Elipse 242" cx="0.062" cy="0.062" r="0.062" transform="translate(-79.095 -561.397)" fill="#403f3f"/>
    <circle id="Elipse_243" data-name="Elipse 243" cx="0.031" cy="0.031" r="0.031" transform="translate(-117.896 -550.271)" fill="#403f3f"/>
  </g>
</svg>
