<svg xmlns="http://www.w3.org/2000/svg" width="42.756" height="45.469" viewBox="0 0 42.756 45.469">
  <g id="Grupo_1273" data-name="Grupo 1273" transform="translate(11860 -6225.35)">
    <g id="invite" transform="translate(-12015.458 6007.572)">
      <path id="Caminho_580" data-name="Caminho 580" d="M251.11,305.046a5.382,5.382,0,1,0-4.08,0,9.443,9.443,0,0,0-7.388,9.2h1.18a8.248,8.248,0,0,1,16.5,0h1.18A9.443,9.443,0,0,0,251.11,305.046Zm-6.237-4.98a4.2,4.2,0,1,1,4.2,4.2A4.2,4.2,0,0,1,244.873,300.067Z" transform="translate(-72.234 -68.829)" fill="currentColor"/>
      <path id="Caminho_581" data-name="Caminho 581" d="M176.847,283.221H157.756a2.016,2.016,0,0,1-2.3-2.245q.015-12.42.059-24.84a3.145,3.145,0,0,1,1.178-2.408c.691-.611,1.438-1.16,2.1-1.795a1.5,1.5,0,0,0,.437-.942c.043-1.678.019-3.359.021-5.038a3.559,3.559,0,0,1,3.862-3.895c2.342,0,4.684.015,7.026-.017a1.779,1.779,0,0,0,1.006-.371c1.241-.985,2.444-2.017,3.662-3.03a2.724,2.724,0,0,1,3.955-.022c1.244,1.019,2.465,2.067,3.727,3.064a1.782,1.782,0,0,0,1.009.36c2.413.03,4.826.012,7.239.018a3.532,3.532,0,0,1,3.681,3.657c.018,1.7.022,3.407-.007,5.11a1.342,1.342,0,0,0,.578,1.258c.687.5,1.327,1.066,1.966,1.629a3.393,3.393,0,0,1,1.205,2.683c0,8.114-.006,16.229.047,24.343a2.232,2.232,0,0,1-2.489,2.507C189.433,283.184,183.14,283.221,176.847,283.221Zm-17.591-29.9c-.672.562-1.227.989-1.738,1.462-.727.674-.707.8.054,1.4q8.977,7.058,17.952,14.118c1.12.881,1.505.885,2.609.016q7.355-5.793,14.712-11.582c1.3-1.021,2.595-2.039,4.061-3.191l-2.477-2.274c0,.961,0,1.669,0,2.378,0,.5-.03,1.021-.679,1.029s-.688-.52-.691-1.017c0-.165,0-.331,0-.5,0-3.122-.008-6.243,0-9.365a2.336,2.336,0,0,0-.666-1.8,2.608,2.608,0,0,0-1.967-.628q-13.516,0-27.031,0c-2.069,0-2.8.743-2.8,2.833q0,4.718,0,9.436c0,.483.017,1.032-.658,1.038-.659.006-.688-.511-.683-1.014C159.262,254.945,159.256,254.223,159.256,253.322ZM172,269.215l-14.215,12.638H195.7a3.288,3.288,0,0,0-.273-.335q-6.7-5.973-13.388-11.949a.532.532,0,0,0-.838,0c-.8.663-1.622,1.3-2.439,1.946a2.764,2.764,0,0,1-3.86,0C173.96,270.766,173.018,270.018,172,269.215Zm10.707-.83,14.09,12.56V257.325Zm-25.843,12.5,14.078-12.512-14.078-11.051Zm16-38.892h7.881c-1.126-.929-2.109-1.775-3.132-2.571a1.261,1.261,0,0,0-1.643.015C174.961,240.236,173.976,241.076,172.871,241.99Z" transform="translate(0 -20)" fill="currentColor" fill-rule="evenodd"/>
    </g>
  </g>
</svg>
