<svg xmlns="http://www.w3.org/2000/svg" xmlns:xlink="http://www.w3.org/1999/xlink" width="118.68" height="103.1" viewBox="0 0 118.68 103.1">
  <defs>
    <linearGradient id="linear-gradient" x1="0.5" x2="0.304" y2="0.244" gradientUnits="objectBoundingBox">
      <stop offset="0" stop-color="#f90093"/>
      <stop offset="1" stop-color="#555"/>
    </linearGradient>
  </defs>
  <g id="Grupo_1270" data-name="Grupo 1270" transform="translate(11389 -5970.647)">
    <g id="Grupo_1150" data-name="Grupo 1150" transform="translate(-11636 5354.498)">
      <g id="Grupo_1141" data-name="Grupo 1141" transform="translate(267.537 37.084)">
        <path id="União_1" data-name="União 1" d="M12566.661-10613.336h-8.4a14.262,14.262,0,0,1-8.8,3,13.755,13.755,0,0,1-14-13.5,13.671,13.671,0,0,1,12-13.364v-.137h31v.311a13.629,13.629,0,0,1,11,13.19,13.757,13.757,0,0,1-14,13.5A14.263,14.263,0,0,1,12566.661-10613.336Z" transform="translate(-12524 11259)" fill="#222"/>
        <path id="Caminho_569" data-name="Caminho 569" d="M-178.809-460.937H-279.3a9.1,9.1,0,0,0-9.092,9.091v66.918a9.1,9.1,0,0,0,9.092,9.091h38.253v14h-26.273a2,2,0,0,0-2,2,2,2,0,0,0,2,2h76.536a2,2,0,0,0,2-2,2,2,0,0,0-2-2h-26.273v-14h38.252a9.1,9.1,0,0,0,9.092-9.091v-66.918A9.1,9.1,0,0,0-178.809-460.937Zm-42.252,99.1H-237.05v-14h15.989Zm47.344-23.092a5.1,5.1,0,0,1-5.092,5.091H-279.3a5.1,5.1,0,0,1-5.092-5.091v-66.918a5.1,5.1,0,0,1,5.092-5.091h100.495a5.1,5.1,0,0,1,5.092,5.091Z" transform="translate(267.859 1040.002)" fill="url(#linear-gradient)"/>
        <g id="Grupo_1129" data-name="Grupo 1129" transform="translate(-406.602 1037.17)">
          <path id="Caminho_562" data-name="Caminho 562" d="M429.9-434.843v-.768c-1.032,0-2.049-.033-3.062.01-.889.038-1.245-.337-1.214-1.214.036-.995.038-1.992,0-2.987-.037-.9.385-1.252,1.235-1.208.123.007.248,0,.372,0h35.753c1.477,0,1.615.135,1.62,1.583,0,.934,0,1.867-.007,2.8a.9.9,0,0,1-1.036,1.018c-.871-.021-1.745-.041-2.612.021-.23.017-.44.333-.659.512.211.188.425.542.634.538a6.087,6.087,0,0,1,3.87,1.11,1.831,1.831,0,0,0,.989.146c2.613.011,5.228,0,7.841.009,1.1,0,1.271.157,1.266,1.229-.011,2.364.12,4.745-.11,7.088a10.7,10.7,0,0,1-7.378,9.531,1.088,1.088,0,0,0-.855,1.267c.053,1.4.032,2.8.011,4.2-.014,1-.631,1.338-1.469.789-1.4-.923-2.8-1.859-4.17-2.828a.974.974,0,0,0-1.323.006q-1.973,1.41-4.022,2.71a1.45,1.45,0,0,1-1.163.239c-.271-.149-.4-.714-.434-1.109-.062-.892-.02-1.79-.02-2.914-1.38.829-2.6,1.548-3.793,2.294a.65.65,0,0,0-.189.484c-.017,1.145-.01,2.289-.01,3.572h3.784c1.764,0,1.8.035,1.8,1.758v2.008c.674,0,1.281-.012,1.889,0a2.694,2.694,0,0,1,2.8,2.835c.011,1.676,0,3.353,0,5.133.387.021.714.042,1.041.056a3.219,3.219,0,0,1,3.233,3.281c.037,2.134.037,2.134-2.077,2.134H427.15c-1.5,0-1.647-.15-1.644-1.656,0-2.448,1.2-3.691,3.616-3.764.181-.005.362-.028.684-.056,0-1.287-.005-2.55,0-3.814a11.84,11.84,0,0,1,.057-1.676,2.727,2.727,0,0,1,2.816-2.453c.586-.015,1.174,0,1.881,0v-1.645c0-2.091,0-2.091,2.136-2.091h3.369c0-1.283.015-2.484-.018-3.684a.76.76,0,0,0-.363-.484c-1.1-.687-2.224-1.349-3.552-2.147,0,1.065.047,1.947-.019,2.819-.031.423-.157,1.023-.446,1.19-.272.159-.876-.045-1.226-.264-1.316-.826-2.611-1.689-3.866-2.606a1.1,1.1,0,0,0-1.544.021c-1.251.921-2.553,1.777-3.865,2.61-.328.208-.922.428-1.138.278a1.647,1.647,0,0,1-.486-1.172c-.057-1.4-.038-2.8-.015-4.2a.886.886,0,0,0-.7-1.009,11.051,11.051,0,0,1-7.617-10.816q0-2.94,0-5.88c0-1.075.174-1.259,1.246-1.264,2.613-.011,5.228.022,7.841-.025a7.022,7.022,0,0,0,1.648-.446C427.21-434.094,428.473-434.444,429.9-434.843Zm1.666-.731a5.244,5.244,0,0,0-.064.543c0,4.107-.078,8.216.028,12.321a8.977,8.977,0,0,0,4.377,7.6c1.515.977,3.063,1.911,4.651,2.762a2.034,2.034,0,0,1,1.281,2.2c-.1,1.125-.021,2.266-.021,3.376h6.535c0-1.323.03-2.566-.01-3.806a1.507,1.507,0,0,1,.846-1.509c1.693-.982,3.387-1.972,5.03-3.036a9.351,9.351,0,0,0,4.455-8.329q0-5.555,0-11.108c0-.33-.032-.66-.053-1.02Zm27.109,40.582c0-1.594.005-3.14,0-4.685-.005-1.367-.256-1.614-1.645-1.614q-11.523,0-23.043,0a4.3,4.3,0,0,0-1.389.041c-.4.146-1,.541-1.021.854-.1,1.786-.048,3.58-.048,5.4Zm-24.071-16.17c0-1.007.032-1.776-.021-2.538a1.112,1.112,0,0,0-.414-.657,11.186,11.186,0,0,1-4.291-9.3c.05-2.707.012-5.416.007-8.123,0-.331-.031-.662-.047-.972-3.006-.44-4.7.977-4.7,3.857q-.009,8.31,0,16.621c0,.3.031.6.057,1.046.365-.214.628-.349.873-.514.98-.661,1.981-1.3,2.923-2.007a1.3,1.3,0,0,1,1.762,0C431.944-412.9,433.175-412.12,434.608-411.162Zm20.962.042,3.331-2.25c1.417-.959,1.417-.96,2.824-.005,1.038.7,2.075,1.411,3.313,2.253v-3.218c0-4.916.016-9.831-.007-14.747a3.5,3.5,0,0,0-4.742-3.584v.981c0,2.706-.023,5.414,0,8.12a11.289,11.289,0,0,1-4.249,9.234,1.359,1.359,0,0,0-.452.831C455.526-412.8,455.57-412.081,455.57-411.12Zm7.231,19.862c.236-1.466-.368-2.12-1.94-2.12q-15.726,0-31.454,0c-.188,0-.375-.007-.561.01-1.167.109-1.689.851-1.454,2.111Zm.06-48.029H427.4c-.44,1.9-.317,2.067,1.442,2.067h34.017Zm-45.809,7.67a63.891,63.891,0,0,0,.056,7.413,8.805,8.805,0,0,0,5.358,7.02,6.762,6.762,0,0,0,.934.3c.314-1.8.269-1.885-1.034-2.738a6.807,6.807,0,0,1-3.244-4.79c-.188-1.313-.118-2.661-.18-3.993-.037-.788.319-1.15,1.1-1.139.839.012,1.68-.025,2.518.01.653.028,1.084-.085,1.075-.88a5.481,5.481,0,0,1,.271-1.207Zm49.651,1.992c.531,0,1.024,0,1.518,0,3.278-.011,2.993-.224,2.991,2.94v.28a7.522,7.522,0,0,1-4.073,7.128,1.081,1.081,0,0,0-.517.654,12.393,12.393,0,0,0-.024,1.717,5.708,5.708,0,0,0,.743-.182,8.8,8.8,0,0,0,5.713-6.944,48.364,48.364,0,0,0,.206-6.416c.009-.39,0-.78,0-1.183h-7.022C466.394-430.959,466.532-430.362,466.7-429.625Zm-12.781,24.672H436.283v1.924h17.639Zm-33.241-22.864c-.414,3.109.4,5.7,2.842,6.735v-4.4c0-2.644,0-2.645-2.69-2.41C420.806-427.895,420.78-427.87,420.681-427.817Zm48.8-.043h-2.8v6.816C468.855-422.074,469.828-424.457,469.486-427.86Z" fill="#5d5e5e" fill-rule="evenodd"/>
          <path id="Caminho_563" data-name="Caminho 563" d="M439.343-417.526c.25-1.469.459-2.947.773-4.4a1.208,1.208,0,0,0-.418-1.3c-1-.935-1.984-1.885-2.926-2.875-.244-.257-.507-.776-.4-1.017a1.463,1.463,0,0,1,.981-.657c1.312-.246,2.649-.349,3.957-.614a1.818,1.818,0,0,0,1.1-.79c.668-1.188,1.2-2.455,1.844-3.658.167-.31.559-.685.852-.689a1.284,1.284,0,0,1,.863.667c.634,1.175,1.215,2.38,1.764,3.6a1.393,1.393,0,0,0,1.253.918c1.3.138,2.591.318,3.871.559.374.071.892.341.991.638a1.406,1.406,0,0,1-.4,1.108,37.633,37.633,0,0,1-2.736,2.667,1.515,1.515,0,0,0-.511,1.642c.248,1.185.476,2.377.623,3.577a1.826,1.826,0,0,1-.276,1.33c-.174.184-.866.019-1.244-.162-1.179-.559-2.3-1.245-3.482-1.781a1.815,1.815,0,0,0-1.346,0c-1.3.6-2.53,1.325-3.807,1.967A.832.832,0,0,1,439.343-417.526Zm5.751-13.354c-.6,1.182-1.05,2.2-1.632,3.144a2.1,2.1,0,0,1-1.166.857c-1.065.259-2.172.362-3.352.541.853.882,1.582,1.682,2.365,2.427a1.464,1.464,0,0,1,.49,1.492c-.215,1.073-.352,2.162-.551,3.435,1.161-.619,2.088-1.2,3.082-1.606a2.223,2.223,0,0,1,1.538.005c.994.409,1.919.984,3.065,1.594-.2-1.255-.332-2.321-.548-3.369a1.517,1.517,0,0,1,.511-1.574c.785-.729,1.512-1.522,2.378-2.4-1.21-.182-2.292-.272-3.33-.535a2.273,2.273,0,0,1-1.246-.9C446.121-428.69,445.691-429.7,445.094-430.88Z" fill="#5d5e5e" fill-rule="evenodd"/>
        </g>
      </g>
    </g>
  </g>
</svg>
