<svg xmlns="http://www.w3.org/2000/svg" width="50.298" height="43.695" viewBox="0 0 50.298 43.695">
  <g id="Grupo_1272" data-name="Grupo 1272" transform="translate(11952 -6225.35)">
    <g id="Grupo_1269" data-name="Grupo 1269" transform="translate(-11931.463 5646.285)">
      <path id="Caminho_569" data-name="Caminho 569" d="M-241.952-460.937h-42.591a3.857,3.857,0,0,0-3.853,3.853v28.36a3.858,3.858,0,0,0,3.853,3.853h16.212v5.933h-11.135a.848.848,0,0,0-.848.848.848.848,0,0,0,.848.848h32.437a.848.848,0,0,0,.848-.848.848.848,0,0,0-.848-.848h-11.135v-5.933h16.212a3.858,3.858,0,0,0,3.853-3.853v-28.36A3.857,3.857,0,0,0-241.952-460.937Zm-17.907,42h-6.776v-5.933h6.776Zm20.065-9.787a2.16,2.16,0,0,1-2.158,2.158h-42.591a2.16,2.16,0,0,1-2.158-2.158v-28.36a2.16,2.16,0,0,1,2.158-2.158h42.591a2.16,2.16,0,0,1,2.158,2.158Z" transform="translate(267.859 1040.002)" fill="#aaa"/>
      <g id="Grupo_1129" data-name="Grupo 1129" transform="translate(-8.185 586.308)">
        <path id="Caminho_562" data-name="Caminho 562" d="M421.437-438.4v-.326c-.437,0-.868-.014-1.3,0-.377.016-.528-.143-.514-.515.015-.422.016-.844,0-1.266-.016-.381.163-.531.523-.512.052,0,.105,0,.158,0h15.152c.626,0,.684.057.687.671,0,.4,0,.791,0,1.187a.38.38,0,0,1-.439.431c-.369-.009-.74-.017-1.107.009-.1.007-.187.141-.279.217.089.08.18.23.269.228a2.58,2.58,0,0,1,1.64.47.776.776,0,0,0,.419.062c1.107,0,2.216,0,3.323,0,.466,0,.539.067.537.521,0,1,.051,2.011-.047,3a4.533,4.533,0,0,1-3.127,4.039.461.461,0,0,0-.362.537c.022.593.014,1.187,0,1.78-.006.426-.267.567-.622.334-.6-.391-1.186-.788-1.767-1.2a.413.413,0,0,0-.561,0q-.836.6-1.7,1.149a.614.614,0,0,1-.493.1c-.115-.063-.172-.3-.184-.47-.026-.378-.008-.759-.008-1.235-.585.351-1.1.656-1.608.972a.275.275,0,0,0-.08.205c-.007.485,0,.97,0,1.514h1.6c.748,0,.763.015.763.745v.851c.286,0,.543-.005.8,0a1.142,1.142,0,0,1,1.185,1.2c0,.71,0,1.421,0,2.175.164.009.3.018.441.024a1.364,1.364,0,0,1,1.37,1.391c.016.9.016.9-.88.9H420.27c-.636,0-.7-.064-.7-.7a1.406,1.406,0,0,1,1.533-1.6c.077,0,.153-.012.29-.024,0-.545,0-1.081,0-1.616a5.01,5.01,0,0,1,.024-.71,1.156,1.156,0,0,1,1.193-1.04c.248-.006.5,0,.8,0v-.7c0-.886,0-.886.905-.886h1.428c0-.544.006-1.053-.008-1.561a.322.322,0,0,0-.154-.205c-.468-.291-.943-.572-1.505-.91,0,.451.02.825-.008,1.195-.013.179-.067.434-.189.5s-.371-.019-.52-.112c-.558-.35-1.107-.716-1.638-1.1a.467.467,0,0,0-.654.009c-.53.39-1.082.753-1.638,1.106-.139.088-.391.181-.482.118a.7.7,0,0,1-.206-.5c-.024-.592-.016-1.187-.006-1.78a.376.376,0,0,0-.3-.428,4.683,4.683,0,0,1-3.228-4.584q0-1.246,0-2.492c0-.456.074-.534.528-.536,1.107,0,2.216.009,3.323-.011a2.973,2.973,0,0,0,.7-.189Zm.706-.31a2.209,2.209,0,0,0-.027.23c0,1.741-.033,3.482.012,5.222a3.8,3.8,0,0,0,1.855,3.223c.642.414,1.3.81,1.971,1.171a.862.862,0,0,1,.543.933c-.042.477-.009.96-.009,1.431h2.77c0-.561.013-1.087,0-1.613a.638.638,0,0,1,.359-.639c.718-.416,1.435-.836,2.132-1.287a3.963,3.963,0,0,0,1.888-3.53q0-2.354,0-4.708c0-.14-.014-.28-.022-.432Zm11.489,17.2c0-.676,0-1.331,0-1.986,0-.579-.109-.684-.7-.684h-9.766a1.822,1.822,0,0,0-.589.017c-.172.062-.425.229-.433.362-.041.757-.02,1.517-.02,2.291Zm-10.2-6.853c0-.427.014-.753-.009-1.076a.471.471,0,0,0-.175-.278,4.741,4.741,0,0,1-1.819-3.943c.021-1.147.005-2.3,0-3.443,0-.14-.013-.281-.02-.412-1.274-.186-1.99.414-1.991,1.635q0,3.522,0,7.044c0,.127.013.253.024.443.155-.091.266-.148.37-.218.415-.28.84-.549,1.239-.851a.55.55,0,0,1,.747,0C422.3-429.1,422.824-428.768,423.431-428.362Zm8.884.018,1.412-.954c.6-.406.6-.407,1.2,0l1.4.955v-1.364c0-2.083.007-4.166,0-6.25a1.485,1.485,0,0,0-2.01-1.519v.416c0,1.147-.01,2.294,0,3.441a4.784,4.784,0,0,1-1.8,3.913.576.576,0,0,0-.192.352C432.3-429.056,432.315-428.752,432.315-428.344Zm3.065,8.418c.1-.621-.156-.9-.822-.9q-6.665,0-13.33,0c-.08,0-.159,0-.238,0-.495.046-.716.361-.616.895Zm.025-20.355H420.377c-.187.8-.134.876.611.876H435.4Zm-19.414,3.251a27.085,27.085,0,0,0,.024,3.142,3.732,3.732,0,0,0,2.271,2.975,2.867,2.867,0,0,0,.4.129c.133-.765.114-.8-.438-1.16a2.885,2.885,0,0,1-1.375-2.03c-.08-.556-.05-1.128-.076-1.692-.016-.334.135-.487.468-.483.355.005.712-.011,1.067,0,.277.012.459-.036.456-.373a2.325,2.325,0,0,1,.115-.512Zm21.043.844h.643c1.389,0,1.268-.1,1.268,1.246v.119a3.188,3.188,0,0,1-1.726,3.021.459.459,0,0,0-.219.277,5.258,5.258,0,0,0-.01.728,2.432,2.432,0,0,0,.315-.077,3.73,3.73,0,0,0,2.421-2.943,20.519,20.519,0,0,0,.087-2.719c0-.165,0-.331,0-.5h-2.976Zm-5.417,10.456h-7.476v.815h7.476Zm-14.088-9.69c-.175,1.318.17,2.414,1.2,2.854v-1.867c0-1.121,0-1.121-1.14-1.021C417.581-435.454,417.57-435.443,417.528-435.421Zm20.684-.018h-1.188v2.889C437.945-432.987,438.357-434,438.212-435.439Z" transform="translate(-415.21 441.014)" fill="#aaa" fill-rule="evenodd"/>
        <path id="Caminho_563" data-name="Caminho 563" d="M437.617-426.746c.106-.623.195-1.249.328-1.866a.512.512,0,0,0-.177-.551c-.423-.4-.841-.8-1.24-1.218-.1-.109-.215-.329-.169-.431a.62.62,0,0,1,.416-.278c.556-.1,1.123-.148,1.677-.26a.771.771,0,0,0,.465-.335c.283-.5.508-1.04.782-1.55.071-.131.237-.29.361-.292a.544.544,0,0,1,.366.283c.269.5.515,1.009.748,1.524a.59.59,0,0,0,.531.389c.55.058,1.1.135,1.641.237.159.03.378.145.42.27a.6.6,0,0,1-.172.47,15.952,15.952,0,0,1-1.16,1.13.642.642,0,0,0-.217.7c.105.5.2,1.007.264,1.516a.774.774,0,0,1-.117.564c-.074.078-.367.008-.527-.069-.5-.237-.973-.528-1.476-.755a.769.769,0,0,0-.57,0c-.55.253-1.072.561-1.613.834A.353.353,0,0,1,437.617-426.746Zm2.437-5.66c-.255.5-.445.934-.692,1.332a.888.888,0,0,1-.494.363c-.451.11-.921.153-1.421.229.361.374.67.713,1,1.029a.62.62,0,0,1,.208.632c-.091.455-.149.916-.234,1.456.492-.262.885-.507,1.306-.681a.941.941,0,0,1,.652,0c.421.173.813.417,1.3.676-.084-.532-.141-.984-.232-1.428a.643.643,0,0,1,.217-.667c.333-.309.641-.645,1.008-1.018-.513-.077-.971-.115-1.411-.227a.963.963,0,0,1-.528-.383C440.49-431.477,440.307-431.9,440.054-432.405Z" transform="translate(-427.389 436.7)" fill="#aaa" fill-rule="evenodd"/>
      </g>
    </g>
  </g>
</svg>
