<svg xmlns="http://www.w3.org/2000/svg" width="43.74" height="43.696" viewBox="0 0 43.74 43.696">
  <g id="Grupo_1276" data-name="Grupo 1276" transform="translate(11642.718 -6228.865)">
    <g id="invite" transform="translate(-11798.176 6006.728)">
      <g id="Grupo_1167" data-name="Grupo 1167" transform="translate(-95.405 -390.479)">
        <path id="Caminho_582" data-name="Caminho 582" d="M13.5,0A13.5,13.5,0,1,1,0,13.5,13.5,13.5,0,0,1,13.5,0Z" transform="translate(259.734 622.767)" fill="#391f2e"/>
        <g id="Grupo_1128" data-name="Grupo 1128" transform="translate(250.863 612.617)">
          <path id="Caminho_553" data-name="Caminho 553" d="M161.255-435.974a19.114,19.114,0,0,1,1.473-6.622c3.116-7.031,8.467-11.228,16.133-12.072a19.439,19.439,0,0,1,20.754,13.356q.1.31.2.623a.706.706,0,0,1-.454.995c-.48.152-.771-.111-.943-.56-.389-1.018-.72-2.067-1.207-3.038a18.117,18.117,0,0,0-18.242-9.953,18.174,18.174,0,0,0-15.855,14.337c-.073.349-.124.7-.193,1.1l1.519-.339a16.631,16.631,0,0,1,6.935-10.76,16.308,16.308,0,0,1,10.3-2.991,16.8,16.8,0,0,1,15.764,13.748c1.716.355,2.146.735,2.5,2.272.222,0,.46-.008.7,0a2.168,2.168,0,0,1,2.154,2.2c.019,1.846.008,3.692,0,5.538a2.215,2.215,0,0,1-2.414,2.461c-.14,0-.281.018-.5.033,0,1.723.011,3.417,0,5.11a7.759,7.759,0,0,1-2.059,5.306,7.8,7.8,0,0,1-5.929,2.663c-2.283.02-4.567-.01-6.849.023a1.177,1.177,0,0,0-.793.416,2.343,2.343,0,0,1-1.913,1.021c-.947,0-1.895.015-2.842,0a2.182,2.182,0,0,1-2.2-2.158,2.184,2.184,0,0,1,2.225-2.206c.923-.015,1.846,0,2.769,0a2.336,2.336,0,0,1,1.973,1.046,1.075,1.075,0,0,0,.733.4q3.5.044,6.995.011a6.562,6.562,0,0,0,6.433-6.426c.015-1.016,0-2.032,0-3.042h-3.024c-1.211,0-1.3-.086-1.385-1.474-.175.263-.286.417-.384.579a14.337,14.337,0,0,1-13.352,7.436,14.526,14.526,0,0,1-13.786-12.7c-.085-.794-.116-1.6-.127-2.4-.019-1.48-.006-2.961-.006-4.537a18.014,18.014,0,0,0-2.321.037,1.009,1.009,0,0,0-.567.777c-.04,3.328-.028,6.655-.024,9.983a.766.766,0,0,0,.872.841,5.838,5.838,0,0,1,1.377.04.957.957,0,0,1,.61.655c.012.238-.326.691-.535.706a7.705,7.705,0,0,1-2.3-.1,2.113,2.113,0,0,1-1.521-2.032c-.289,0-.53.011-.77,0a2.158,2.158,0,0,1-2.1-2.11q-.043-2.987,0-5.975C159.093-434.889,159.759-435.536,161.255-435.974Zm34.615-2.161a15.142,15.142,0,0,0-15.738-12.291,14.992,14.992,0,0,0-14.111,12.291l1.81.233c.038-.069.122-.213.2-.361a14.526,14.526,0,0,1,16.937-7.239,13.54,13.54,0,0,1,4.944,2.553,1.253,1.253,0,0,1,.349.913c-.006.166-.4.436-.625.447a1.381,1.381,0,0,1-.761-.349,12.956,12.956,0,0,0-9.663-2.561A13.145,13.145,0,0,0,168-429.214,13.141,13.141,0,0,0,185.459-419.2a13.116,13.116,0,0,0,5.973-20.148c-.338-.451-.8-.949-.14-1.425s1.007.126,1.317.587c.526.78,1.023,1.579,1.47,2.274Zm-.328,13.186c.738,0,1.414.012,2.09,0a.72.72,0,0,0,.779-.777c.008-3.376.02-6.752-.029-10.127,0-.252-.438-.669-.718-.711a14.262,14.262,0,0,0-2.124-.034C195.543-432.7,195.543-428.877,195.543-424.949Zm-33.589-9.418c-1.228-.121-1.428.057-1.429,1.221q0,2.4,0,4.791c0,1.125.278,1.347,1.429,1.127Zm37.972-.006v7.2c1.225.09,1.409-.078,1.409-1.252q0-2.359,0-4.718C201.334-434.307,201.138-434.483,199.926-434.373Zm-19.032,21.812a5.9,5.9,0,0,0,1.448-.031c.3-.077.513-.453.766-.695-.253-.242-.488-.667-.761-.692a15.5,15.5,0,0,0-2.833,0c-.272.025-.507.451-.76.693.253.242.469.612.766.695A5.248,5.248,0,0,0,180.893-412.561Z" transform="translate(-159.058 454.792)" fill="currentColor" fill-rule="evenodd"/>
          <path id="Caminho_554" data-name="Caminho 554" d="M203.247-414.293a5.646,5.646,0,0,1,4.8,5.128,5.859,5.859,0,0,1-3.646,5.972,5.835,5.835,0,0,1-6.8-1.868,1.4,1.4,0,0,0-2.4-.022,5.816,5.816,0,0,1-6.921,1.845A5.862,5.862,0,0,1,184.8-409.5a5.887,5.887,0,0,1,5.375-4.929c.531-.037,1.044.042,1.1.661.061.634-.417.758-.964.8a4.406,4.406,0,0,0-4.089,3.8,4.426,4.426,0,0,0,2.974,4.727,4.338,4.338,0,0,0,5.176-2.05,1.124,1.124,0,0,1,1.169-.667,3.582,3.582,0,0,0,.655,0,2.414,2.414,0,0,1,2.642,1.219,4.122,4.122,0,0,0,5.2,1.316,4.373,4.373,0,0,0,2.506-4.719,4.342,4.342,0,0,0-4.23-3.63c-2.719-.039-5.44-.012-8.16-.013-.194,0-.431.069-.574-.017-.294-.178-.705-.4-.767-.674-.106-.473.285-.75.758-.758,1.165-.019,2.332-.008,3.5-.01C197.407-414.445,201.548-414.49,203.247-414.293Z" transform="translate(-174.538 430.452)" fill="currentColor" fill-rule="evenodd"/>
          <path id="Caminho_555" data-name="Caminho 555" d="M202.825-379.94c-.081,1.263.091,1.457,1.2,1.457,1.675,0,3.35.007,5.025,0,.548,0,1.019.127,1,.765-.019.589-.478.7-.993.7-1.821-.01-3.641.006-5.462-.008a2.164,2.164,0,0,1-2.262-2.238c-.021-2.168-.18-2.153,2.053-2.134,2.355.02,4.709.009,7.064,0,.529,0,1.043.067,1.055.707.014.693-.523.759-1.079.757-2.257-.008-4.515,0-6.773,0Z" transform="translate(-184.558 410.514)" fill="currentColor" fill-rule="evenodd"/>
          <path id="Caminho_556" data-name="Caminho 556" d="M196.37-404.354c.714.2,1.711-.26,1.756.754.052,1.192-1.075.584-1.756.876a2.5,2.5,0,0,1-.025.932c-.126.3-.414.691-.691.748-.465.1-.734-.27-.738-.763,0-.309,0-.619,0-1.02-.374,0-.681,0-.987,0-.491.008-.81-.219-.816-.716s.336-.72.808-.738c.307-.012.616,0,1,0,0-.391,0-.7,0-1.008a.681.681,0,0,1,.685-.774c.5-.019.744.293.766.774C196.382-404.965,196.37-404.638,196.37-404.354Z" transform="translate(-179.605 425.393)" fill="currentColor" fill-rule="evenodd"/>
          <path id="Caminho_557" data-name="Caminho 557" d="M227.841-407.868c.32.512.657.816.638,1.1-.016.236-.42.584-.7.633a.576.576,0,0,1-.671-.723C227.171-407.152,227.481-407.391,227.841-407.868Z" transform="translate(-200.109 426.48)" fill="currentColor" fill-rule="evenodd"/>
          <path id="Caminho_558" data-name="Caminho 558" d="M228.684-396.858c-.3.167-.614.486-.891.454a.918.918,0,0,1-.6-.7.931.931,0,0,1,.666-.647c.28,0,.562.354.842.554Q228.693-397.025,228.684-396.858Z" transform="translate(-200.167 420.373)" fill="currentColor" fill-rule="evenodd"/>
          <path id="Caminho_559" data-name="Caminho 559" d="M232.564-402.689c.2.251.577.528.546.748-.039.284-.4.524-.63.784-.245-.216-.66-.41-.69-.653-.034-.267.284-.58.449-.872Z" transform="translate(-202.939 423.356)" fill="currentColor" fill-rule="evenodd"/>
          <path id="Caminho_560" data-name="Caminho 560" d="M223.378-402.689c.2.251.577.528.546.748-.039.284-.4.524-.63.784-.245-.216-.659-.41-.69-.653-.034-.267.284-.58.449-.872Z" transform="translate(-197.397 423.356)" fill="currentColor" fill-rule="evenodd"/>
        </g>
      </g>
    </g>
  </g>
</svg>
