<svg xmlns="http://www.w3.org/2000/svg" xmlns:xlink="http://www.w3.org/1999/xlink" width="110.273" height="110.164" viewBox="0 0 110.273 110.164">
  <defs>
    <linearGradient id="linear-gradient" x1="0.5" x2="0.447" y2="0.087" gradientUnits="objectBoundingBox">
      <stop offset="0" stop-color="#f90093"/>
      <stop offset="1" stop-color="#555"/>
    </linearGradient>
  </defs>
  <g id="Grupo_1271" data-name="Grupo 1271" transform="translate(11581.137 -5967.115)">
    <g id="Grupo_1151" data-name="Grupo 1151" transform="translate(-11832 5354.498)">
      <g id="Grupo_1152" data-name="Grupo 1152">
        <circle id="Elipse_247" data-name="Elipse 247" cx="34.5" cy="34.5" r="34.5" transform="translate(272 637)" fill="#222"/>
        <g id="Grupo_1128" data-name="Grupo 1128" transform="translate(91.806 1067.409)">
          <path id="Caminho_553" data-name="Caminho 553" d="M164.6-407.351a48.189,48.189,0,0,1,3.714-16.694c7.856-17.727,21.346-28.307,40.674-30.435,23.624-2.6,44.751,11.275,52.322,33.671q.264.781.5,1.57a1.779,1.779,0,0,1-1.144,2.508c-1.21.383-1.945-.279-2.378-1.412-.981-2.566-1.815-5.212-3.042-7.658a45.674,45.674,0,0,0-45.99-25.092,45.818,45.818,0,0,0-39.972,36.144c-.184.881-.313,1.773-.487,2.778l3.829-.854a41.928,41.928,0,0,1,17.485-27.126,41.114,41.114,0,0,1,25.964-7.54,42.352,42.352,0,0,1,39.743,34.659c4.326.894,5.409,1.854,6.292,5.729.559,0,1.16-.021,1.76,0a5.466,5.466,0,0,1,5.431,5.55c.048,4.654.021,9.308.012,13.962-.008,3.97-2.1,6.09-6.086,6.2-.354.01-.708.046-1.262.084,0,4.345.027,8.614-.007,12.882a19.561,19.561,0,0,1-5.192,13.376,19.651,19.651,0,0,1-14.947,6.713c-5.756.05-11.513-.024-17.268.059a2.967,2.967,0,0,0-2,1.049,5.908,5.908,0,0,1-4.822,2.575c-2.388.005-4.777.038-7.165-.007a5.5,5.5,0,0,1-5.545-5.441,5.506,5.506,0,0,1,5.609-5.561c2.326-.039,4.654,0,6.981-.011a5.888,5.888,0,0,1,4.973,2.636,2.709,2.709,0,0,0,1.849,1q8.815.111,17.635.029a16.544,16.544,0,0,0,16.218-16.2c.039-2.561.006-5.122.006-7.669h-7.625c-3.054,0-3.281-.218-3.493-3.717-.44.662-.721,1.051-.967,1.46-7.628,12.7-18.876,19.036-33.661,18.746-17.436-.343-32.894-14.689-34.755-32.026-.215-2-.293-4.026-.32-6.041-.049-3.731-.014-7.464-.014-11.438a45.4,45.4,0,0,0-5.852.094,2.545,2.545,0,0,0-1.429,1.96c-.1,8.389-.07,16.778-.06,25.167a1.931,1.931,0,0,0,2.2,2.119,14.722,14.722,0,0,1,3.471.1,2.413,2.413,0,0,1,1.539,1.652c.029.6-.822,1.743-1.348,1.78a19.423,19.423,0,0,1-5.809-.252c-2.438-.584-3.521-2.631-3.834-5.124-.729,0-1.336.027-1.94,0a5.44,5.44,0,0,1-5.282-5.319q-.108-7.531,0-15.063C159.147-404.615,160.826-406.246,164.6-407.351Zm87.269-5.447c-2.775-16.368-18.339-32.083-39.676-30.986-21.264,1.092-33.839,17.99-35.576,30.987l4.563.588c.1-.173.307-.538.506-.909a36.621,36.621,0,0,1,42.7-18.251,34.134,34.134,0,0,1,12.465,6.436,3.159,3.159,0,0,1,.879,2.3c-.014.419-1,1.1-1.576,1.127a3.481,3.481,0,0,1-1.919-.881,32.664,32.664,0,0,0-24.361-6.457,33.141,33.141,0,0,0-28.27,38.535,33.129,33.129,0,0,0,44.017,25.245,33.067,33.067,0,0,0,15.059-50.8c-.852-1.138-2.028-2.392-.352-3.592s2.539.318,3.32,1.479c1.325,1.967,2.578,3.982,3.707,5.734C248.919-412.43,250.34-412.607,251.867-412.8Zm-.827,33.243c1.86,0,3.566.031,5.27-.01a1.814,1.814,0,0,0,1.965-1.958c.021-8.511.05-17.022-.072-25.531-.009-.635-1.1-1.686-1.81-1.793a35.961,35.961,0,0,0-5.354-.086C251.04-399.1,251.04-389.457,251.04-379.555ZM166.359-403.3c-3.1-.306-3.6.144-3.6,3.079q0,6.039,0,12.078c0,2.837.7,3.4,3.6,2.842Zm95.731-.014v18.157c3.089.228,3.551-.2,3.553-3.156q0-5.947,0-11.894C265.641-403.147,265.147-403.591,262.09-403.313Zm-47.982,54.99a14.882,14.882,0,0,0,3.65-.078c.745-.194,1.293-1.142,1.93-1.752-.637-.609-1.231-1.681-1.918-1.744a39.081,39.081,0,0,0-7.142,0c-.687.063-1.279,1.136-1.916,1.746.637.61,1.183,1.543,1.931,1.752A13.234,13.234,0,0,0,214.108-348.323Z" fill-rule="evenodd" fill="url(#linear-gradient)"/>
          <path id="Caminho_554" data-name="Caminho 554" d="M231.435-414.055c6.513.757,11.393,6.309,12.107,12.929a14.77,14.77,0,0,1-9.192,15.057,14.711,14.711,0,0,1-17.138-4.71c-1.773-2.308-4.317-2.331-6.049-.055a14.663,14.663,0,0,1-17.449,4.652,14.778,14.778,0,0,1-8.794-15.8A14.842,14.842,0,0,1,198.472-414.4c1.339-.094,2.632.107,2.783,1.666.154,1.6-1.05,1.91-2.43,2.026a11.108,11.108,0,0,0-10.308,9.575,11.158,11.158,0,0,0,7.5,11.917,10.937,10.937,0,0,0,13.048-5.169,2.833,2.833,0,0,1,2.948-1.682,9.027,9.027,0,0,0,1.652,0c2.815-.258,4.9.212,6.66,3.074,2.64,4.279,8.523,5.417,13.1,3.319a11.026,11.026,0,0,0,6.318-11.9,10.947,10.947,0,0,0-10.664-9.152c-6.856-.1-13.716-.029-20.573-.033-.49,0-1.087.175-1.447-.043-.742-.448-1.778-1.012-1.933-1.7-.268-1.192.718-1.892,1.912-1.912,2.938-.048,5.878-.021,8.817-.024C216.711-414.439,227.152-414.552,231.435-414.055Z" fill-rule="evenodd" fill="url(#linear-gradient)"/>
          <path id="Caminho_555" data-name="Caminho 555" d="M205.111-377.711c-.2,3.184.229,3.672,3.029,3.674,4.224,0,8.446.017,12.669-.007,1.381-.007,2.569.319,2.517,1.928-.047,1.485-1.206,1.77-2.5,1.763-4.59-.024-9.18.016-13.771-.019a5.456,5.456,0,0,1-5.7-5.643c-.053-5.465-.455-5.429,5.177-5.381,5.936.05,11.873.023,17.81,0,1.334-.005,2.629.168,2.661,1.783.035,1.746-1.319,1.913-2.72,1.908-5.691-.021-11.383-.009-17.075-.009Z" fill-rule="evenodd" fill="url(#linear-gradient)"/>
          <path id="Caminho_556" data-name="Caminho 556" d="M201.324-401.752c1.8.5,4.313-.656,4.426,1.9.132,3.005-2.711,1.472-4.426,2.208a6.314,6.314,0,0,1-.063,2.349c-.318.766-1.043,1.741-1.742,1.885-1.172.241-1.851-.68-1.86-1.923-.005-.78,0-1.56,0-2.571-.944,0-1.716-.01-2.489,0-1.238.02-2.041-.553-2.056-1.8-.015-1.268.846-1.815,2.036-1.861.775-.03,1.553-.005,2.51-.005,0-.985-.006-1.763,0-2.541a1.717,1.717,0,0,1,1.727-1.951c1.266-.049,1.875.739,1.93,1.952C201.354-403.291,201.324-402.467,201.324-401.752Z" fill-rule="evenodd" fill="url(#linear-gradient)"/>
          <path id="Caminho_557" data-name="Caminho 557" d="M228.973-407.868c.807,1.292,1.656,2.057,1.609,2.763-.04.594-1.059,1.472-1.755,1.6a1.453,1.453,0,0,1-1.692-1.823C227.283-406.063,228.065-406.665,228.973-407.868Z" fill-rule="evenodd" fill="url(#linear-gradient)"/>
          <path id="Caminho_558" data-name="Caminho 558" d="M230.952-395.508c-.753.42-1.549,1.224-2.246,1.145a2.315,2.315,0,0,1-1.512-1.753,2.347,2.347,0,0,1,1.678-1.63c.705-.005,1.416.892,2.124,1.4Q230.975-395.929,230.952-395.508Z" fill-rule="evenodd" fill="url(#linear-gradient)"/>
          <path id="Caminho_559" data-name="Caminho 559" d="M233.746-402.689c.5.634,1.454,1.331,1.377,1.886-.1.717-1.021,1.322-1.589,1.976-.618-.544-1.663-1.033-1.74-1.646-.085-.674.717-1.461,1.133-2.2Z" fill-rule="evenodd" fill="url(#linear-gradient)"/>
          <path id="Caminho_560" data-name="Caminho 560" d="M224.559-402.689c.5.634,1.454,1.331,1.377,1.886-.1.717-1.021,1.322-1.589,1.976-.618-.544-1.662-1.033-1.739-1.646-.086-.674.717-1.461,1.133-2.2Z" fill-rule="evenodd" fill="url(#linear-gradient)"/>
        </g>
      </g>
    </g>
  </g>
</svg>
