<svg xmlns="http://www.w3.org/2000/svg" xmlns:xlink="http://www.w3.org/1999/xlink" width="86.7" height="88.604" viewBox="0 0 86.7 88.604">
  <defs>
    <linearGradient id="linear-gradient" x1="0.637" y1="0.09" x2="0.166" y2="0.592" gradientUnits="objectBoundingBox">
      <stop offset="0" stop-color="#f90093"/>
      <stop offset="1" stop-color="#555"/>
    </linearGradient>
  </defs>
  <g id="Grupo_1136" data-name="Grupo 1136" transform="translate(-70.999 -569.803)">
    <g id="Grupo_1135" data-name="Grupo 1135" transform="translate(0.131)">
      <path id="Caminho_576" data-name="Caminho 576" d="M-427.553-419.283a20.942,20.942,0,0,0,12.986-19.348,20.936,20.936,0,0,0-20.912-20.913,20.936,20.936,0,0,0-20.912,20.913A20.941,20.941,0,0,0-443.4-419.283a36.689,36.689,0,0,0-28.706,35.759h4.586a32.082,32.082,0,0,1,32.045-32.045,32.081,32.081,0,0,1,32.045,32.045h4.586A36.688,36.688,0,0,0-427.553-419.283Zm-24.232-19.348a16.326,16.326,0,0,1,16.307-16.308,16.326,16.326,0,0,1,16.307,16.308,16.326,16.326,0,0,1-16.307,16.307A16.326,16.326,0,0,1-451.786-438.63Z" transform="translate(542.979 1029.346)" fill="url(#linear-gradient)"/>
      <g id="Grupo_1133" data-name="Grupo 1133" transform="translate(512.858 1006.656)">
        <path id="Caminho_565" data-name="Caminho 565" d="M-389.7-382.091A48.831,48.831,0,0,0-378.7-385.1c1.244-.513,2.45-1.119,3.694-1.63a1.524,1.524,0,0,1,1.1-.083,50.908,50.908,0,0,0,15.016,4.738A37.907,37.907,0,0,1-362-368.1c-2.719,6.339-8.087,13.18-12.347,15.8C-382.445-357.075-391.144-373.91-389.7-382.091Zm22.648,4.585c-2.942,2.966-5.935,5.984-9.1,9.181-1.329-1.41-2.575-2.732-3.752-3.979l-2.307,2.24,6.155,6.2,11.385-11.369C-365.41-375.934-366.2-376.688-367.054-377.506Z" fill="#222" fill-rule="evenodd"/>
        <path id="Caminho_566" data-name="Caminho 566" d="M-366.9-377.506l2.377,2.273-11.385,11.369c-2-2.017-4.083-4.114-6.155-6.2l2.307-2.24,3.753,3.979Z" fill="#555" fill-rule="evenodd"/>
        <path id="Caminho_567" data-name="Caminho 567" d="M-355.29-385.187c-.093,2.073-.087,4.126-.293,6.158a40.756,40.756,0,0,1-7.872,20.395,48.161,48.161,0,0,1-10.219,10.115.915.915,0,0,1-1.282.015c-9.631-7.079-15.846-16.325-17.754-28.234-.443-2.765-.507-5.589-.747-8.4,2.114-.356,3.984-.629,5.837-.993a42.543,42.543,0,0,0,12.453-4.545,1.531,1.531,0,0,1,1.682-.02,45.178,45.178,0,0,0,17.071,5.3C-356.085-385.359-355.762-385.275-355.29-385.187Zm-34.37,2.966c-1.442,8.181,7.255,25.016,15.354,29.791,4.259-2.619,9.627-9.459,12.346-15.8a37.913,37.913,0,0,0,3.114-13.979,50.908,50.908,0,0,1-15.016-4.738,1.534,1.534,0,0,0-1.1.083c-1.244.511-2.451,1.117-3.694,1.63A48.726,48.726,0,0,1-389.66-382.221Z" fill="#555" fill-rule="evenodd"/>
      </g>
    </g>
  </g>
</svg>
