<svg xmlns="http://www.w3.org/2000/svg" width="39.346" height="40.209" viewBox="0 0 39.346 40.209">
  <g id="Grupo_1274" data-name="Grupo 1274" transform="translate(11790.173 -6230.608)">
    <g id="Grupo_1267" data-name="Grupo 1267" transform="translate(-11861.041 5660.806)">
      <path id="Caminho_576" data-name="Caminho 576" d="M-451.89-441.272a9.5,9.5,0,0,0,5.893-8.78,9.5,9.5,0,0,0-9.49-9.49,9.5,9.5,0,0,0-9.49,9.49,9.5,9.5,0,0,0,5.893,8.78,16.65,16.65,0,0,0-13.027,16.228h2.081a14.559,14.559,0,0,1,14.543-14.543,14.559,14.559,0,0,1,14.543,14.543h2.081A16.649,16.649,0,0,0-451.89-441.272Zm-11-8.78a7.409,7.409,0,0,1,7.4-7.4,7.409,7.409,0,0,1,7.4,7.4,7.409,7.409,0,0,1-7.4,7.4A7.409,7.409,0,0,1-462.887-450.053Z" transform="translate(542.979 1029.346)" fill="currentColor"/>
      <g id="Grupo_1133" data-name="Grupo 1133" transform="translate(92.894 590.64)">
        <path id="Caminho_565" data-name="Caminho 565" d="M-389.788-384.711a22.16,22.16,0,0,0,4.995-1.367c.565-.233,1.112-.508,1.676-.74a.692.692,0,0,1,.5-.038,23.1,23.1,0,0,0,6.814,2.15,17.2,17.2,0,0,1-1.413,6.344c-1.234,2.877-3.67,5.981-5.6,7.17C-386.495-373.359-390.443-381-389.788-384.711Zm10.278,2.081-4.132,4.166-1.7-1.806-1.047,1.017,2.793,2.815,5.167-5.159Z" transform="translate(391.492 388.726)" fill="#222" fill-rule="evenodd"/>
        <path id="Caminho_566" data-name="Caminho 566" d="M-375.184-377.506l1.079,1.032-5.167,5.159-2.793-2.815,1.047-1.017,1.7,1.806Z" transform="translate(387.235 383.602)" fill="currentColor" fill-rule="evenodd"/>
        <path id="Caminho_567" data-name="Caminho 567" d="M-376.136-388.328c-.042.941-.039,1.872-.133,2.795a18.5,18.5,0,0,1-3.572,9.256,21.855,21.855,0,0,1-4.638,4.59.415.415,0,0,1-.582.007,19.248,19.248,0,0,1-8.057-12.813c-.2-1.255-.23-2.536-.339-3.812.959-.162,1.808-.285,2.649-.451a19.307,19.307,0,0,0,5.651-2.063.7.7,0,0,1,.763-.009,20.5,20.5,0,0,0,7.747,2.406C-376.5-388.406-376.351-388.368-376.136-388.328Zm-15.6,1.346c-.654,3.713,3.292,11.353,6.968,13.52,1.933-1.189,4.369-4.293,5.6-7.17a17.2,17.2,0,0,0,1.413-6.344,23.1,23.1,0,0,1-6.814-2.15.7.7,0,0,0-.5.038c-.565.232-1.112.507-1.676.74A22.111,22.111,0,0,1-391.734-386.982Z" transform="translate(393.457 390.938)" fill="currentColor" fill-rule="evenodd"/>
      </g>
    </g>
  </g>
</svg>
