<svg xmlns="http://www.w3.org/2000/svg" width="194.035" height="66.688" viewBox="0 0 194.035 66.688">
  <path id="Caminho_13" data-name="Caminho 13" d="M144.052,939.883c.459,2.521.8,4.953,1.358,7.334.811,3.449,1.761,6.866,2.691,10.286.357,1.317.8,2.612,1.261,3.9a2.161,2.161,0,0,0,.633.761c1.126,1.023,1.256,2.314-.191,2.92-1.555.65-3.154,1.2-4.752,1.737-2.564.864-5.14,1.691-7.717,2.514a6.138,6.138,0,0,1-1.341.235.679.679,0,0,1-.552-.2,15.9,15.9,0,0,1-1.161-2.315,141.112,141.112,0,0,1-6.083-22.021,2.922,2.922,0,0,1-.108-.721c.1-1.273-.051-1.319-1.341-1.2-2.126.2-3.486,1.709-5.082,2.8-1.385.943-1.319.992-2.692.037a1.115,1.115,0,0,0-1.014-.036q-4.31,3.016-8.548,6.126a4.645,4.645,0,0,0-1.221,1.4,2.158,2.158,0,0,0,.093,2.476c.528.761,1.291,1.536.663,2.569a2.946,2.946,0,0,1-2.74,1.261c-4.016.073-8.03.175-12.044.28-1.068.028-1.5-.32-1.839-1.743-.521-2.151-.99-4.313-1.5-6.466-.658-2.768-1.305-5.536-2.011-8.291-1.212-4.729-2.5-9.438-3.69-14.172-.795-3.167.256-5.391,3.27-7.529a9.524,9.524,0,0,1,5.709-1.5q15.649-.147,31.3-.35c7.4-.1,14.792-.295,22.188-.415,5.141-.083,10.283-.108,15.425-.168,3.026-.034,6.054-.052,9.079-.154a5.612,5.612,0,0,0,1.816-.6c.606-.25,1.185-.564,2-.961a22.9,22.9,0,0,0-1.76-2.744,12.085,12.085,0,0,0-9.777-4.456c-5.317.071-10.637.121-15.954.179-.423.005-.847-.013-1.269-.012-2.183.009-1.813-.245-2.055-2.179a12.715,12.715,0,0,1,.181-3.563,2.142,2.142,0,0,1,1.006-1.167c1.312-.818,2.689.014,4.04-.038.308-.012.621.123.931.123q12.9-.016,25.8-.048c.841,0,1.688.065,2.521-.015a4.123,4.123,0,0,0,1.625-.495,2.181,2.181,0,0,1,2.846.355,1.194,1.194,0,0,0,.769.357c3.266.027,6.531.023,9.8.025.447,0,.849.074,1.064-.568.091-.271.867-.545,1.22-.439a2.266,2.266,0,0,1,1.387,1.02c.3.756.475.891,1.148.4s1.236-.152,1.235.7c0,1.2.011,2.4-.107,3.584a1.579,1.579,0,0,1-.766.978c-.532.307-.635.77-.292,1.073,1.8,1.594,3.655,3.125,5.515,4.651a.8.8,0,0,0,.742.094c1.41-1.227,2.6-.076,3.868.3.331.1.721.3,1,.212.89-.286,1.295.055,1.644.848a2.418,2.418,0,0,0,1.04.881c.512.3,1.112.447,1.607.767a1.487,1.487,0,0,1,.654.89c.153,1.169.458,1.519,1.6,1.521,2.893.007,5.784-.009,8.675.025a5.328,5.328,0,0,1,1.253.356,3.8,3.8,0,0,0,1,.234q15.907-.082,31.819-.2a5.518,5.518,0,0,0,1.018-.2c.24-.05.58-.234.7-.139,1.242.984,2.652-.278,3.921.315.113.054.492-.155.54-.309.285-.893,1.022-.77,1.663-.75,2.45.074,4.9.2,7.349.288.67.024,1.341-.009,2.011,0a1.507,1.507,0,0,1,1.584,1.271,7.187,7.187,0,0,1,.179,1.146c.136,2.3-.57,3.11-2.87,3.176-2.22.063-4.442.035-6.663.066a4.967,4.967,0,0,0-1.232.172c-1.387.387-1.545.334-2.128-.708-1.188-.1-2.234-.206-3.282-.268-.22-.013-.445.175-.675.2a9.388,9.388,0,0,1-1.362.041c-.337-.017-.671-.167-1.006-.167q-14.7.031-29.4.087a10.924,10.924,0,0,0-1.32.2c.623.407.947.62,1.163.762-.394.476-.668,1.106-1.119,1.283a7.942,7.942,0,0,1-2.6.5c-2.389.074-4.78.039-7.17.068-.223,0-.607.107-.639.235a21.355,21.355,0,0,0-.6,3.056c-.017.156.675.547,1.043.553,1.14.018,1.207.494,1.147,1.537-.119,2.1.044,4.215.108,6.323.109,3.586.175,7.175.374,10.755a31.419,31.419,0,0,0,.738,4.97c.184.831-.141,1.237-.771,1.27-2.209.111-4.427.183-6.637.112-1.075-.033-1.358-.9-1.495-1.931-.485-3.638.137-7.2.529-10.784a22.45,22.45,0,0,0-.786-9.276c-.568-1.8.355-3.023,2.26-3.066a1.473,1.473,0,0,0,.981-.317c-.158-.08-.326-.244-.474-.228-1.39.149-2.861-.314-4.161.6a1.022,1.022,0,0,1-.978-.078c-.632-.644-1.365-.457-2.072-.379a38.07,38.07,0,0,0-5.505.729c-3.582.941-6.017,3.493-8.188,6.343q-5.523,7.242-11.109,14.438c-1.413,1.811-2.792,3.729-4.984,4.69a10.853,10.853,0,0,1-3.51,1c-4.313.287-8.637.442-12.958.592-2.044.07-2.683-.561-2.648-2.589.083-4.864.9-9.563,3.482-13.794a14.283,14.283,0,0,1,1.672-2.154c2.057-2.246,1.829-5.457-.744-6.845a6.585,6.585,0,0,0-3.676-.456,55.356,55.356,0,0,0-11.39,2.517,2.526,2.526,0,0,0-1.98,1.944A2.191,2.191,0,0,1,144.052,939.883Zm33.568-32.639c.8.012,1.6.046,2.392.019.163-.006.317-.241.477-.369-.146-.11-.319-.336-.432-.309-.825.2-1.64.447-2.457.68-.18-.206-.377-.6-.535-.589-1.511.142-3.052-.345-4.553.34-.448.205-1.126-.11-1.7-.16-.844-.073-1.69-.121-2.535-.179,0,.191-.005.384-.008.575Q172.938,907.252,177.62,907.244Zm-24.742.039c1.512.03,3.021.065,4.533.091,2.231.036,4.463.076,6.7.082.217,0,.435-.232.652-.357-.2-.137-.4-.367-.611-.391a13.979,13.979,0,0,0-1.573-.009c-2.979.025-5.957.037-8.935.1-.256.006-.506.33-.763.495-.216-.127-.431-.361-.65-.365-1.631-.031-3.263-.018-5.144-.018.3.273.463.56.624.557C149.432,907.431,151.155,907.351,152.878,907.283Zm45.78,6.684q-1.65-1.827-3.295-3.652l-.224.207,3.425,3.919.234-.186c-.056-.1-.112-.212-.168-.318.41.262.809.548,1.236.779.3.16.761.443.93.333.813-.531,1.224.119,1.741.472.345.236.681.486,1.021.73a1.387,1.387,0,0,0-.507-.707c-1.53-1.452-3.137-2.834-4.549-4.394a2.312,2.312,0,0,0-2.475-.775C196.939,911.619,197.8,912.793,198.658,913.967ZM182.3,938.926l-.025-.016-4.026.242a1.185,1.185,0,0,1-1.528,1.135,2.052,2.052,0,0,0-2.274,1.476c-.623,1.339-1.206,2.7-1.821,4.038-1.055,2.3-2.17,4.581-3.163,6.911-.729,1.707.059,3.479,1.623,3.685,3.538.467,6.721-.1,9.059-3.2,3.221-4.269,6.549-8.455,9.769-12.725a5.693,5.693,0,0,0,1.535-4.023c-.181-1.927-1.372-3.408-3.264-3.446-2.459-.05-4.924.11-7.383.24a2.5,2.5,0,0,0-2.4,2.047,22.355,22.355,0,0,0-.249,3.486C179.738,938.589,181.053,938.214,182.3,938.926Zm-1.426-26.736a4.056,4.056,0,0,1-.27-1.239c.128-.892-.251-1.15-1.061-1.082-1.913.161-3.826.333-5.741.447-1.015.061-2.036.011-3.055.011-.01.1-.019.191-.028.286a13.061,13.061,0,0,1,5.818,5.187,1.921,1.921,0,0,0,2.148,1.2,3.388,3.388,0,0,1,1.2.292l-.084.311-2.052.207c.078.585.139,1.035.2,1.486.244,1.824.244,1.858,2.021,1.835,5.457-.071,10.913-.174,16.369-.26.721-.012,1.44,0,2.159,0l.006-.343c-6.573-.537-13.173-.163-19.762-.368a6.822,6.822,0,0,1,1.232-.122c6.514-.09,13.027-.168,19.541-.285a3.629,3.629,0,0,0,1.188-.5c-.036-.1-.071-.2-.106-.293H187.294a.467.467,0,0,1,.372-.139c4.018-.033,8.035-.047,12.052-.124.457-.009,1.286-.369,1.289-.575a2.586,2.586,0,0,0-.563-1.666c-1.726-1.891-3.563-3.679-5.307-5.553a3.07,3.07,0,0,0-2.477-1.135c-2.358.061-4.72.053-7.079.054-.7,0-1.131.131-1.09,1,.04.843-.269,1.486-1.341,1.386C182.424,912.135,181.686,912.19,180.871,912.19Zm-2.987,14.378-.087.247c.308.161.614.465.921.464,3.833-.011,7.666-.036,11.5-.116,3.2-.065,6.39-.225,9.586-.307,1.676-.043,3.353-.008,5.029-.008,0-.094,0-.188-.005-.28Zm5.258-21.368a1.558,1.558,0,0,0-1.648,1.531,1.558,1.558,0,0,0,3.109-.051A1.51,1.51,0,0,0,183.142,905.2Zm-17.722,3.427c.445.271.753.468,1.068.648,1.741,1,3.523,1.929,5.218,3a12.181,12.181,0,0,1,4.991,5.844,16.265,16.265,0,0,1,.483,1.724,2.372,2.372,0,0,0-.06-1.358,11.471,11.471,0,0,0-4.016-5.581c-2.312-1.59-4.792-2.933-7.205-4.373C165.838,908.494,165.712,908.564,165.42,908.627Zm61.274,18.333h2.212c-.054-.475-.116-1.038-.18-1.6l-.239.01c-.1.2-.209.4-.328.623l-1.465-.662C226.694,925.917,226.694,926.429,226.694,926.96Zm-47.082-21.84a11.368,11.368,0,0,0-1.756.349,1.223,1.223,0,0,0,.005.835,9.224,9.224,0,0,0,1.59.321C179.505,906.115,179.544,905.749,179.612,905.12Zm-6.889.121-1.669.759c.227.227.428.607.686.65C172.489,906.775,172.995,906.5,172.723,905.241Zm-29.589,49,.465-.13c-.19-.616-.382-1.232-.609-1.964-.531.307-.957.551-1.382.8.027.081.056.163.084.245l1.037-.291C142.868,953.358,143,953.8,143.134,954.239ZM189.353,906.7l.021.371h2.756C191.21,906.778,190.3,906.313,189.353,906.7Zm8,.591c.071.115.141.229.211.345l1.116-.585c-.13-.217-.262-.434-.392-.651Q197.818,906.85,197.349,907.295Zm-55.142,41.143-.53.118.48,1.842.475-.117Q142.419,949.359,142.207,948.438Zm-.992-1.782.547-.075c-.153-.634-.308-1.268-.461-1.9l-.444.091Q141.035,945.712,141.215,946.656Zm-.521-5.735-.446.137c.3.517-.313,1.364.861,1.861Z" transform="translate(-84.866 -902.883)" fill="currentColor" fill-rule="evenodd"/>
</svg>
