<svg xmlns="http://www.w3.org/2000/svg" width="194.872" height="59.306" viewBox="0 0 194.872 59.306">
  <path id="Caminho_12" data-name="Caminho 12" d="M776.153,739.77c-2.292,1.95-3.719,4.786-4.931,7.706a32.051,32.051,0,0,0-1.405,5.135,4.94,4.94,0,0,1-4.79,4.038c-2.493.144-5.109-1.41-5.582-3.621a5.767,5.767,0,0,1,.422-3.268c1.057-2.455,2.324-4.821,3.543-7.2a10.017,10.017,0,0,0,.8-7.1c-.141-.6-.051-1.26-.179-1.869-.056-.265-.386-.659-.6-.667a4.872,4.872,0,0,0-1.791.229c-7.025,2.51-14.011,5.137-21.064,7.564-9.084,3.126-18.212,6.126-27.34,9.121-2.061.677-2.388.307-2.759-1.864-.942-5.512-1.954-11.013-2.939-16.518-.021-.119-.066-.234-.09-.354-.505-2.558-.3-2.933,2.225-3.249,7.972-1,15.949-1.939,23.927-2.9.927-.112,1.852-.236,2.78-.336a22.6,22.6,0,0,1,6.762.329,22.869,22.869,0,0,0,6.513.081c3.783-.386,7.552-.975,11.3-1.637.489-.086.818-1.1,1.213-1.691.418-.627.716-1.664,1.26-1.813,1.427-.39,2.209-1.462,3.115-2.386a3.335,3.335,0,0,1,2.6-1.032q17.364.015,34.728,0H813.1c.346-.722.614-1.285.941-1.97-.456-.4-2.31.222-1.394-1.68a4.615,4.615,0,0,1,.757.5,1.222,1.222,0,0,0,1.911.04,1.359,1.359,0,0,1,1.873-.2c1.658,1.087,3.427.5,5.159.478.15,0,.308-.184.447-.165,1.5.194,3.017.353,4.494.671.32.069.563.716.743,1.14a7.154,7.154,0,0,1,.244,1.408c1.316-1.777,3-1.443,4.571-1.445,5.97,0,11.94.029,17.91.055.405,0,.81.081,1.214.074,1.025-.016,1.916.127,1.89,1.762,5.4.084,10.7.214,15.993.216a2.526,2.526,0,0,1,2.6,1.49,8.425,8.425,0,0,0,4.365,3.671,10.087,10.087,0,0,0,4.33.661c2.884.029,5.769.023,8.651.069.665.01.937-.221,1.235-.842.912-1.9,2.019-3.7,2.946-5.6a4.911,4.911,0,0,0,.51-2.274c-.05-1.13.288-1.576,1.432-1.436.8.1,1.608.09,2.394.128,0,1.511-.014,2.916,0,4.32.015,1.257.018,2.517.106,3.771.122,1.733.313,1.876,2.023,1.857,1.1-.013,1.688.654,1.645,1.885s-.61,1.8-1.735,1.712c-1.491-.118-1.788.149-2.369,1.593a1.542,1.542,0,0,1-1.227.625c-2.309-.047-4.613-.263-6.921-.291-5.849-.072-11.7-.078-17.546-.094a4.175,4.175,0,0,0-.9.242c-.418.1-.921.377-1.249.241-2.536-1.044-5.2-.466-7.788-.636-2.469-.162-4.954-.119-7.43-.083a8.824,8.824,0,0,0-1.737.531,16.409,16.409,0,0,1-2.237.419c-7.307.736-14.619,1.43-21.924,2.193-1.4.147-2.778.562-4.172.827-1.713.327-3.341.372-4.822-.878a3.318,3.318,0,0,0-2.04-.61c-2.963.035-5.925.191-8.888.291-.973.033-1.531.338-1.339,1.481,1.883,11.16,7.079,20.271,16.5,26.777,2.194,1.517,2.219,1.507.821,3.808q-2.339,3.846-4.723,7.666a2.563,2.563,0,0,1-3.628.821A50.941,50.941,0,0,1,795.168,743.6c-.849-2.641-1.435-5.366-2.354-8.063v4.681c-.132.015-.264.027-.4.041-.119-.35-.258-.693-.353-1.049a2.7,2.7,0,0,0-3.811-1.551c-.186.124-.256.48-.3.743-.288,1.7-.832,2.261-2.548,2.3-2.192.056-4.391.091-6.578-.024A11.169,11.169,0,0,1,776.153,739.77Zm.973-7.249-.423.149c.16.89.361,1.773.466,2.669a7.759,7.759,0,0,1,.1,2.583c-.363,1.541-.069,2.171,1.518,2.205,2.27.05,4.541.033,6.811-.021,1.373-.034,1.813-.521,1.795-1.886-.022-1.66-.132-3.32-.147-4.981-.007-.792-.32-1.071-1.1-1.03-1.133.059-2.271.039-3.4.06a1.829,1.829,0,0,0-1.931,2.272,3.281,3.281,0,0,0,2.243,2.781c.347.129.692.263,1.04.393a.915.915,0,0,1-.68.43,3.589,3.589,0,0,1-3.764-2.843C779.2,733.882,778.141,733.278,777.126,732.521Zm91.658-9.532c.041-1.249-.142-1.521-1.384-1.55-3.434-.08-6.868-.088-10.3-.111a1.189,1.189,0,0,0-.687.179,8.782,8.782,0,0,0-.876.861c.346.19.688.541,1.038.549,2.911.06,5.822.059,8.733.071C866.467,722.994,867.629,722.989,868.784,722.989Zm21.927,4.639c.152-.905-.313-1.023-.972-1.026-3.682-.015-7.362-.067-11.044-.052-.356,0-.711.379-1.065.581.373.185.745.523,1.121.529,3.642.057,7.283.061,10.924.069A9.9,9.9,0,0,0,890.711,727.628Zm-28.663-1.249v-.08c-1.989,0-3.979-.021-5.967.024-.271.005-.536.337-.8.517.259.186.515.524.778.531,3.935.1,7.871.169,11.808.188.311,0,.624-.415.936-.638-.3-.182-.6-.511-.909-.519C865.946,726.355,864,726.379,862.048,726.379Zm31.068-4.537c.882,0,1.682.036,2.477-.014.449-.028,1.246-.144,1.271-.314a8.754,8.754,0,0,0-.062-2.26c-.013-.108-.4-.231-.616-.249C894.176,718.844,893.449,719.471,893.116,721.842Zm-49.745-.093h5.178C847.885,720.584,844.412,720.568,843.371,721.749Zm-9.927.006h5.538C838.289,720.758,834.813,720.686,833.444,721.755ZM817.2,715.342l3.237-.4c-.023-.16-.048-.321-.072-.482C819.273,714.593,818.076,714,817.2,715.342Z" transform="translate(-707.217 -712.814)" fill="currentColor" fill-rule="evenodd"/>
</svg>
