<svg xmlns="http://www.w3.org/2000/svg" width="197.514" height="56.785" viewBox="0 0 197.514 56.785">
  <path id="Caminho_15" data-name="Caminho 15" d="M568.313,328.188c-5.891,0-11.783-.008-17.676.017-.231,0-.458.3-.7.44a2.979,2.979,0,0,1-.781.431c-.725.167-1.45.041-2.227.228a45.6,45.6,0,0,1-6.182.831c-1.662.163-3.336.194-5,.317-2.508.184-5.009.479-7.519.576a27.049,27.049,0,0,0-6.334,1.116,27.185,27.185,0,0,1-3.122.571,8.543,8.543,0,0,1-3.733-.515c-.669-.191-1.784-.038-1.688-1.308-2.264.106-4.434.2-6.6.312-2.041.1-4.083.218-6.184.329.337,1.395.61,2.763,1,4.1q.695,2.344,1.567,4.638a24.331,24.331,0,0,0,1.483,3.233c.724,1.289,1.545,2.528,2.373,3.755a31.009,31.009,0,0,0,2.349,3.219c1.1,1.248,2.345,2.365,3.512,3.554a18.6,18.6,0,0,0,5.193,3.925c.49.233.52.508.23.922-.4.563-.762,1.143-1.142,1.716q-2.96,4.476-5.928,8.947c-.133.2-.409.482-.567.451a1.482,1.482,0,0,1-.677-.512,11.472,11.472,0,0,0-.835-1.042c-2.42-2.116-4.938-4.123-7.271-6.328a43.269,43.269,0,0,1-6.127-7.545,44.994,44.994,0,0,1-2.787-4.656c-1.117-2.216-2.156-4.481-3.069-6.788-.638-1.613-1.01-3.333-1.5-5-.111-.379-.234-.753-.353-1.129a9.172,9.172,0,0,0-.32,1.885c-.134,1.053-.281,2.106-.461,3.153-.027.157-.261.28-.4.418-.089-.054-.179-.106-.268-.158.111-.879.228-1.758.33-2.638.047-.4.087-.739-.542-.761-.853-.026-1.7-.2-2.589-.312.044-.368.079-.658.114-.947-.621,1.372-1.807,1.415-3.047,1.446-1,.024-1.99.228-2.986.266a28.42,28.42,0,0,1-3.85-.019,2.668,2.668,0,0,1-2.006-1.449c-.143-.244-.6-.6-.682-.541a3.831,3.831,0,0,0-1.4,1.169,29.443,29.443,0,0,0-1.533,3.575c-.8,2.141-1.5,4.324-2.348,6.449a9.03,9.03,0,0,0-.847,4.256c.038.395.005.8.005,1.236-1.15.21-2.238.418-3.334.6a1.832,1.832,0,0,1-.909.028c-1.07-.429-2.126-.9-3.165-1.4-.869-.419-2.046-.449-2.1-1.89a5.115,5.115,0,0,1,.389-3.144,12.563,12.563,0,0,0,.957-2.395c.549-1.543,1.1-3.086,1.593-4.643a6.5,6.5,0,0,0,.521-3.593c-.3-1.237-.626-2.47-.938-3.7-1.459-.177-3.028-.391-4.6-.552a8.669,8.669,0,0,0-3,.4c-2.627.668-5.294,1.169-7.933,1.787-1.84.431-3.675.9-5.485,1.437-1.484.44-2.95.96-4.389,1.532-2.8,1.115-5.565,2.3-8.351,3.438-2.244.919-4.5,1.808-6.741,2.734-1.761.728-3.5,1.506-5.26,2.237-1.375.571-2.77,1.09-4.144,1.657-1.722.709-3.412,1.562-5.357,1.212a3.568,3.568,0,0,1-1.91-.647,3.142,3.142,0,0,1-.6-2.032c.04-1.654.3-3.3.4-4.957.137-2.244.218-4.492.307-6.739.065-1.626.123-3.254.15-4.88.026-1.652.139-3.292,1.487-4.459a3.418,3.418,0,0,1,1.771-.84,38.085,38.085,0,0,1,4.014-.038q6.557.066,13.114.153c2.181.031,4.363.1,6.544.146,2.256.052,4.514.15,6.77.133a9.507,9.507,0,0,1,3.238.921c1,.345,1.82.981,3.111.529,2.381-.833,4.889-1.3,7.34-1.935,2.191-.568,4.333-1.368,6.545-1.337a4.225,4.225,0,0,1,.563-.995c.821-.8,1.7-1.542,2.545-2.311,1.109-1.005,2.2-2.033,3.336-3.006a2.713,2.713,0,0,1,1.325-.726,26.465,26.465,0,0,1,4.348-.156,27.425,27.425,0,0,0,6.912-.165,1.265,1.265,0,0,1,.372.018c.734.089,1.47.239,2.207.26,1.269.038,2.54-.016,3.809-.013a24.625,24.625,0,0,0,6.236-.271,1.449,1.449,0,0,1,.451,0c1.291.1,2.577.239,3.869.286.768.028,1.54-.11,2.311-.136s1.52-.007,2.278-.007c1.462,0,2.922-.011,4.382.007.493.006,1.064.267,1.461.093.926-.4,1.813-.014,2.709-.051,1.484-.061,2.979.1,4.477.164.043-.464.073-.776.114-1.213a9.529,9.529,0,0,0,1.771.369,9.136,9.136,0,0,0,1.735-.293c.006-.075.012-.151.017-.229-1.324-.83-2.87-.064-4.285-.575v-1.411c1.321,1.328,2.9.4,4.226.692.306-.3.646-.66,1-.677.285-.015.59.388.886.6.12.087.243.24.364.24a12.671,12.671,0,0,0,4.411-.395c.148-.053.42-.06.495.028.728.859,1.721.589,2.637.711a1.88,1.88,0,0,1,1.231.651c.209.325.375.42.67.372a15.744,15.744,0,0,1,2.462-.425q8.07.014,16.137.141c1.871.03,3.739.185,5.608.3,1.2.072,1.2.085,1.44,1.177a1.89,1.89,0,0,1,.5-.112c1.768.089,3.533.245,5.3.275,2.971.049,5.941.013,8.912.04a1.15,1.15,0,0,1,.826.337,5.749,5.749,0,0,1,.393,1.071c.51,1.129.818,2.422,2.1,2.988.643.284,1.354.4,2.008.668a12.914,12.914,0,0,0,5.1.658c3.247-.038,6.5-.011,9.743-.011h.8a2.453,2.453,0,0,1,.124-.736c.607-1.092,1.236-2.174,1.872-3.252.625-1.059,1.294-2.029.971-3.438-.274-1.191.206-1.789,1.335-2.008a7.543,7.543,0,0,1,2.4-.033.88.88,0,0,1,.76,1.013c-.07,1.1-.013,2.215-.021,3.322-.006.827-.018,1.657-.047,2.485-.034.908-.092,1.817-.138,2.7,1.342-.083,2.571-.257,3.594.682a18.71,18.71,0,0,1,1.452,1.36.975.975,0,0,1,.192.847,1.056,1.056,0,0,1-.769.5c-1.257.053-2.518.049-3.775.014-.573-.015-.809.181-.83.756-.012.3-.106.8-.28.855-.995.329-2.02.571-3.042.806-.769.178-1.461-.389-2.14-.4-5.085-.079-10.172-.04-15.258-.035a.808.808,0,0,0-.212.063c-.037.222-.07.432-.1.643h-2.761c-.026-.23-.05-.425-.079-.679C568.508,328.2,568.412,328.188,568.313,328.188Zm-84.774,4.427c-.111-.1-.162-.179-.209-.178-.9.037-1.793.085-2.688.13-1.022.05-2.045.1-3.068.151-.847.044-1.7.069-2.536.171a.858.858,0,0,0-.558.482,3.557,3.557,0,0,0,.991,3.979,2.983,2.983,0,0,1,.264.4,3.061,3.061,0,0,1-1.639-1.215,4.026,4.026,0,0,1-.9-2.944c.047-.945-.7-.46-1.127-.556.076,1.211.179,2.369.218,3.531a2.614,2.614,0,0,0,2.545,2.5c2.281-.071,4.562-.181,6.841-.306a1.506,1.506,0,0,0,1.371-1.565c-.02-1.447-.006-2.9-.006-4.439ZM552.007,321.7c.034.36.064.673.1,1.021.215.015.411.037.6.037,3.246,0,6.492-.009,9.736.014.576,0,.823-.183.815-.76s-.3-.781-.832-.78c-2.718,0-5.435-.028-8.15.018-1.5.025-3,.181-4.5.278,0,.057.005.115.008.172Zm19.644,5.441h15.085a3.348,3.348,0,0,0,.6-.019c.09-.016.161-.136.241-.211-.076-.077-.142-.2-.23-.221a1.987,1.987,0,0,0-.451-.018c-.508-.026-1.063.145-1.454-.376-.055-.073-.233-.069-.354-.069-4.423,0-8.847,0-13.338,0C571.714,326.562,571.685,326.827,571.651,327.143Zm-3.691-.46c-1.309-.021-2.617.012-3.925-.028a4.068,4.068,0,0,1-.959-.343,1.976,1.976,0,0,0-.578-.083c-3.271-.005-6.541-.012-9.813.012-.224,0-.434.28-.671.333-.358.079-.738.056-1.1.109a2.182,2.182,0,0,0-.487.2c.167.087.333.249.5.252,2.667.016,5.334.013,8,.013h9.658c.028-.088.058-.175.088-.263A2.881,2.881,0,0,0,567.96,326.683Zm23.246-5.118c.048-1.9-.152-1.716-1.591-1.7-1.2.017-1.2,0-2.324,1.651.348.387,1.348.468,3.86.3A1.405,1.405,0,0,0,591.206,321.565Zm-48.378.409c-.51-.4-4.858-.4-5.377,0Zm-16.753-.213a27.814,27.814,0,0,0,5.27.245c0-.082,0-.163.006-.245Zm22.834-4.288c-.215-.655.016-1.325-.7-1.5l-.233.167Z" transform="translate(-400.432 -313.209)" fill="currentColor" fill-rule="evenodd"/>
</svg>
