<svg xmlns="http://www.w3.org/2000/svg" width="181.467" height="49.29" viewBox="0 0 181.467 49.29">
  <path id="Caminho_17" data-name="Caminho 17" d="M770.591,915.872c.229-.974-.439-2.369,1.174-3.021-1.814.046-3.543-.679-5.224.256a1.074,1.074,0,0,1-.808.029,7.531,7.531,0,0,0-5.664-.011,4.841,4.841,0,0,1-1.256.073v-3.646c0-1.606.019-3.214-.006-4.821-.014-.885.713-1.061,1.084-.71.818.773,1.729.541,2.582.481,1.125-.077,2.382.539,3.375-.518a.613.613,0,0,1,.573.013c1.716,1.172,3.617.3,5.42.48.338.034.723-.391,1.246-.7.073.876.128,1.521.182,2.165.794-1.615,2.183-.76,3.265-.885.2-.023.46.462.839.869h5.948c.063-.406.127-.826.2-1.327h4c.053.4.107.82.2,1.516l2.3-.627c-.719-1.822-.4-2.3,1.251-2.3,1.279,0,2.559,0,3.971,0a4.706,4.706,0,0,1,.041,1.387c-.361,1.18.375,1.349,1.211,1.39.96.046,1.925.011,2.961.011.1-.471.19-.921.288-1.39H803.9c.05.455.093.845.135,1.233.013.12.024.24.037.36,2.323-.255,4.662-.416,6.967-.786,3.285-.525,6.527-1.381,9.826-1.759a68.31,68.31,0,0,1,7.714-.058v10.275c-3.392-.03-6.735.23-10.073-.479-3.529-.75-7.083-1.4-10.645-1.977a25.156,25.156,0,0,0-3.838-.03v3.743c-2.611,0-5.088-.019-7.564.021-.341.007-.677.31-1.015.476.051.166.1.333.152.5h1.4c5.707,0,11.448-.4,17.114.09,8.473.727,16.931.22,25.391.361,8.479.144,16.961.02,25.441.046.938,0,1.878.329,2.813.313,1.426-.024,2.849-.207,4.271-.342.653-.062.842-.473.784-1.093-.128-1.353-.222-2.709-.327-4.055,1.964-.437,2.5-.117,2.694,1.773.216,2.086.353,4.183.461,6.277a8.347,8.347,0,0,1-.3,1.747c.623.384,1.274,1.191,2.288.259.137-.126.739.381,1.127.384,3.817.034,7.644.165,11.452-.021,3.174-.155,6.341-.429,9.522-.389a4.96,4.96,0,0,1,.639.086v3.8c-8.008-.4-16.119-.452-24.266-.3-.235.6-.326,1.633-1.258.468-.129-.162-.608-.109-.907-.058a13.483,13.483,0,0,1-2.2.462q-25.984.042-51.97.023c-1.846,0-3.694-.039-5.539,0-1.213.023-1.438.538-1.347,1.777.181,2.463.183,4.938.3,7.406.224,4.571.479,9.141.722,13.711.007.121-.029.276.033.355,1.1,1.386-.069,1.378-.942,1.517q-5.58.892-11.164,1.76a7.738,7.738,0,0,1-1.009.006c-.406-6.325-.811-12.626-1.225-19.075-1.829.479-1.694,2.523-3.166,3.654.333-1.064.575-1.84.821-2.627-2-.227-2.26-.076-2.836,1.582-.394,1.133-.794,2.263-1.182,3.4a2.3,2.3,0,0,1-2.439,1.731c-1.205-.025-2.414-.052-3.616.011a5.491,5.491,0,0,1-3.417-.87c-1.072-.7-1.751-.144-2.55.75-1.561,1.744-1.18,4.289-2.774,5.979a3.353,3.353,0,0,0-.52,1.7c-.214,1.322-.857,1.8-2.024,1.193-2.1-1.087-4.143-2.285-6.188-3.476a1.3,1.3,0,0,1-.441-1.9c1.422-2.647,2.719-5.374,4.916-7.528,2.082-2.04,1.667-3.87-.479-5.85a3.977,3.977,0,0,0-3.332-.942c-2.009.03-4.019,0-6.026.019a8.181,8.181,0,0,1-2.984-.568,5.268,5.268,0,0,0-3.453.024c-11.432,4.482-22.813,9.091-34.23,13.607a8.751,8.751,0,0,1-3.146.477c-1.427,0-1.653-.34-1.631-1.756.081-5.182.17-10.363.238-15.545a31.519,31.519,0,0,0-.083-3.493c-.092-.937.313-1.259,1.137-1.271,4.293-.057,8.586-.086,12.877-.164,6.143-.111,12.287-.182,18.427-.416a13.439,13.439,0,0,0,8.919-3.731,5.161,5.161,0,0,1,4.2-1.544C766.557,915.986,768.519,915.872,770.591,915.872Zm17.092,23.722a4.921,4.921,0,0,1-1.474-4.23c.016-.384-.373-1.124-.523-1.11a2.036,2.036,0,0,0-1.385.6,11.692,11.692,0,0,0-1.373,2.662c-.151.405-.091,1.235.164,1.387a10.609,10.609,0,0,0,3.319,1.5,29.74,29.74,0,0,0,4.207.065,1.874,1.874,0,0,0,2.059-1.462q.527-1.66,1.017-3.331c.341-1.17.129-1.474-1.056-1.494-1.205-.02-2.411-.01-3.616-.005-1.379.006-1.949.485-1.89,1.871A32.134,32.134,0,0,0,787.683,939.594Zm10.13-19.292a1.046,1.046,0,0,0,.324.114c3.614.012,7.229.044,10.842-.022a1.456,1.456,0,0,0,1.02-.963c.1-.667-.452-.889-1.119-.885-3.173.021-6.346,0-9.52.008C797.966,918.557,797.772,918.784,797.813,920.3Zm1.7-9c-.637,0-1.117-.038-1.588.009a20.708,20.708,0,0,0-2.318.327,13.624,13.624,0,0,1-1.6.532,24.687,24.687,0,0,1-3.252.007,4.752,4.752,0,0,1-1.208-.39c-.585-.2-1.168-.4-1.824-.625v2.266h11.794Zm-22.73,2.933c1.53,0,2.959,0,4.388,0,2.221,0,2.74-.73,2.009-2.934-1.7,0-3.413-.039-5.127.027a3.976,3.976,0,0,0-1.292.567c.03.082.06.163.089.245l-1.425.391c.03.067.062.136.091.2l1.7.178C777.036,913.458,776.93,913.784,776.783,914.237Zm8.679,17.744c.477-.731.87-1.089.945-1.505.133-.727-.436-1.047-1.038-.9a1.241,1.241,0,0,0-.783.893C784.594,930.861,785.009,931.247,785.462,931.981Zm-60.541-3.393a3.994,3.994,0,0,0,.637-.882c.037-.1-.294-.344-.457-.521a7.877,7.877,0,0,0-.7.844C724.374,928.068,724.663,928.315,724.921,928.588Z" transform="translate(-718.894 -903.192)" fill="currentColor" fill-rule="evenodd"/>
</svg>
