<svg xmlns="http://www.w3.org/2000/svg" width="203.705" height="66.374" viewBox="0 0 203.705 66.374">
  <path id="Caminho_41" data-name="Caminho 41" d="M79.08,2127.66c.105.954.446,1.88.564,2.833a6.967,6.967,0,0,1-.209,1.549,8.642,8.642,0,0,0-.057,1.182c.021.953.066,1.906.1,2.859,0,.037-.039.075-.036.111.169,1.865.336,3.73.514,5.6.044.467.148.928.184,1.394.129,1.688.222,3.379.379,5.063a1.149,1.149,0,0,0,.489.729,2.309,2.309,0,0,0,2.934-.885,2.252,2.252,0,0,1,.735-.741c1.573-1.065,3.193-2.064,4.733-3.175.639-.461,1.025-.3,1.538.128a29.023,29.023,0,0,0,2.895,2.218,1.362,1.362,0,0,0,1.247-.25c.961-.914,1.782-1.975,2.726-2.909,1.743-1.725,3.566-3.37,5.3-5.106a4.407,4.407,0,0,1,3.872-1.616c2.443.337,4.494-.591,6.473-1.919,2.267-1.52,4.628-2.9,6.926-4.372,2.008-1.286,4.237-1.364,6.5-1.3,1.9.052,3.792.081,5.687.144.254.009.715.139.724.243.1,1.174,1.07.993,1.778,1.167,1.152.284,2.311.558,3.481.741.723.114.919.515,1.118,1.146a5.52,5.52,0,0,1-1.128,5.081c-1.306,1.86-2.546,3.769-3.892,5.6-1.87,2.544-2.209,5.636-3.125,8.519-.093.293.271.888.586,1.13a19.2,19.2,0,0,0,7.439,3.255,13.712,13.712,0,0,0,4.13-.017c.284-.021.819-.766.738-.925-1.121-2.229-.089-4.257.573-6.271,1.163-3.536,2.051-7.191,4.168-10.353a1.931,1.931,0,0,1,2.384-.959,8.485,8.485,0,0,0,2.168.311c2.609.036,5.22.014,7.83.014l0-.432c-2.587,0-5.176.046-7.761-.023a15.4,15.4,0,0,1-2.854-.509.977.977,0,0,1-.521-.442c-.862-1.445-.132-4.754,1.24-5.7a1.581,1.581,0,0,1,2.608,1.11,15.339,15.339,0,0,0,.39,2.211,10.735,10.735,0,0,0,.969,1.775c-.067-1.33-.17-2.557-.177-3.783-.006-.936.4-1.582,1.476-1.557,1.739.043,3.483.012,5.213.161.434.037,1.146.624,1.17,1,.12,1.862.055,3.737.055,5.346,1.634-.029,3.566-.082,5.5-.076.366,0,.755.389,1.092.335.9-.142,1.782-.427,2.609-.639.225,3.04.406,6.438.764,9.817a24.957,24.957,0,0,0,1.025,3.615,8.7,8.7,0,0,1,.145,1.414l-.792-2.938-.148.024q.474,2.745.949,5.492c.069-.008.14-.017.21-.024q-.123-1.3-.244-2.593l.021.032-.021-.031c.335,2.551,1.725,4.926,1.269,7.248.349.307.6.422.66.6.435,1.353.827,2.72,1.239,4.079.16.529.324,1.059.517,1.576.137.367.518.772-.253.861.338.332-.221,1.277.787,1.151a9.408,9.408,0,0,0,.2,1.951c.665,2.093,1.416,4.158,2.191,6.4,4.32-2.615,8.534-5.167,12.844-7.775a71.49,71.49,0,0,1-8.479-36.144l5.261-1.03c.526,1.719.526,1.719,1.566,1.742a2.489,2.489,0,0,1,2.209-2.782,16.945,16.945,0,0,1,2.83.137c3.329.05,6.659.067,9.989.1,4.167.043,8.334.1,12.5.134,2.068.018,4.138,0,6.291,0,.1.282.2.7.371,1.089a1.244,1.244,0,0,0,2.119.4,4.945,4.945,0,0,0,.678-4.055c-.107-.2-.372-.314-.612-.507l1.358-.359c-1.42-.3-1.423-1.057-1.355-1.943.085-1.123.021-2.258.192-3.443.406,1.32.813,2.64,1.236,4.017h10.771c0,1-.016,1.958.005,2.915.022,1.049.38,1.255,1.3.785a2.582,2.582,0,0,1,.508-.272c2.214-.552,2.215-.549,2.392-2.984,1.3,0,2.624,0,3.946,0,2.1.008,4.19.07,6.283.023,3.771-.083,7.539-.26,11.31-.324a5.084,5.084,0,0,1,1.987.527c1.257.539,2.434,1.061,3.856.369a5.186,5.186,0,0,1,2.087-.109c1.782-.008,3.565-.012,5.348,0,2.438.022,3.032-.618,2.806-3.071-.183-1.983-.316-2.1-2.313-2.109-2.137-.006-4.275.027-6.41-.041a12.377,12.377,0,0,1-3.035-.433c-.9-.263-1.449.354-2.16.555a7.052,7.052,0,0,1-1.85.452c-2.964-.013-5.931-.059-8.892-.189-1.681-.074-3.354-.333-5.068-.513-.653-1.7-1.717-3.392-1.868-5.163A36.4,36.4,0,0,0,250,2110.44a1.687,1.687,0,0,0-2.174-1.45c-1.361.219-2.471.742-2.777,2.3-.159.809-.557,1.569-.727,2.378-.172.826-.678.952-1.376.919-.866-.041-1.735-.087-2.6-.05-.368.017-.728.24-1.056.207l-5.234-.291c.353.406.489.564.7.813-.894.116-1.674.358-2.361-.48-.485-.592-2.108-.27-2.731.573l-.729-.894c-1.764-.174-3.318-.338-4.875-.477-.627-.056-1.259-.075-1.889-.078-1.7-.008-3.406,0-5.109,0-.61,0-1.315.119-1.092-.647-.848-.393-1.546-.755-2.278-1.028-.2-.073-.5.109-.743.2-.73.278-1.512,1.2-2.1-.21a1.176,1.176,0,0,0-.786.106c-.914.587-1.727.7-2.375-.349-.557.262-1.172.813-1.568.686-1.133-.363-2.358.155-3.213-.1-1.036-.31-1.874.237-2.566.032a6.58,6.58,0,0,0-3.336.121c-.133.025-.37-.019-.421-.109-.838-1.473-1.3-.211-1.521.324-.272.672-.631.748-1.23.756a8.017,8.017,0,0,0-3.15.55c-1.15.481-2.643.165-3.985.16-4.274-.017-8.549-.069-12.823-.06-.92,0-1.478-.088-1.476-1.234,0-.417-.617-.852-1.005-1.222-.03-.029-.451.491-.737.558a3.864,3.864,0,0,1-1.578.074c-.27-.055-.462-.493-.729-.8-.991.846-1.939,1.341-2.907.115-.079-.1-.477-.121-.526-.046-.95,1.431-1.84.7-2.731-.055-.884.985-1.412,1-2.628.136-.154-.109-.568-.139-.628-.049-.95,1.415-1.8.553-2.689-.125a1.7,1.7,0,0,1-2.444.206c-.14-.114-.535-.015-.764.091a1.769,1.769,0,0,1-2.2-.119.9.9,0,0,0-.83.02c-.727.475-1.377.842-2.106-.018-.1-.115-.562.127-.855.122-.378-.007-.914.04-1.1-.177a4.956,4.956,0,0,1-.8-1.567c-.365-1.028-1.131-1.537-2.089-1.2a3.036,3.036,0,0,0-1.559,1.481,12.82,12.82,0,0,0-.639,2.7c-1.294,1.054-2.518,2.089-3.79,3.061a13.565,13.565,0,0,1-1.313.576,2.876,2.876,0,0,0-1.15.936,31.866,31.866,0,0,0-1.193,3.025h-8.531a5.217,5.217,0,0,0-1.059,0c-.812.17-1.488.112-1.784-.9l-.3.1q-.19,3.756-.382,7.516c-1.676.662-3.842.338-4.753-.771a6.9,6.9,0,0,0,.8-.178c.58-.2,1.288-.518.9-1.21-.223-.4-.984-.548-1.533-.7-.195-.053-.5.2-.722.361-1.149.83-2.288,1.676-3.43,2.516l-2.171-1.159c-.006-.063-.013-.128-.02-.192a3.145,3.145,0,0,0,1.073-.024,2.757,2.757,0,0,0,1.063-.771c.094-.11-.105-.7-.26-.746a1.745,1.745,0,0,0-1.15.049c-1.64.827-3.168,1.344-4.786-.18-.369-.346-1.341-.051-2.008-.051a1.661,1.661,0,0,1,2.472-.818c1.337.571,2.339.566,3.269-.769a2.382,2.382,0,0,1,2.975-.807,5.458,5.458,0,0,0,4.017.228,3,3,0,0,0,2.15-2.432H116.06c-.332.529-.519,1.217-.873,1.318a3.191,3.191,0,0,1-3.279-.326l2.064-.443-.009-.279c-.408.021-.816.072-1.223.059-1.006-.033-2.013-.086-3.018-.147-1.571-.1-3.141-.279-4.713-.3-5.455-.078-10.912-.1-16.367-.147-1.223-.01-2.447-.063-3.668-.025-.865.026-1.6.146-2.236-.786-.5-.731-2.709-.141-2.925.747-.467,1.921-1.068,3.832-.654,5.879C79.3,2126.16,79,2126.94,79.08,2127.66Zm137.983-5.56-.194-.43C216.936,2121.82,217,2121.96,217.063,2122.1Zm.234-.48h0v0c0,.01,0,.022,0,.034.475-.619.949-1.239,1.468-1.915-.519.676-.993,1.3-1.468,1.915h0c0-.011,0-.021,0-.031,0,.014,0,.026-.005.039C217.294,2121.64,217.295,2121.63,217.3,2121.62Zm.118-1.01c.067-.576.135-1.154.2-1.738Q217.514,2119.739,217.415,2120.61Zm.1,2.48h0Zm-.313-3.91c0,.2,0,.406.005.609C217.2,2119.58,217.2,2119.38,217.2,2119.18Zm.318,3.94v0Z" transform="translate(-79.02 -2108.948)" fill="currentColor" fill-rule="evenodd"/>
</svg>
