<svg xmlns="http://www.w3.org/2000/svg" width="74.456" height="80.372" viewBox="0 0 74.456 80.372">
  <path id="Caminho_49" data-name="Caminho 49" d="M509.748,144.062c-.632,4.474.986,8.945.6,13.514a25.909,25.909,0,0,1-2.222,9.382c-1.583,3.241-3.016,6.531-5.885,8.936a7.2,7.2,0,0,0-2.2,4.245,4.44,4.44,0,0,1-2.151,2.982,2.36,2.36,0,0,1-3.07-.038,2.105,2.105,0,0,0-2.771-.166,11.07,11.07,0,0,1-6.564,1.421c-2.282-.069-4.577.125-6.851-.028a28.517,28.517,0,0,1-15.284-5.731c-1.019-.753-1.946-1.636-3-2.333-2.93-1.942-4.688-4.752-6.374-7.761-2.544-4.542-3.084-9.508-2.9-14.417a28.072,28.072,0,0,1,4.319-14.207c4.488-6.993,10.822-10.1,19.137-8.989.852.114,1.715.173,2.575.2,1.34.048,3.094,1.4,3.691-1.053.334-1.377,1.673-2.5,1.043-4.121a2.074,2.074,0,0,1,.224-1.467q1.719-5.118,3.423-10.243c.724-2.185.633-2.28-1.556-2.782a5.266,5.266,0,0,1-3.345-2.223c-.477-.723-.62-1.5.548-1.67.754-.108.456-.662.6-1.028.344-.879.7-1.31,1.8-.745,1.8.923,3.733,1.571,5.48,2.617.358.215.793.41,1.077-.041.3-.484-.189-.753-.474-.98-1.014-.815-2.363-.87-3.473-1.469-.389-.209-1.216-.167-.958-.9a1.325,1.325,0,0,1,1.563-.936c1.14.278,2.336.283,3.441.59,3.173.88,6.537.975,9.612,2.069a56.8,56.8,0,0,1,9.114,4.084c1.01.575,1.125,1.625,1.289,2.632.152.932.485,1.1,1.284.463a7.14,7.14,0,0,1,6.824-1.2,7.8,7.8,0,0,1,5.123,3.674,13.7,13.7,0,0,1,1.987,8.441c-.445,3.884-1.7,7.405-4.652,10.135-2.734,2.53-5.983,2.83-9.34,1.784-1.419-.441-1.646.107-1.67,1.162C509.714,139.9,509.748,141.93,509.748,144.062Zm13.444-21.273a10.631,10.631,0,0,0-2.01-6.717,6.169,6.169,0,0,0-6.206-2.278c-2.563.755-4.95,2.944-4.718,5.563.314,3.537-.311,7.081-.352,10.63-.008.684.154,1.4-.434,2.015-.365.379.078.722.281,1.061,2,3.319,6.868,2.91,8.965.977C521.891,131.115,523.073,127.427,523.192,122.789Zm-51.933,16.4c-.121.438-.511.5-.774.708-.649.52-.657,2.6-.145,2.511,1.128-.194,1.52.794,2.286,1.119,1.086.46,2.356.581,3.226,1.061a6.417,6.417,0,0,0,3.617,1.128c1.059-.128,2.508,1.3,3.261-.547.918.676,1.2-1.348,2.231-.5a1,1,0,0,0,1.632-.444,1.282,1.282,0,0,0-.7-1.636,28.33,28.33,0,0,0-4.132-1.64c-1.478-.627-3.132-.885-4.527-1.64-1.5-.813-2.744-1.121-3.968.408-.407-1.992-1.25-2.164-3.394-.823C470.269,139.233,470.784,138.727,471.259,139.188Zm28.847-.816a29.659,29.659,0,0,0-1.031-6.4,1.553,1.553,0,0,0-1.41-1.174c-.819-.081-.955.568-1.12,1.165-.323,1.165-.673,2.322-.979,3.491-.16.608-.2,1.231.522,1.55a22.266,22.266,0,0,1,3.32,1.8C499.893,139.121,500.167,138.974,500.106,138.372Zm-43.07,17.879c.709,1.187,1.926,1.388,2.915,1.933,1.63.9,3.284,1.756,4.9,2.681.757.435.823-.181,1.177-.551.375-.391.47-.57,0-.911C463.384,157.493,460.858,155.286,457.036,156.251Z" transform="translate(-451.043 -103.998)" fill="currentColor" fill-rule="evenodd"/>
</svg>
