<svg xmlns="http://www.w3.org/2000/svg" width="203.215" height="97.813" viewBox="0 0 203.215 97.813">
  <path id="Caminho_24" data-name="Caminho 24" d="M207.74,1534.58c-.2,6.857-1.067,13.765,1.527,20.422.144.367-.111.913-.24,1.359-.151.523-.6,1.07-.519,1.535q1.683,9.39,3.514,18.752a6.714,6.714,0,0,0,1.043,2.423c1.408,2.054.558,3.514-1.563,3.871-3.764.634-7.5,1.415-11.257,2.1a1.652,1.652,0,0,1-.985-.231,4.076,4.076,0,0,1-1.889-3.186c-1.527-7.86-3.121-15.708-4.645-23.568-.164-.85-.468-1.193-1.335-1.267a1.993,1.993,0,0,1-2.112-2.144c0-.984-.153-1.968-.225-2.952a55.1,55.1,0,0,1,1.751-19.181,4.176,4.176,0,0,0-4-5.406c-8.62.189-17.246.128-25.87.1-4.4-.017-4.426-.083-4.4-4.476.005-.994-.3-1.421-1.283-1.307-1,.117-1.333-.313-1.249-1.307.086-1.029-.1-2.087.038-3.106.2-1.5-.412-1.807-1.8-1.786-8.76.128-17.521.185-26.282.238q-14.626.09-29.254.115c-1.2,0-1.672.277-1.764,1.633-.325,4.787-.691,9.582-1.342,14.333-.454,3.3-1.573,6.514-2.075,9.815-.428,2.813-2.562,4.117-5.462,4.229-2.945.113-2.948,0-3.014-3-.008-.376-.034-.753-.067-1.129-.713-8.112-1.483-16.221-2.107-24.34a44.186,44.186,0,0,1,.208-6.611,1.565,1.565,0,0,1,1.773-1.608c3.012.166,6.026.313,9.04.461,1.634.079,3.216.213,3.078,2.14h61.182c.225-1.217.376-2.034.541-2.925a15.2,15.2,0,0,1-2.352-.032c-.379-.065-.989-.45-1-.715-.089-1.807-.046-3.619-.046-5.614,1.339.323,2.64-.3,3.17,1.24a.55.55,0,0,0,.434.278c1.23-.049,2.531.318,3.5-.934a3.684,3.684,0,0,1,2.688-1.75,1.372,1.372,0,0,0,1.443-1.585c-.146-1.976,0-1.99,2.025-2.01,2.26-.021,4.612.484,6.482-1.189.061-.419.033-1.147.193-1.191,1.181-.323.825-1.242.831-1.974.007-.839.194-2.153-.235-2.434-1.524-.992-.474-2.264-.821-3.416h2.017v6.32h2.132c.412,1.782-.171,2.853-1.973,3.268a9.024,9.024,0,0,0,2.372.451c1.876.076,2.167.365,2.114,2.275-.01.32,0,.641,0,.942.473.148,1.057.151,1.214.411.626,1.037,1.13.733,1.907.15a1.63,1.63,0,0,1,1.589.061c.594.59.987.557,1.551.088a1.351,1.351,0,0,1,2.088.014c.213.211.857-.005,1.3-.041.643-.053,1.59-.411,1.865-.122.613.642.975.506,1.532.085.887-.669,1.538-.283,2.453.212.624.339,1.79-.335,2.719-.529.07-.015.17.242.283.274a2.726,2.726,0,0,0,.929.167c1.8-.135,3.6-.334,5.4-.43.259-.014.541.416.821.647.42-.188.85-.552,1.268-.539a32.948,32.948,0,0,1,4.683.04c1.56.29,2.985-.354,4.567.062,1.546.406,3.332-.106,5.014-.208a5.616,5.616,0,0,1,.562.04c1.585.069,3.17.192,4.754.187,1.607-.007,3.214-.161,4.822-.214,1.144-.037,2.289-.022,3.434-.016a50.837,50.837,0,0,1,5.212.094c1.526.169,2.761-.8,4.194-.775.849.015,1.206-.267,1.2-1.128-.006-1.011.591-1.4,1.564-1.358,1.178.049,2.359.021,3.536.079.815.039,1.07-.323,1.063-1.093-.02-1.907.021-3.815.02-5.724,0-1.017-.138-2.1,1.49-1.748.149.032.347-.268.549-.339.55-.195,1.115-.352,1.813-.564v9.268c.834,0,1.865-.059,2.887.012,2.244.153,2.492.43,2.4,2.631a25.293,25.293,0,0,1-.4,2.563,25.945,25.945,0,0,0,4.444,1.35,2.661,2.661,0,0,1,2.479,1.688c.232.566.547,1.1.759,1.673a1.793,1.793,0,0,0,2.086,1.411,1.606,1.606,0,0,1,1.329.834,3,3,0,0,1-.525,1.751c-.144.266-.6.36-.933.54a5.5,5.5,0,0,1,.2.9c.054,1.32.692,1.632,1.995,1.569,3.283-.157,6.575-.136,9.863-.137,2.011,0,2.511.59,2.353,2.58-.119,1.5-1.141,2.053-3.12,2.008-2.676-.061-5.355.121-8.03.058-1.36-.031-1.843.333-1.4,1.684.066.2-.14.5-.221.749a7.579,7.579,0,0,0-.625,2.043c-.022,1.934-.391,2.275-2.3,2.061-1.183-.134-1.482-1.005-1.892-1.852-.9-1.857-1.912-2.264-3.794-1.336a9.629,9.629,0,0,0-2.092,1.638,1.244,1.244,0,0,0-.22.87c.031.74.227,1.482.191,2.215-.436,9.183-.922,18.362-1.334,27.545-.055,1.228-.523,1.5-1.575,1.178-2.521-.767-5.044-1.531-7.562-2.311-1.011-.313-1.844-.76-1.5-2.088.055-.212-.123-.685-.265-.716-1.189-.266-.682-1.278-.746-1.89a10.75,10.75,0,0,1,.193-3.36c.147-.677-.444-1.763,1-2.025.551-.1.518-1.011-.181-1.565a2.072,2.072,0,0,1-.734-1.434c.042-2.826.139-5.653.329-8.473.176-2.608.472-5.209.752-7.81.166-1.547-.139-1.962-1.712-1.958-5.089.016-10.178.06-15.267.082-2.308.011-3.139.581-3.873,2.763-.542,1.609-1.059,3.226-1.579,4.842-.88,2.729-1.741,3.212-4.655,3.274-3.133.066-6.264.343-9.389.607-1.514.128-3.013.439-4.561.674A.384.384,0,0,0,207.74,1534.58Zm7.543-4.12a22.283,22.283,0,0,1-3.356-3.111c-.512-.554-.7-1.747-1.674-1.2a2.777,2.777,0,0,0-.993,2.048c-.108,2.466,1.378,3.878,3.88,3.883,2.778.005,5.558-.042,8.335,0a2.551,2.551,0,0,0,2.7-1.835c.53-1.511,1.024-3.038,1.454-4.58.479-1.718-.13-2.473-1.924-2.448-2.919.038-5.837.143-8.756.146-.9,0-1.1.347-1.145,1.168a3.516,3.516,0,0,0,1.826,3.673c.7.376,1.359.833,2.188,1.346C216.912,1530.08,216.2,1531.11,215.283,1530.46Zm-18.71-12.84h2.711c-.032-.514-.059-.946-.088-1.409C196.344,1516.18,196.344,1516.18,196.573,1517.62Z" transform="translate(-80.805 -1487.244)" fill="currentColor" fill-rule="evenodd"/>
</svg>
