<svg xmlns="http://www.w3.org/2000/svg" width="183.432" height="74.306" viewBox="0 0 183.432 74.306">
  <path id="Caminho_38" data-name="Caminho 38" d="M587.684,1909.33c-.3-.75-.429-.837-1.217-.837q-6.98,0-13.958.008a.767.767,0,0,1-.775-.4.713.713,0,0,0-.475-.291c-1.331-.181-2.662-.412-4-.478-1.681-.082-3.368-.014-5.053-.021-1.466-.006-2.934-.073-4.4-.02a2.042,2.042,0,0,1-1.614-.688,2.451,2.451,0,0,0-1.781-.729c-.7-.015-1.4,0-2.163,0,0-.494,0-.953,0-1.412,0-.436-.128-.758-.646-.656s-.587-.264-.675-.615a1.288,1.288,0,0,1-.005-.249c-.014-.5.1-.994-.437-1.394-.349-.262-.5-.775-.782-1.141a.823.823,0,0,0-.537-.311c-1.3-.027-2.6-.024-3.9,0a1.275,1.275,0,0,0-.639.216,22.145,22.145,0,0,1-2.49,1.646,18.233,18.233,0,0,1-3.284,1.107,25.336,25.336,0,0,0-2.791.471,8.749,8.749,0,0,1-3.306.252c-10.789.024-21.579.011-32.37.019-1.928,0-3.855.069-5.784.077-1.311.006-2.623-.053-3.935-.057-.96,0-1.921.067-2.882.065-1.362-.005-2.724-.052-4.085-.067-1.042-.012-2.085,0-3.128,0,0,.068,0,.137-.006.2.513.025,1.025.049,1.539.072a4.943,4.943,0,0,1-2.437-.125,2.221,2.221,0,0,0-.978-.146c-1.28-.016-2.562-.008-3.843,0a.664.664,0,0,0-.325.08c-.14.082-.261.292-.385.287a14.943,14.943,0,0,1-1.617-.163,6.41,6.41,0,0,0-.8-.212c-3.018-.018-6.037-.05-9.054.018-.573.014-1.136-.019-1.7-.022-4.318-.02-8.639-.01-12.957-.01H447.5c-.046-.077-.073-.1-.075-.135-.053-.78-.053-.774-.853-.894-.285-.041-.65.069-.768-.368-.016-.058-.2-.083-.317-.1-1.643-.246-3.288-.476-4.927-.738-.54-.087-1.068-.255-1.6-.389-1.467-.369-2.942-.71-4.395-1.127-.748-.214-1.452-.574-2.181-.853q-3.982-1.516-7.972-3.015a1.709,1.709,0,0,0-.583-.089q-4.128-.01-8.256-.005a.986.986,0,0,0-1.021,1.02c0,1.915,0,3.831,0,5.871l-2.7-.62c.124.4.245.7.309,1.019a4.143,4.143,0,0,1-.68,2.681c-.283.579-.687,1.1-.971,1.679a1.548,1.548,0,0,0-.133.915c.172.869-.329,1.361-.891,1.869-.968.879-1.91,1.786-2.864,2.68-.532.5-1.044,1.021-1.6,1.484a.959.959,0,0,0-.281,1.157,3.267,3.267,0,0,0,1.24,1.743,1.7,1.7,0,0,0,2.147-.139c.6-.563,1.218-1.106,1.933-1.755a9.908,9.908,0,0,1-.008,1.132c-.048.375.125.536.442.65.8.29,1.588.586,2.373.9.148.06.352.209.366.338.075.595.467.8.975.9a6.841,6.841,0,0,1,.671.223,7.624,7.624,0,0,1-1.163-2.074l.168-.088c.313.555.642,1.1.935,1.663a1.4,1.4,0,0,0,1.343.858l-.009-.013c1.075.37,2.15.748,3.229,1.112.627.212,1.259.408,2.019.652l-.256-.338c.839-.554,1.844-.375,2.8-.6-.9-1.1-1.775-2.169-2.649-3.234.034-.034.069-.066.1-.1a2.194,2.194,0,0,1,.206.192c.721.872,1.449,1.739,2.151,2.627a.983.983,0,0,0,1.164.416.991.991,0,0,1,.594.035l-.719.581c.567.5,1.113.979,1.658,1.46l-.09.1-1.729-1.464c-.379.281-.766.566-1.259.93.38.144.619.245.864.324,2.906.938,5.82,1.855,8.717,2.82a2.339,2.339,0,0,0,2.156,0,14.519,14.519,0,0,1,2.37-.884c-.556.677-1.012,1.232-1.529,1.863.831.247,1.567.48,2.311.688.575.16,1.181.232,1.735.441a10.267,10.267,0,0,0,4.916.168c.2-.021.395-.056.594-.061a2.256,2.256,0,0,0,2.069-1.266c.18-.329.509-.575.715-.9a1.989,1.989,0,0,1,1.631-.952c.821-.07,1.634-.257,2.569-.414-.429.645-.8,1.2-1.169,1.762.024.039.048.081.071.122q1.762-.914,3.524-1.83l.042.037a1.59,1.59,0,0,1-.258.217q-1.637.861-3.275,1.712c-.146.077-.372.125-.421.243-.257.631-.848.684-1.371.851-1.058.341-2.122.665-3.185.992-.09.027-.187.033-.355.063.14-.2.235-.347.387-.569l-3.873.413c-.008.031-.015.063-.021.093.714.129,1.425.314,2.146.375a5.29,5.29,0,0,1,2.283.59c1.247.723,2.351,2.914,1.42,4.279a2.659,2.659,0,0,0-.171.438c1.275-.371,2.473-.694,3.652-1.073.825-.265,1.63-.6,2.437-.918.433-.171.842-.4,1.276-.563a1.451,1.451,0,0,1,.517-.022c.008-.005.019-.009.026-.013l.013.013h-.039c-1.169.528-2.315,1.124-3.517,1.565-1.307.479-2.663.828-4.007,1.2-.565.156-.876.487-1.017,1.332l4.564-1.117c.012.041.021.081.033.12-1.08.292-2.157.593-3.241.87-.4.1-.825.125-1.222.239a.8.8,0,0,0-.463.375c-.68,1.436-1.3,2.9-2.006,4.32-.505,1.005-1.115,1.959-1.7,2.922-1.157,1.9-2.331,3.794-3.5,5.69-.505.82-.981,1.659-1.519,2.457a3.028,3.028,0,0,0-.389,1.861c.021,1.282.087,2.568.022,3.847a7.583,7.583,0,0,1-.534,1.745h1.891c-1.533,3.832-3.02,7.546-4.545,11.36h2.27q8.355,0,16.711-.007a.846.846,0,0,0,.585-.166,11.478,11.478,0,0,0,1.647-2.278c.906-2.029,1.656-4.129,2.475-6.2a24.872,24.872,0,0,1,.993-2.387,1.6,1.6,0,0,1,1.27-.852,5.539,5.539,0,0,1,1.1,0,1.034,1.034,0,0,0,1.1-.679c.38-.867.682-1.768,1-2.66.029-.082-.039-.214-.089-.309a2.957,2.957,0,0,0-.359-.593c-.683-.777-.473-1.521-.083-2.377,1.09-2.383,2.1-4.807,3.125-7.217.782-1.829,1.505-3.688,2.348-5.488a2.006,2.006,0,0,1,1.8-1.074,15.5,15.5,0,0,1,1.912.169,4.458,4.458,0,0,0,.448.019q3.779,0,7.555,0a6.392,6.392,0,0,0,3.737-1.03,4.932,4.932,0,0,0,1.436-1.688,9.385,9.385,0,0,0,1.042-2.721,5.657,5.657,0,0,1,2.415-3.68c.4-.292.821-.559,1.248-.811a1.011,1.011,0,0,0,.489-1.25c.7-.093,1.352-.166,2-.268.613-.1,1.221-.263,1.837-.313.221-.019.446-.141.744.018.264.14.7-.05,1.063-.1.637-.084,1.274-.16,1.907-.266.135-.022.25-.156.4-.254.608.324,1.27.045,1.915-.029,2.754-.313,5.5-.664,8.255-1a1.484,1.484,0,0,1,.3.035c.11,1.071.2,2.14.334,3.2.309,2.448.635,4.894.964,7.34.071.531.368.718.909.64,1.742-.252,3.484-.51,5.229-.742a.825.825,0,0,0,.781-.582,8.023,8.023,0,0,1,1.814-3.117,16.634,16.634,0,0,1,2.359-1.955,20.052,20.052,0,0,1,5.479-2.7,30.906,30.906,0,0,1,5.874-1.305c2.236-.281,4.51-.275,6.769-.391,2.092-.107,4.184-.254,6.277-.3a35.663,35.663,0,0,1,3.937.16,2.4,2.4,0,0,0,2.406-2.435c-.01-1.518,0-3.036,0-4.553v-.622a11.264,11.264,0,0,1,1.354.009,2.33,2.33,0,0,0,1.969-.771,2.164,2.164,0,0,1,1.643-.648c3.385.029,6.771.058,10.155-.012a17.454,17.454,0,0,0,3.389-.552c.273-.062.524-.435.69-.719a.622.622,0,0,1,.627-.353q6.751-.018,13.5-.058c1.249-.005,1.383-.06,1.738-1.244A5.69,5.69,0,0,0,587.684,1909.33Zm-102.162,25.18a3.057,3.057,0,0,1-2.242,2.381,11.261,11.261,0,0,1-2.1.367c-2.584.045-5.167.035-7.751.008-.794-.01-1.611-.153-1.862-1.089a3.8,3.8,0,0,1-.138-1.516,7.9,7.9,0,0,1,.576-1.672,6.713,6.713,0,0,1,2.951-3.626,3.454,3.454,0,0,1,1.912-.281c-.149.279-.261.5-.381.713a5.283,5.283,0,0,0-.254,5,3.686,3.686,0,0,0,3.592,2.291,2.46,2.46,0,0,0,.646-.243c-.014-.057-.026-.113-.04-.17a1.422,1.422,0,0,0-.3-.118,3.227,3.227,0,0,1-2.66-2.333,4.387,4.387,0,0,1,.717-4.283c.268-.37.469-.9,1.11-.888,1.482.023,2.967,0,4.45.014a.9.9,0,0,1,.606.161,8.293,8.293,0,0,1,1.179,1.629A4.858,4.858,0,0,1,485.522,1934.51Zm3.1-16.97a.112.112,0,0,0-.086-.141A.108.108,0,0,1,488.626,1917.54Zm-.063.13q-.18.175-.356.351c.117-.111.236-.231.356-.351a.477.477,0,0,0,.052-.11.372.372,0,0,1-.052.108,2.789,2.789,0,0,1,.378-.248A3.506,3.506,0,0,0,488.563,1917.67Zm.718,1.49q-.246.179-.494.354c.165-.114.33-.234.494-.354h0c.029.155.06.312.09.468C489.343,1919.47,489.313,1919.31,489.281,1919.16Zm1.384-.49c-.174.186-.335.387-.515.565.18-.175.342-.375.515-.565Zm8.631.08c.16-.1.276-.176.394-.25l.243-.31-.242.31h0C499.573,1918.57,499.457,1918.65,499.3,1918.75Zm1.593-.86q.164-.214.325-.43c-.108.14-.215.29-.325.43Zm.541.91,0,0h0l-.349.761C501.207,1919.29,501.32,1919.05,501.43,1918.8Zm2.488-.7h0s0,0,0,0Z" transform="translate(-404.653 -1896.082)" fill="currentColor"/>
</svg>
