<svg xmlns="http://www.w3.org/2000/svg" width="215.711" height="52.711" viewBox="0 0 215.711 52.711">
  <path id="Caminho_39" data-name="Caminho 39" d="M704.029,1913.26v2.636c.112,1.992.163,3.991.354,5.977.185,1.905.514,3.8.788,5.692a1.066,1.066,0,0,0,.2.613c.265.232.615.526.919.513s.828-.368.834-.586c.043-1.386.924-1.938,2.034-2.446,2.188-1,4.329-2.1,6.747-3.283.081,1.2.151,2.262.226,3.363a2.466,2.466,0,0,0,2.193-.432c.981-.773,2.123-1.339,3.15-2.059.926-.649,1.79-1.385,2.82-2.193.114.565.192.949.285,1.408h2.359c.015-.019.064-.061.071-.108.223-1.454.222-1.455,1.719-1.46.906,0,1.813-.026,2.717.012.574.025.827-.2.782-.754-.1-1.159-.2-2.316-.313-3.568.537-.036,1.076-.1,1.615-.1,1.426,0,2.854.055,4.28.03a1.779,1.779,0,0,0,1.014-.379,2.576,2.576,0,0,1,1.806-.6c1.728.053,3.463-.025,5.187.082a4.485,4.485,0,0,0,2.543-.969,3.913,3.913,0,0,1,1.584-.517c1.891-.1,3.785-.13,5.678-.128a3.4,3.4,0,0,1,1.077.406c.264.1.539.309.794.286.79-.067.984.361,1.027,1.021.081,1.2.187,2.4.3,3.828.642-.22,1.16-.375,1.663-.571a3.608,3.608,0,0,1,4.348,2.063,4.439,4.439,0,0,1-.357,3.93c-3.354,5.757-6.639,11.557-9.946,17.343-.038.068-.057.148-.145.379a11.179,11.179,0,0,0,2.108.949c2.89.644,5.8,1.211,8.7,1.753a1.238,1.238,0,0,0,1-.389c.142-.182.009-.686-.146-.967a2.634,2.634,0,0,1,.5-2.684,8.944,8.944,0,0,0,.57-1.033c.242-.406.524-.791.765-1.2a5.327,5.327,0,0,0,.673-1.286c.4-1.543.953-2.9,2.849-3.072a1.426,1.426,0,0,0-.1-.443c-1.065-1.633.291-2.744.886-3.992.454-.948,1.427-1.039,2.341-1.063,3.263-.086,6.527-.128,9.791-.214,1.991-.051,2.037-.078,2.241,1.892a76.406,76.406,0,0,0,3.892,16.94c.088.255.194.5.352.907,1.886-.538,3.748-1.063,5.607-1.6,2.212-.641,4.415-1.311,6.634-1.923.6-.165.709-.363.521-.97-1-3.216-2.127-6.406-2.854-9.686-.562-2.545-.577-5.209-.894-7.813-.058-.482.112-.555.47-.623.667-.129.651-.493.514-1.091a16.424,16.424,0,0,1-.3-2.78c-.008-.145.314-.307.513-.486-.5-.732-.168-1.482-.072-2.258a6.788,6.788,0,0,0-.326-1.843c.423-.176,1.063-.441,1.621-.675.133-.6.272-1.23.432-1.951l-.482-.426,1.53-.08c.068.71.136,1.4.2,2.11,1.827.116,3.586.256,5.347.324.577.021,1.161-.21,1.743-.217,1.722-.017,3.442.041,5.162.034,1.557-.007,3.112-.078,4.669-.086,1.322-.006,2.647.076,3.969.049,1.153-.025,2.3-.2,3.455-.217,1.391-.014,2.783.094,4.175.109.455.005.908-.148,1.366-.161q1.774-.053,3.551-.042c.59,0,.92-.2,1-.827a.967.967,0,0,1,.406-.641,1.986,1.986,0,0,0,1.056-1.737c.018-.212.292-.405.448-.607a3.208,3.208,0,0,1,.437.632c.075.193-.054.485.048.643a1.412,1.412,0,0,0,.7.638c.194.04.521-.271.693-.5.157-.207.117-.573.285-.757.248-.271.6-.614.915-.63,1.4-.068,2.794-.03,4.266-.03a2.632,2.632,0,0,0-.135.437c-.152,1.435.032,1.645,1.479,1.678.55.012,1.1,0,1.647.008.729.016,1.082-.28.95-1.052a8.3,8.3,0,0,1-.053-.99c.289-.032.547-.077.808-.087,2-.062,4-.109,6-.174,1.7-.053,3.391-.186,5.086-.168,4,.044,8,.147,11.993.253a5.454,5.454,0,0,1,1.2.31c0,.109,0,.217,0,.324l-1.389.285v1.422c.691.048,1.366.136,2.04.137,13.34.012,26.682-.008,40.021.047a2.658,2.658,0,0,0,2.449-2.753,17.982,17.982,0,0,0-.392-4.4,2.035,2.035,0,0,0-2.312-1.741H878.556c-1.177,0-1.5.127-1.752,1.258-.219.987-.874,1.106-1.6,1.115-2.027.024-4.057-.031-6.084-.037a22.691,22.691,0,0,0-4.027.083,33.326,33.326,0,0,1-6.292.03c-2.438-.021-4.879-.058-7.317-.092-.328-.005-.658-.041-.985-.055-.542-.021-.709-.266-.721-.835q-.074-3.866-.27-7.73a4.176,4.176,0,0,0-.4-1.965,1.89,1.89,0,0,0-3.038-.029c-1.17,1.622-2.372,3.221-3.555,4.833-1.221,1.66-2.62,3.259-1.8,5.655l-.375.094c-.173-.192-.473-.368-.5-.578-.115-.911-.266-1.751-1.345-2a.3.3,0,0,1-.179-.157c-.359-1.064-1.233-.973-2.089-.951a16.63,16.63,0,0,1-1.841,0c-1.162-.1-2.386.228-3.462-.059-1.174-.31-2.3.386-3.456-.179-.427-.207-1.117.207-1.682.19-1.153-.037-2.3-.214-3.455-.257-.645-.022-1.3.179-1.941.157-1.072-.036-2.14-.195-3.211-.249-.331-.018-.673.21-1.007.2-1.962-.039-3.927.053-5.885-.088a18.374,18.374,0,0,0-2.1-.066,3.628,3.628,0,0,0-2.223.657c-.283.217-.877.121-1.3.038-.624-.121-.879.064-.859.689.017.5,0,1,0,1.5-.081,0-.162,0-.242-.006a36.151,36.151,0,0,1,.025-3.979c.3-2.7-2.146-4.419-4.151-4.614q-11.056-1.078-22.112-2.183c-1.719-.171-3.434-.4-5.155-.523a2.077,2.077,0,0,0-1.358.343,8.15,8.15,0,0,0-1.708,1.859c-1.463,2.287-2.861,4.616-4.25,6.949-.358.6-.688,1.046-1.468.659a1.826,1.826,0,0,0-.653-.011l.588.373c-.017.076-.032.148-.048.225-.644-.043-1.287-.084-1.935-.126l.6.595c-1.535.173-3.067-.223-4.384.631.491.223,1,.449,1.505.678-.005.05-.009.1-.014.148-.5,0-1.111.188-1.472-.035-1.13-.693-2.24.058-3.373-.064l1.275.653a9.478,9.478,0,0,0-5.431-.714c.015.063.044.195.077.348-1.813-.734-3.646-.358-5.469-.313-1.249.032-2.5-.093-3.752-.117a7.179,7.179,0,0,0-1.112.162c-1.369-1.147-3.119-.743-4.8-.729l.813.18c-.008.063-.015.128-.022.191q-1.68-.285-3.358-.572l-.051.206c.158.05.317.1.624.194-.3.032-.473.107-.6.057-1.644-.658-3.355-.28-5.031-.306-3.533-.057-7.067-.008-10.6.011-.7.005-1.181-.138-1.4-.942a1.344,1.344,0,0,0-1.028-.715c-2.662-.066-5.325-.057-7.986-.048a1.4,1.4,0,0,0-1.494,1.169c-.272,1.5-.454,3.022-.659,4.537C704.122,1912.13,704.084,1912.7,704.029,1913.26Zm121.507-6.04c.015.039.032.065.053.067C825.568,1907.29,825.55,1907.26,825.536,1907.22Zm-.137-.24-.674.189c.24-.069.457-.129.674-.189h0l.027.014h0l.031-.005h0c.01.027.019.058.028.089-.01-.031-.019-.062-.028-.089l-.031.005A.078.078,0,0,1,825.4,1906.98Zm-26.219-.81c.257.049.506.172.3.583,0,0,0,0,0,0h0c-1.2.523-2.087-.3-3.092-.655,1.005.353,1.9,1.177,3.092.655C799.682,1906.34,799.434,1906.21,799.18,1906.17Zm-3.983,4.59a.006.006,0,0,1-.005,0h.026C795.21,1910.75,795.2,1910.75,795.2,1910.76Zm-.039,0a3.58,3.58,0,0,0-.815.168A3.034,3.034,0,0,1,795.158,1910.76Zm.187-1.89h0l0,.005c-.861-.429-1.682-1.091-2.8-.49C793.667,1907.79,794.487,1908.45,795.345,1908.87Zm5.534-1.75a1.253,1.253,0,0,0-1.378-.375h0A1.255,1.255,0,0,1,800.879,1907.12Zm.193.26a0,0,0,0,1,0,.005C801.075,1907.38,801.074,1907.38,801.072,1907.38Zm-.148-.2.056.066A.628.628,0,0,0,800.924,1907.18Zm-8.119,3.76c.05.027.1.051.148.071A1.236,1.236,0,0,1,792.8,1910.94Zm.43.15a.119.119,0,0,0,.018,0A.029.029,0,0,0,793.235,1911.09Zm-.276-.07a1.268,1.268,0,0,0,.144.046A1.406,1.406,0,0,0,792.959,1911.02Zm-17.807,12.68a3.256,3.256,0,0,1,2.684-1.805,3.1,3.1,0,0,0-.868,3.165,3.657,3.657,0,0,0,2.256,2.243,1.8,1.8,0,0,0-.2-.328,2.771,2.771,0,0,1-.62-3.382c.643-1.311,1.576-2.232,3.227-1.844a1.771,1.771,0,0,0,.328.013,3.136,3.136,0,0,1,3.066,3.527,26.81,26.81,0,0,1-.716,2.878.5.5,0,0,1-.149.055c-1.973.009-3.95-.066-5.916.048a3.138,3.138,0,0,1-2.835-1.463A2.839,2.839,0,0,1,775.152,1923.7Zm-1.818-18.65a4.687,4.687,0,0,1,.487-1.453c.76-2.264,1.726-2.961,4.085-2.977q10.824-.063,21.65-.163a2.347,2.347,0,0,1,2.461,2.116c.057,1.818-.931,3.1-2.423,3.1q-6.3.014-12.593,0v.026c-2.3,0-4.61,0-6.914,0-2,0-4.007,0-6.011-.029C773.728,1905.67,773.3,1905.8,773.334,1905.05Z" transform="translate(-704.029 -1896.081)" fill="currentColor" fill-rule="evenodd"/>
</svg>
