<svg xmlns="http://www.w3.org/2000/svg" width="162.336" height="77.024" viewBox="0 0 162.336 77.024">
  <path id="Caminho_25" data-name="Caminho 25" d="M553.876,1500.74a10.072,10.072,0,0,1,1.411.858,1.423,1.423,0,0,0,.983.351.794.794,0,0,1,.925.614c.079.348.276.422.619.44.646.035.877.217,1.037.788a17.082,17.082,0,0,0,.585,1.688c.055.138.237.23.371.331s.394.179.406.288a2.281,2.281,0,0,1-.118.713c-.027.121-.127.26-.091.35a.422.422,0,0,0,.3.214,6.584,6.584,0,0,0,1,0,.557.557,0,0,0,.35-.178,1.1,1.1,0,0,1,1.677-.05c.257.317.415.291.688.04a1.236,1.236,0,0,1,1.7.035.718.718,0,0,0,.459.156c.872.015,1.745.021,2.617,0a.944.944,0,0,1,1.018.645,7.356,7.356,0,0,1-.15,5.5,1.236,1.236,0,0,1-1.3.863c-1.584-.033-3.17-.008-4.756-.007-.635,0-.891.378-.662.976.14.365.275.732.417,1.1.193.495.1.734-.423.869-.281.072-.362.227-.308.466.118.521.237,1.044.4,1.554.38,1.2.792,2.4,1.168,3.6a.493.493,0,0,1-.128.447,10.262,10.262,0,0,1-1.1.405c-.282.1-.419-.03-.532-.278-.377-.816-.75-1.637-1.163-2.436-.321-.622-.5-1.362-1.161-1.746a13.028,13.028,0,0,0-1.635-.8,1.549,1.549,0,0,0-.813-.047c-.972.171-1.929.452-2.906.552a2.063,2.063,0,0,0-1.644,1.233c-.188.326-.353.667-.508,1.011a1.972,1.972,0,0,0-.085,1.659c.713,1.792,1.454,3.584,1.986,5.433.951,3.3,1.839,6.628,2.6,9.979.62,2.725,1.023,5.5,1.514,8.253.12.678.106.7-.567.832q-2.82.547-5.646,1.063a21.483,21.483,0,0,1-4.443.517c-.354-.011-.505-.09-.571-.453-.405-2.212-.911-4.407-1.236-6.63-.458-3.121-.878-6.253-1.143-9.394-.21-2.513-.163-5.048-.23-7.573-.012-.42-.015-.842-.043-1.262a.491.491,0,0,0-.149-.33c-.689-.505-1.378-1.016-2.095-1.479a1.943,1.943,0,0,0-1.584-.266c-.35.088-.721.091-1.072.173a1.437,1.437,0,0,0-.61.277c-1.625,1.45-3.263,2.888-4.842,4.385a4.419,4.419,0,0,1-3.063,1.52c-1.933.009-3.866.022-5.8.059a4.612,4.612,0,0,1-3.069-.7,3.851,3.851,0,0,0-.369-.23c-.3-.181-.543-.183-.669.211-.328,1.021-.653,2.044-.995,3.061a27.31,27.31,0,0,0-1.5,9.668c.087,2.613.071,5.23.1,7.845,0,.1.015.2.023.3.06.718-.014.811-.734.944-.094.018-.186.051-.3.081v24.456c0,.623-.1.77-.74.819-.938.074-1.88.118-2.821.139-1.073.023-2.146.01-3.22.005-1.1-.006-2.211.028-3.31-.049-.859-.062-1.3-.412-1.294-1.317q.031-11.761.012-23.522v-.6c-.2,0-.358.006-.514,0-1.045-.04-2.088-.079-3.131-.125a.5.5,0,0,1-.546-.573c-.018-2.4-.033-4.8-.088-7.191a17.084,17.084,0,0,1,.816-5.137c.743-2.58,1.494-5.158,2.278-7.725a9.505,9.505,0,0,0,.426-5.164,2.852,2.852,0,0,0-2.282-2.082c-1.343-.121-2.687-.22-4.03-.314q-5.337-.374-10.672-.736c-1.907-.133-3.813-.318-5.723-.392a1.42,1.42,0,0,1-1.459-.978,6.8,6.8,0,0,1-.31-.94c-.092-.416-.134-.841-.2-1.288h-.563q-12.153.019-24.3.035-12.591.009-25.181,0c-.246,0-.492.022-.738.043-1.313.108-2.626.264-3.943.316a5.064,5.064,0,0,0-3.768,1.693,6.365,6.365,0,0,1-2.354,1.83,2.641,2.641,0,0,0-1.472,3.713,1.77,1.77,0,0,1,.021,1.672,1.862,1.862,0,0,0-.155.451q-1.956,7.208-3.9,14.419c-.388,1.442-.722,2.9-1.1,4.346a1.027,1.027,0,0,1-.816.821,11.1,11.1,0,0,1-1.809.173c-.738,0-1.476-.107-2.214-.149-.614-.035-.793-.177-.793-.8,0-.521.089-1.041.091-1.561,0-.311.288-.727-.244-.91-.032-.011-.043-.135-.035-.2.056-.5.118-1,.162-1.363.187-.24.37-.37.394-.525.073-.481.086-.973.118-1.407-.138-.107-.325-.21-.313-.252.167-.546-.277-1.262.444-1.655a.136.136,0,0,0,.057-.11c-.141-.617.491-1.305-.169-1.874a.1.1,0,0,1-.016-.082c.208-.52-.247-1.22.44-1.613.042-.024.045-.132.052-.2.046-.475.089-.949.13-1.426.005-.055,0-.155-.02-.16-.5-.134-.264-.522-.233-.785.042-.365-.159-.857.4-1.039.037-.012.05-.129.056-.2.048-.519.09-1.037.13-1.51-.12-.129-.3-.231-.3-.333,0-.447.051-.9.1-1.343.006-.061.076-.164.118-.165.329,0,.257-.258.277-.438a11.207,11.207,0,0,0,.083-1.127.59.59,0,0,0-.172-.374,2.71,2.71,0,0,1,.137-1.685.624.624,0,0,0,.266-.359c.076-.658.114-1.321.168-2l-.486-.127q.26-.7.492-1.339l.483-.026c.065-.7.128-1.369.19-2.04-.055.015-.109.027-.165.041a1.554,1.554,0,0,1-.172-.487,10.059,10.059,0,0,1,.082-1.214c.013-.1.116-.275.186-.278.314-.017.281-.241.3-.435.063-.678.132-1.355.174-2.035a1.279,1.279,0,0,1,1.345-1.229c1.438.061,2.879.045,4.318.047q4.908.008,9.818,0a4.843,4.843,0,0,1,.649.051,23.9,23.9,0,0,0,3.057.411c6.226.039,12.451.021,18.676.021q14.991,0,29.98,0c.132,0,.263-.017.394-.024,0-.04.005-.078.008-.117-.178-.041-.356-.074-.532-.122-.709-.192-.65-.007-.65-.806,0-1.06.05-1.1,1.126-1.082,1.366.02,2.733.023,4.1.032.486,0,.972,0,1.47,0v-2.656c-.74-.42-.281-1.073-.353-1.6-.021-.168.186-.367.288-.552l.141.049c-.014-.171-.039-.343-.037-.514,0-.289-.079-.753.058-.835.518-.309.166-.7.263-1.02-.194-.06-.365-.062-.453-.148a1.723,1.723,0,0,1,.134-1.515c.189-.186.346-.4.517-.607a.776.776,0,0,1,.523-.2c1.231-.011,2.465-.008,3.7,0,.435,0,.84.057.749.65.91,0,1.779,0,2.648-.006a.268.268,0,0,0,.193-.138c.281-.668.546-1.343.825-2.012.119-.286.263-.562.416-.887a5.017,5.017,0,0,1,.375.35c1.013,1.191,2.057,2.361,3.016,3.6.368.474.783.392,1.229.389a.238.238,0,0,0,.178-.147c.055-.548.443-.509.83-.5.334.011.668.012,1,.005.38-.009.723.018.654.6.583,0,1.132-.012,1.681.005.285.008.5-.023.6-.353a.469.469,0,0,1,.348-.243c.433-.03.868-.012,1.32-.012.052.2.1.373.158.6.585,0,1.18.015,1.771-.013a.491.491,0,0,0,.343-.265.493.493,0,0,1,.58-.332,2.4,2.4,0,0,0,.479,0c.427-.035.818-.035.718.607.55,0,1.043-.008,1.535,0a.66.66,0,0,0,.706-.375.467.467,0,0,1,.327-.223c.432-.027.866-.011,1.3-.011l.164.6c.576,0,1.142.011,1.706-.01a.438.438,0,0,0,.3-.2.771.771,0,0,1,.84-.393c.26.023.524-.01.784.012.091.008.248.1.249.154.009.457.3.442.628.428a4.974,4.974,0,0,1,.828.021.752.752,0,0,0,.709-.312.8.8,0,0,1,.443-.285,5.816,5.816,0,0,1,1.089,0c.108.008.285.133.294.219.043.366.267.4.556.381a8.437,8.437,0,0,0,.871-.018,1.08,1.08,0,0,0,.593-.258.952.952,0,0,1,.841-.341,5.106,5.106,0,0,0,.741,0c.215-.008.371.034.387.29.017.291.206.341.455.324a3.569,3.569,0,0,1,.653,0,1.085,1.085,0,0,0,.9-.326,1.492,1.492,0,0,1,.678-.273,4.27,4.27,0,0,1,.652-.012c.311-.017.588-.012.616.405.005.065.106.183.155.179.584-.048,1.231.255,1.734-.267a1.017,1.017,0,0,1,.9-.319,3.372,3.372,0,0,0,.611,0c.291-.021.514.022.562.373.011.081.119.216.171.211.558-.056,1.169.228,1.662-.245a1.225,1.225,0,0,1,1.033-.34,3.668,3.668,0,0,0,.654,0,.363.363,0,0,1,.442.306c.027.109.14.283.209.282.563-.018,1.171.192,1.661-.28a1.1,1.1,0,0,1,.914-.31,4.379,4.379,0,0,0,.785,0c.228-.019.362.059.408.28a.376.376,0,0,0,.461.335c.406-.024.814,0,1.222-.012a.682.682,0,0,0,.405-.109,2.6,2.6,0,0,1,1.964-.5c.422.014.844.008,1.266.011s.877-.044.926.5l4.017-1.31c.044-.545.049-.514.678-.58.608-.064.479.37.518.7A2.231,2.231,0,0,1,553.876,1500.74Zm-25.989,24.6.689.573a.721.721,0,0,1-.827.223,3.492,3.492,0,0,1-2.118-4.2,12.068,12.068,0,0,1,.558-1.641c.238-.586,0-1.011-.619-1.011-.393,0-.788.027-1.177-.008a.817.817,0,0,0-.781.407,6.339,6.339,0,0,0-1.148,4.9,2.7,2.7,0,0,0,2.4,2.093c2.193-.069,4.391-.03,6.585-.012a1.344,1.344,0,0,0,.979-.379c.914-.852,1.815-1.715,2.735-2.559.555-.508.443-1.188.5-1.817a1.17,1.17,0,0,0-.578-1.083c-.573-.419-1.093-.909-1.653-1.346a.973.973,0,0,0-.546-.191c-1.4-.016-2.792-.012-4.188,0-.131,0-.323.035-.382.125a4.258,4.258,0,0,0-.711,4.144,9.9,9.9,0,0,0,1.211,1.733C528.583,1525.61,528.24,1525.3,527.887,1525.34Zm-76.694-10.25c3.135,0,6.27-.027,9.4.009,3.1.037,6.2-.073,9.511.078,1.23-.146,2.709-.021,4.234-.09-.318-.255-31.652-.339-32.582-.138,0,.047,0,.093,0,.141Zm23.257-.17a31.706,31.706,0,0,0,6.72,0Zm63.191-11.82c0,.035,0,.07,0,.1h5.749v-.1Zm-40.015-.03h-2.975A4.8,4.8,0,0,0,497.626,1503.07Zm-81.144,25.34c.388.009.447-.394.438-.675-.008-.21-.217-.414-.336-.62l-.559.669C416.209,1528.05,416.342,1528.4,416.482,1528.41Zm83.951-25.35a2.07,2.07,0,0,0,1.906,0Zm13.152.11c0-.034,0-.067,0-.1h-2.089c0,.032,0,.065.006.1Zm-6.4.09c0-.056.009-.111.014-.167h-1.409c-.005.026-.012.054-.018.08C506.241,1503.2,506.712,1503.23,507.183,1503.26Zm10.863-.15c0,.03,0,.06,0,.09h1.2c0-.03-.008-.06-.011-.09Zm-49.4,11.33v-.033h-2.021a.38.38,0,0,0-.022.033Zm45.783,31.88c0-.024,0-.049,0-.074h-2.036c.008.025.015.05.022.074Zm-14.506-26.28-.006.071,1.7.145c0-.028.007-.056.01-.084C501.058,1520.13,500.491,1520.09,499.922,1520.04Z" transform="translate(-407.941 -1497.638)" fill="currentColor" fill-rule="evenodd"/>
</svg>
