<svg xmlns="http://www.w3.org/2000/svg" width="206.083" height="43.084" viewBox="0 0 206.083 43.084">
  <path id="Caminho_26" data-name="Caminho 26" d="M897.973,1513.83c.243-1.766.243-1.768,2.253-1.724.429.009.858.048,1.287.058,1.993.049,1.993.048,2.28,2.154,1.1,0,2.246.005,3.387,0,.835-.005,1.269.326,1.233,1.236-.04,1.056.054,2.116.009,3.172a1.694,1.694,0,0,1-1.915,1.814c-5.63,0-11.259-.053-16.887.005-1.877.019-3.749.325-5.627.459-1.127.082-1.1.6-.926,1.562a16,16,0,0,1,.16,3.925c-.018.284-.813.549-1.276.767a15.6,15.6,0,0,1-1.738.694c-.519.174-1.071.247-1.59.422-3.769,1.271-7.7,1.131-11.58,1.226-5.41.134-10.834-.144-16.239.087-4.782.2-9.545.877-14.318,1.322-5.115.479-10.225,1.057-15.352,1.343a8.568,8.568,0,0,1-6.374-1.743c-.126-.109-.344-.149-.418-.281-1.164-2.038-3.087-1.873-5.029-1.829-5.279.117-10.559.167-15.838.242-.3,0-.66.1-.893-.024-1.567-.855-2.663.181-3.8.932-1.338.885-2.587,1.91-3.946,2.76-2.177,1.361-4.608,1.031-7.119.922-.011.215-.026.482-.04.75a1.8,1.8,0,0,1-2.275-.9c-.672-1.037-1.318-2.091-2.027-3.1a1.209,1.209,0,0,0-.81-.482,18.072,18.072,0,0,0-8.337,1.2,6.594,6.594,0,0,0-4.165,6.313c0,.8.353,1.819-.79,2.18a7.548,7.548,0,0,1-1.484.069c-.533.051-1.428.015-1.53.269-.451,1.137-1.315,1.025-2.209,1.011-.77-.013-1.54,0-1.933,0-.358.63-.513,1.3-.853,1.413-.729.242-1.012-.283-1.3-1-.525-1.32-1.114-2.724-2.981-2.717-.3,0-.6-.548-.935-.883-2.366,1.081-4.859,2.219-7.353,3.356-.7.317-1.413.6-2.094.948-3.039,1.56-6.016,3.25-9.113,4.685-4.846,2.243-9.773,4.312-14.653,6.48a7.026,7.026,0,0,0-1.263.92c-.066.05-.11.132-.18.174-.986.6-5.224.4-6.1-.407a2.6,2.6,0,0,1-.758-1.552c-.437-5.02-.769-10.048-1.215-15.066-.233-2.624-.684-5.229-.95-7.853a3.744,3.744,0,0,1,4.615-3.889,11.276,11.276,0,0,0,2.822.213c2.266.035,4.527.305,6.794.356,2.008.048,4.025-.009,6.028-.161.534-.04,1.006-.822,1.544-.877,4.985-.5,9.978-.923,14.968-1.366q5.451-.484,10.9-.971a2.406,2.406,0,0,1,1.8.467,3.908,3.908,0,0,0,3.018.367c3.619-1.158,7.213-2.426,10.724-3.878,4.107-1.7,8.146-3.584,12.153-5.518.847-.408,1.427-1.374,2.122-2.092.482-.5,3.139-.711,3.641-.266a5.6,5.6,0,0,0,4.047,1.63c4.976-.089,9.955.074,14.935.091,3.335.01,6.676-.187,10-.046a35.587,35.587,0,0,1,5.243,1.029,5.31,5.31,0,0,0,1.026.057q37.511,0,75.021-.017A41.3,41.3,0,0,0,897.973,1513.83Zm-114.687,14.83c-1.694,0-3.317-.035-4.936.034a1.125,1.125,0,0,0-.777.721,2.1,2.1,0,0,0,2.286,2.765C783.842,1531.97,783.591,1531.8,783.286,1528.66Z" transform="translate(-702.351 -1511.275)" fill="currentColor" fill-rule="evenodd"/>
</svg>
