<svg xmlns="http://www.w3.org/2000/svg" width="115.617" height="84.875" viewBox="0 0 115.617 84.875">
  <path id="Caminho_22" data-name="Caminho 22" d="M513.935,1325.94c-2.6.35-3.939.7-4.737,3.233a9.194,9.194,0,0,0-.341,1.816c-.347,3.374-1.531,6.674-.757,10.151.242,1.086-.4,1.656-1.557,1.71-5.5.259-11,.5-16.493.774a25.947,25.947,0,0,1-8.5-.9,18.21,18.21,0,0,0-4.031-.627,3.443,3.443,0,0,0-3.319,1.485,13.173,13.173,0,0,0-1.558,3.629c-1.165,4.943-2.3,9.9-3.253,14.886-.779,4.062-2.173,8.057-1.676,12.3a3.424,3.424,0,0,1-2.4,3.889,8.728,8.728,0,0,1-2.708.753c-5.071.219-10.146.368-15.221.484a32.773,32.773,0,0,1-9.512-1.306c-1.4-.388-1.619-.634-1.624-2.115-.008-2.137-.087-4.282.086-6.406a89.71,89.71,0,0,1,1.146-9.873,85.011,85.011,0,0,1,5.263-16.641,26.458,26.458,0,0,0,1.873-10.4c-.005-2.938-1.1-5.541-3.824-7.031-1.9-1.04-3.955-1.816-5.932-2.729a6.5,6.5,0,0,1-1.523-.851c-1.516-1.289-1.474-1.7.169-2.828a3.887,3.887,0,0,1,.736-.477,6.757,6.757,0,0,0,3.946-4.562,11.4,11.4,0,0,0,.53-1.972c.11-.744.4-1.111,1.2-1.022a12.75,12.75,0,0,0,1.4.009c0-.084,0-.168,0-.253l-1.747-.167c.192-.55.382-.977.492-1.423.54-2.171,1.039-4.352,1.594-6.518a20.144,20.144,0,0,0,.958-3.462c.055-.809.067-1.585.769-1.9.892-.4,1.009-1.081,1.145-1.846a1.1,1.1,0,0,1,1.327-1.059,13.371,13.371,0,0,0,2.829,0,5.667,5.667,0,0,1,4.057,1.347,5.6,5.6,0,0,0,3.077,1.151c4.852.117,9.706.148,14.559.138,5.081-.012,10.162-.107,15.243-.153.341,0,.9.009.984.187.3.658.846.516,1.331.55.941.065,1.887.089,2.83.131,4.49.2,8.979.409,13.471.574a1.382,1.382,0,0,0,1.1-.449,1.469,1.469,0,0,1,1.568-.856q14.559.04,29.12.03c.325,0,.811-.087.945-.3a1.421,1.421,0,0,1,1.618-.6c2.347.311,4.7.592,7.036.961a2.38,2.38,0,0,1,2.225,2.771c-.126,3.352-.277,6.7-.4,10.055-.02.557-.124.927-.773,1.008a.8.8,0,0,0-.524.541q-.464,3.117-.841,6.248a5.038,5.038,0,0,1-1.233,3.213,2.743,2.743,0,0,0-.958,2.486,2.087,2.087,0,0,1-2.123,2.193c-1.852.035-3.674-.353-5.562-.064a19.612,19.612,0,0,1-4.269-.251c-.226-.017-.515-.141-.667-.045-1.152.723-2.42.362-3.6.3-.966-.054-2.127.084-2.849-.906-.389.965-.389.966-1.449.967a14.314,14.314,0,0,1-1.757-.012c-1.191-.147-2.62.029-2.814-1.748a1.364,1.364,0,0,0-.3-.045c-.146.563-.295,1.141-.469,1.809A23.412,23.412,0,0,0,513.935,1325.94Zm-21.961,12.74c-3.333-.742-5.208-2.838-6.269-5.9-.085-.246-.211-.479-.278-.729a12.986,12.986,0,0,0-4.143-6.479,7.312,7.312,0,0,0-5.512,8.167,6.138,6.138,0,0,0,2.324,3.944c2.026,1.694,4.509,2.256,6.977,2.853,2.576.622,5.182.335,7.779.2,2.373-.119,4.746-.26,7.119-.385a4.065,4.065,0,0,0,4.249-3.957c.276-2.1.517-4.2.782-6.3a4.18,4.18,0,0,0-3.954-4.574c-3.518-.036-7.035,0-10.552-.019a.765.765,0,0,0-.889.651,8.63,8.63,0,0,0,3.929,9.922c.834.5,1.668.991,2.646,1.574A4.58,4.58,0,0,1,491.974,1338.68Zm-7.936-39.28c0-.056,0-.111,0-.166h-10.13c0,.055,0,.11,0,.166Zm28.761,11.79c0,.034,0,.069,0,.1h9.909v-.1Zm-17.937-11.7,0,.2h10.8c-.006-.065-.013-.131-.018-.2Zm-7.708,12.39c-.678,0-.892.347-.873.685a7.21,7.21,0,0,1,1.757-.489c3.125-.052,6.252-.029,9.377-.036.254,0,.509-.028.763-.044l-.006-.112Q492.664,1311.893,487.154,1311.88Zm26.77-12.92v-.184h-7.111c0,.061-.007.123-.011.184Zm-11.88,7.36v-.093q-2.826,0-5.653,0c-.009,0-.018.058-.026.089Zm31.8,4.96c0-.036,0-.072,0-.109h-3.806c-.007.037-.015.073-.022.109Zm-45.344,3.37c0,.019,0,.036,0,.054h5.133v-.054Zm3.115,21.36.272-.251-1.386-1.536-.309.279C490.664,1335.01,491.137,1335.51,491.612,1336.01Zm-4.542-36.34c-.005.046-.009.092-.014.137l2.151.1c.005-.079.009-.158.013-.236Z" transform="translate(-432.231 -1294.656)" fill="currentColor" fill-rule="evenodd"/>
</svg>
