<svg xmlns="http://www.w3.org/2000/svg" width="150.322" height="50.014" viewBox="-0 0 150.322 42.014">
  <path id="Caminho_6" data-name="Caminho 6" d="M800.75,542.644a9.724,9.724,0,0,0-2.477,6.631c-.087,2.413.777,3.964,3.054,4.721a19.049,19.049,0,0,0,14.621-1.136c2.843-1.364,4.227-6.738,2.879-10.175a6.178,6.178,0,0,1,1-.167c3.4-.012,6.8.031,10.192-.029,1.223-.021,1.712.442,1.708,1.634,0,.938.119,1.875.163,2.813.094,2.045.785,2.967,2.813,3.319a11.98,11.98,0,0,0,3.574.126,3.773,3.773,0,0,1,4,1.8,10.87,10.87,0,0,0,1.986,2.189c1.666,1.409,3.288,1.278,5.028-.279s2.209-3.536.89-5.13c-1.792-2.165-3.8-4.153-5.782-6.155a2.784,2.784,0,0,0-1.659-.808c-3.3-.159-6.647-.777-9.99.688-.286-1.258-1.261-1.344-2.424-1.343q-42.81.038-85.619.021H742.9c0-4.942-.061-9.69.076-14.433.017-.587,1.049-1.183,1.677-1.69.191-.155.608-.035.922-.035h75.563c.106,1.412-.638,1.588-1.747,1.584-10.4-.032-20.8-.02-31.205-.02h-2.152V532.1h34.453c.041.763.069,1.37.107,1.976a3.51,3.51,0,0,0,3.472,3.538c2.034.089,4.079.093,6.113,0a3.5,3.5,0,0,0,3.438-3.566c.029-.563.005-1.128.005-1.888H853.7v-5.316H834.9c-.073-.181-.148-.361-.221-.542.718-.367,1.425-1.025,2.158-1.057a112.2,112.2,0,0,1,22.64,1.371c1.065.172,1.376.539,1.349,1.58-.067,2.612-.039,5.227-.018,7.84.02,2.568,1.4,3.939,3.991,3.963,2.3.021,4.6.062,6.9-.055,1.047-.053,1.5.312,1.5,1.261.018,3.658.024,7.316-.021,10.976a1.716,1.716,0,0,1-1.819,1.776c-1.557.061-3.116.016-4.567.016a45.4,45.4,0,0,0-1.333-4.463,6.708,6.708,0,0,0-1.646-2.247c-1.507-1.406-3.276-1.1-4.034.82a19.269,19.269,0,0,0-.921,4.409c-.34,2.423-.3,4.936-.943,7.269a13.558,13.558,0,0,1-2.783,4.972,5.683,5.683,0,0,1-3.572,1.994c-5.2.22-10.409.093-15.747.093a20.656,20.656,0,0,0,1.7-2.1,19.532,19.532,0,0,0,2.069-3.825,3.4,3.4,0,0,0-2.685-4.76c-2.275-.435-4.626-.472-6.89-.679-1.413,6.006-6.869,11-13,11.38a119.722,119.722,0,0,1-18.156-.038c-3.813-.346-7.577-1.91-11.217-3.31a46.811,46.811,0,0,0-18.842-3.076c-7.673.28-15.364.068-23.049.064-2.406,0-2.847-.445-2.847-2.823,0-4.961,0-9.925,0-15.018Z" transform="translate(-742.891 -525.156)" fill="currentColor" fill-rule="evenodd"/>
  <path id="Caminho_7" data-name="Caminho 7" d="M864.875,516.153c.028-.4.076-.808.083-1.211.046-2.666.376-3.007,2.974-3.017q1.645,0,3.291.01a1.764,1.764,0,0,1,1.979,1.925q.027,11.2-.008,22.409a1.856,1.856,0,0,1-2.1,2q-3.213.03-6.425-.005c-1.416-.014-2.075-.768-2.067-2.179q.023-4.152-.005-8.306c-.013-1.994-.588-2.624-2.527-2.869-7.095-.9-14.189-1.8-21.287-2.683a4.493,4.493,0,0,0-1.691.106c-2.476.682-5.171,4.248-5.193,6.815-.014,1.463.02,2.926-.011,4.388-.034,1.676-.628,2.286-2.256,2.313-1.724.029-3.448.013-5.172,0a1.92,1.92,0,0,1-2.13-2.144,38.743,38.743,0,0,1,.043-5.01,8.271,8.271,0,0,1,1.174-3.5c2.016-3.046,4.222-5.967,6.354-8.936a3.874,3.874,0,0,1,3.473-1.75,8.4,8.4,0,0,1,.939.006,8.549,8.549,0,0,0,8.4-3.4,6.132,6.132,0,0,1,5.3-2.154c3.445.082,6.9.053,10.342.006a3.664,3.664,0,0,1,3.8,2.4c.71,1.66,1.557,3.264,2.345,4.892C864.62,516.226,864.748,516.189,864.875,516.153Z" transform="translate(-745.00 -518.96)" fill="currentColor" fill-rule="evenodd"/>
</svg>
