<svg xmlns="http://www.w3.org/2000/svg" width="33.049" height="20.149" viewBox="0 0 33.049 20.149">
  <path id="Caminho_589" data-name="Caminho 589" d="M65.026,501.346c-.138.874-.113,1.316.1,1.561a.8.8,0,0,0,.6.229l.042.057,6.885,1.079.05-.1c.237.031.652.138.833.138.213,0,.172-.221.057-.245a2.29,2.29,0,0,1-.5-.115h.122l.026-.081c.015-.065,2.052-7.228,2.746-8.243a2.689,2.689,0,0,1,2.52-1.046h2.919a2.021,2.021,0,0,0,1.947-2.282,1.562,1.562,0,0,1,.685-1.365v.009a.34.34,0,0,1,.074-.049,1.823,1.823,0,0,1,.589-.237,2.57,2.57,0,0,1,.523-.049h5.552a.461.461,0,0,0,.4-.279v-.171h5.864c.212,0,.261-.212.278-.532h.138s.214-.156.148-.957a.154.154,0,0,1-.008-.057h.008a3.848,3.848,0,0,1,.187-1.448v-.073c.107-.057.181-.376.181-.761,0-.41-.081-.736-.2-.769v-.008h-.033a.4.4,0,0,0-.358-.294h0c-.051-.205-.132-.385-.263-.385h-.2a1.438,1.438,0,0,0-.369-.319.534.534,0,0,0-.376-.082.632.632,0,0,0-.2.082c-.178.107-.278.278-.523.319H78.691v-.115H72.551a.718.718,0,0,0-.115-.2.577.577,0,0,0-.147-.13.4.4,0,0,1-.155-.262H71.9s0,.131-.237.278a.311.311,0,0,0-.13.115.281.281,0,0,0-.066.2H70.211a4.614,4.614,0,0,0-.36.613h-.105l-.025.041c-.026.066-.066.131-.1.2a.964.964,0,0,1-.172.008,1.467,1.467,0,0,1-1.078-.426.587.587,0,0,0-.443-.188.56.56,0,0,0-.49.229.134.134,0,0,0,.017.147,1.106,1.106,0,0,0,.31.2c.466.254,1.292.711,1.4,1.276a6.048,6.048,0,0,0-.189,1.21.146.146,0,0,0-.026.065,1.191,1.191,0,0,1-1.014.973,1.713,1.713,0,0,0-.833.246c-.033,0-.065-.008-.1-.008a.672.672,0,0,0-.2-.016,1.23,1.23,0,0,0-.825.286.668.668,0,0,0-.255.646.44.44,0,0,0,.3.327c.041.009.105.016.2.033.558.065,2.037.245,2.29,1.12.3,1.039.066,1.513-1.088,3.574v.008a.289.289,0,0,0,0,.3.613.613,0,0,0,.548.214H68a.38.38,0,0,0-.107.146c-.025.058-.18.3-.359.589a22.715,22.715,0,0,0-2.512,4.759v.018Zm32.342-13.763v-.155h.008ZM82.8,492.22a1.581,1.581,0,0,1-.393,1.259,1.461,1.461,0,0,1-1,.515h-1.6a2.091,2.091,0,0,1-.573-1.53,2.63,2.63,0,0,1,.482-1.635h1.873a1.6,1.6,0,0,1,1.21,1.39h.01Zm14.554-3.614-.007.515v-.851h.016v-.115h0v.45h-.009Z" transform="translate(-64.94 -484.156)" fill="currentColor"/>
</svg>
