<svg xmlns="http://www.w3.org/2000/svg" width="202.478" height="47.942" viewBox="0 0 202.478 47.942">
  <path id="Caminho_19" data-name="Caminho 19" d="M546.543,1129.99q-15.912.142-31.825.281c-2.868.021-5.737-.049-8.606-.05a1.127,1.127,0,0,0-.745.315q-2.863,3.063-5.679,6.17c-.5.555-.868,1.254-1.8,1.165-.17-.017-.352.214-.545.282a6.488,6.488,0,0,1-1.746.543c-4.7.211-9.4.358-14.1.544a3.206,3.206,0,0,1-2.58-.564.975.975,0,0,0-.6-.11c-2.116,0-4.231,0-6.348.017-4.206.039-8.411.1-12.617.131-1.133.008-2.2-.2-2.621-1.491-.02-.058-.1-.093-.239-.21a17.755,17.755,0,0,0-1.51,2.93,2.518,2.518,0,0,1-1.679,1.838,1.825,1.825,0,0,0-1.268,1.645c-.053,1.012-.7,1.514-1.246,2.211a5.761,5.761,0,0,0-1.265,2.833,5.684,5.684,0,0,1-.472,2.04.74.74,0,0,1-.947.459,14.065,14.065,0,0,1-4.464-1.347c-.818-.509-1.708-.9-2.563-1.353a2.521,2.521,0,0,1-.979-2.937,13.723,13.723,0,0,1,3.646-4.737c1-.844,2.053-1.615,3.049-2.458a3.7,3.7,0,0,0,1.631-3.339c-.121-1.146-.376-1.468-1.486-1.451-2.064.033-4.128.059-6.192.108-.666.017-1.33.1-2.015.156,0,.663-.027,1.275.008,1.884.031.551-.238.772-.732.781-.879.012-1.756,0-2.645,0-.452.818-1.144,1.241-1.7.865a2.169,2.169,0,0,0-2.14-.044q-5.432,1.905-10.854,3.838c-2.138.759-4.3,1.454-6.4,2.3-1.457.586-2.735,1.641-4.431,1.534,0,2.147-.006,4.229.017,6.311a.535.535,0,0,0,.383.353c.913-.082,1.035.44.968,1.159a3.651,3.651,0,0,0,.015.862c.083.552-.216.768-.688.819-.751.084-1.506.18-2.26.2-1.872.057-1.844.041-1.895-1.807-.019-.645.158-1.006.819-1.029.428-.016.585-.195.571-.634-.054-1.879-.078-3.762-.122-5.642a1.158,1.158,0,0,0-.114-.495c-.676.016-1.519-.163-1.982.175-.484.352-.848.686-1.467.614-.574-.066-1.151-.123-1.883-.2a3.213,3.213,0,0,1-.936.219c-.611-.013-1.223-.226-1.829-.209-1.054.029-2.1.248-3.152.246a3.47,3.47,0,0,1-3.552-3.1,54,54,0,0,1-.4-13.285,12.377,12.377,0,0,1,1.011-3.33c.141-.362.593-.633.949-.876,1.072-.733,2.307-.533,3.5-.519a10.772,10.772,0,0,1,1.59.268,2.342,2.342,0,0,1,2.818.11,2.113,2.113,0,0,1,3.025.193.635.635,0,0,0,.443.188c1.986-.019,3.974-.017,5.956-.1a3.86,3.86,0,0,1,2.438.654,1.182,1.182,0,0,1,.461.77c.063.722.021,1.452.021,2.163h6.8c.185-2.617.185-2.617-2.292-2.538-.183.006-.366.03-.548.02-.729-.037-1.461-.055-2.185-.138a.865.865,0,0,1-.844-1,15.856,15.856,0,0,0-.209-2c-.162-1.378.2-2.481,1.853-2.529.521-.016,1.044-.065,1.565-.069q8.154-.06,16.307-.1c1.54-.006,3.083.012,4.619.1a1.274,1.274,0,0,1,1.2,1.318c.052.687.285,1.562-.59,1.818-.7.208-.852.666-1.056,1.194-.476,1.243-.477,1.253-1.773,1.266q-4.116.036-8.232.053a3.167,3.167,0,0,1-.621-.048c-.578-.108-1.153-.235-1.779-.366v2.933a.971.971,0,0,0,.223.085q4.194-.029,8.388-.063c.151,0,.414-.022.436-.093.306-.966,1.112-.481,1.7-.585.14-.025.318.171.478.264.255.15.5.414.766.428a30.426,30.426,0,0,1,3.13.06c3.077.488,5.937-.533,8.815-1.235,3.718-.906,7.37-2.084,11.055-3.127a1.02,1.02,0,0,0,.813-.7,4.611,4.611,0,0,1,1.012-1.96,13.782,13.782,0,0,1,2.923-1.707,10.677,10.677,0,0,1,4.975-.792c1.138.024,2.276,0,3.415,0-.053-.116-.1-.233-.155-.349a11.6,11.6,0,0,1,.943-1.01.872.872,0,0,1,1.408.179c.113.14.46.088.755.132.08-.926.153-1.756.22-2.536-1.732,0-3.322-.016-4.913.014a6.064,6.064,0,0,0-1.019.262,13.009,13.009,0,0,1-1.8.288c-.426.021-.862-.183-1.291-.17-.647.019-1.293.2-1.94.207-2.737.032-5.475.019-8.211.04-.434,0-.636-.157-.642-.579q-.035-2.741-.064-5.482c-.006-.515.229-.731.775-.7.8.043,1.611,0,2.418.016,2.369.055,4.74.1,7.109.2,1.385.056,2.836-.607,4.154.34.082.059.255,0,.385-.017,1.871-.211,3.749.2,5.641-.177a3.265,3.265,0,0,1,2.8.354c.367.278,1.122,0,1.688.074,1.243.162,1.841-.819,1.283-2.123a2.436,2.436,0,0,1-.018-1.5c.043-.155.693-.184,1.069-.195,1.042-.035,2.085-.039,3.128-.04,1.362,0,1.687.54,1.1,1.82-.324.708-.071,1.839.557,1.938a4.716,4.716,0,0,0,2.759,0c1.091-.628,2.119-.183,3.148-.371.1-.018.267,0,.3.055.373.7.935.38,1.442.274.792-.164,1.576-.368,2.368-.536a26.689,26.689,0,0,1,4.367-.852c3.341-.128,6.689-.022,10.035-.053a.953.953,0,0,1,1.1.834,15.038,15.038,0,0,1-.037,6.6.888.888,0,0,1-1.007.755c-2.222-.023-4.446-.068-6.664.024a25.055,25.055,0,0,1-7.973-.921,22.659,22.659,0,0,0-2.68-.565c-.219-.033-.676.189-.688.326-.069.738-.033,1.484-.033,2.28,1.446,0,2.8.033,4.152-.024.336-.014.644-.428.991-.48a1.57,1.57,0,0,1,1.841,1.079c.487.332.786.556,1.106.745a1.111,1.111,0,0,0,.5.152c3.414.178,6.83.484,10.245.495,14.843.043,29.684.008,44.525-.019,6.3-.013,12.6-.072,18.894-.112.612-.005,1.263.139,1.714-.493.076-.1.339-.108.514-.1a19.63,19.63,0,0,1,3.966.174,7.459,7.459,0,0,0,2.318.019,57.493,57.493,0,0,1,5.8-.034,1.538,1.538,0,0,1,1.178.793,5.625,5.625,0,0,1,.06,2.284,1.177,1.177,0,0,1-1.342.948c-1.045-.025-2.094.056-3.135-.012-1.225-.078-2.505.385-3.671-.358-.095-.062-.295.05-.446.07-.563.081-1.125.162-1.689.232-.891.108-1.781.261-2.674.29a3.408,3.408,0,0,1-1.187-.361c-.365-.135-.722-.433-1.08-.43-8.414.051-16.828.138-25.242.209-2.056.018-4.111,0-6.146,0,.108.69.2,1.263.3,1.87h3.306c1.381,0,1.479.087,1.617,1.466a3.336,3.336,0,0,1-.008.547c-.054.919-.11,1.838-.171,2.848a6.568,6.568,0,0,1,.927-.169,3.061,3.061,0,0,1,2.523.671,1.775,1.775,0,0,0,1.536.668c4.177-.173,8.373.231,12.536-.407.6-.091,1.251.116,1.74-.438.054-.061.3-.006.424.058a8.25,8.25,0,0,1,.8.5,1.131,1.131,0,0,0,1.611-.015.708.708,0,0,1,.616-.039,5.169,5.169,0,0,1,.938.564.81.81,0,0,1,.257,1.225c-.418.426-1.273,1.021-1.548.863a3.9,3.9,0,0,0-1.867-.306c-.295-.024-.666-.13-.877,0a1.9,1.9,0,0,1-2.521-.187.458.458,0,0,0-.288-.082c-1.245,0-2.491-.017-3.733.031-2.516.1-5.029.246-7.546.347-.592.022-1.187-.061-1.809-.1a1.291,1.291,0,0,1-1.552,1.134c-1.829-.16-3.646-.432-5.473-.622-.664-.07-1.219-.231-1.225-1.009,0-.59-.235-1.137.126-1.8s1.157-1.438.354-2.36h-.713C548.006,1129.7,547.681,1129.98,546.543,1129.99Zm-83.81,3.17c-2.051-.2-2.89,1.647-2.36,3.311a1.458,1.458,0,0,0,1.73,1.25c1.7-.017,3.4-.031,5.1-.051a1.778,1.778,0,0,0,1.912-1.372c.211-.617.452-1.224.658-1.843.325-.969.056-1.326-1-1.333-1.1-.007-2.2,0-3.293,0v.054C464.56,1133.17,463.639,1133.25,462.733,1133.16Zm-32.615,3.47-.039-.161c-.954,0-1.908-.008-2.862.008a.568.568,0,0,0-.389.185,2.415,2.415,0,0,1-2.21.893c-.519-.037-1.051.063-1.561-.009a2.068,2.068,0,0,1-1.253-.461,1.552,1.552,0,0,0-1.493-.511c-1.643.023-3.287.03-4.93.043-.352,0-.68-.02-.674.506.018,1.56.007,3.121.007,4.85C419.978,1140.15,425.047,1138.39,430.118,1136.63Zm77.4-12.81c-.369.463-1.393.413-2.124.576-1.144.255-2.3.47-3.432.756a2.794,2.794,0,0,0-.788.542c.244.237.449.566.742.692a8.93,8.93,0,0,0,1.577.438c1.887.423,2.353.89,2.665,2.739.657.32,1.03-.179,1.484-.5.613-.438.338-.934.217-1.515a2.855,2.855,0,0,0,.52.376c.132.061.4.078.451.005a.492.492,0,0,0,.019-.472,1.93,1.93,0,0,0-.683-.48c-.678-.267-1.382-.468-2.059-.739a2.263,2.263,0,0,1-.547-.47,3.3,3.3,0,0,1,.588-.446c.985-.452,1.986-.873,2.977-1.314.213-.095.409-.225.613-.339l-.242-.337C508.846,1123.44,508.192,1122.99,507.523,1123.82Zm-14.336-8.31c-1.168.192-2.354-.4-3.41.443a.641.641,0,0,1-.372.083,21.633,21.633,0,0,1-4.6-.075,14.287,14.287,0,0,0-2.93-.405c-.2,0-.4.03-.594.046-.251,1.336-.218,1.382,1.061,1.376q4.969-.023,9.938-.056c.283,0,.567-.029.906-.048C493.187,1116.4,493.187,1116.02,493.187,1115.51Zm1.067,6.98a13.944,13.944,0,0,0,3.443.182c.167,0,.337-.23.647-.459a20.315,20.315,0,0,0-10.431-1.9C490.024,1121.06,492.105,1121.9,494.254,1122.49Zm-34.174,10.76a6.216,6.216,0,0,0-1.933.053c-.362.124-.677.728-.784,1.172a6.6,6.6,0,0,0-.013,1.716,2.739,2.739,0,0,0,1.539,1.61c.558.057,1.125.013,1.778.013C459.34,1135.63,459.313,1135.41,460.08,1133.25Zm27.538-11.01c-2.771-.949-5.485-2.146-8.555-1.81C481.812,1121.48,484.38,1123.31,487.618,1122.24Zm11.773-1.43c.9.19,1.843.237,2.731.48a19.5,19.5,0,0,1,2.314.934c.116.047.233.09.529.2a10.963,10.963,0,0,0-.015-1.53c-.1-.672-1.146-.963-1.854-.576-.18.1-.486.195-.617.11-1.317-.852-2.734-.151-4.085-.393-.031.1-.063.2-.1.3A5.626,5.626,0,0,0,499.391,1120.81Zm16.96,7.91c.233-.024.438-.313.655-.481-.225-.128-.447-.363-.674-.367q-1.866-.04-3.732.033c-.247.011-.485.262-.727.4.247.152.482.407.744.438a16.423,16.423,0,0,0,1.789.021v-.022C515.054,1128.74,515.708,1128.78,516.351,1128.72Zm4.789-.88c-.224.02-.428.266-.641.408.228.152.452.428.683.433q1.842.038,3.682-.059c.236-.012.461-.285.69-.438a2.307,2.307,0,0,0-.735-.372c-.569-.057-1.147-.018-1.722-.018v.024C522.445,1127.82,521.788,1127.78,521.14,1127.84Zm20,.63c.208-.019.4-.283.59-.436-.19-.125-.379-.353-.572-.357-1.231-.027-2.467-.028-3.7.024-.22.009-.428.305-.642.469.219.124.43.337.657.356.593.051,1.194.017,1.792.017v-.051C539.894,1128.49,540.522,1128.53,541.141,1128.47Zm-8.38.09c.205-.021.382-.309.572-.475-.2-.123-.4-.353-.6-.355-1.278-.016-2.559,0-3.835.054-.192.009-.374.259-.562.4.2.144.391.4.6.412.646.054,1.3.02,1.949.02v-.028A15.41,15.41,0,0,0,532.761,1128.56Zm-26.706-7.62c-.214-.079-.546.162-.822.258.2.318.355.878.6.915a15.764,15.764,0,0,0,2.364.044c.009-.073.018-.146.026-.217C507.5,1121.6,506.8,1121.21,506.055,1120.94Zm4.536,8.48c0,.053-.005.1-.007.157h2.771c0-.053,0-.1.006-.157Zm79.639-8.64-.735-.068c.03.493.056.914.082,1.356C590.17,1122.16,590.17,1122.16,590.23,1120.78Zm-165.775,7.56c-.041-.2-.326-.354-.5-.528-.142.3-.28.607-.471,1.019C424.154,1128.88,424.568,1128.9,424.455,1128.34Zm84.856,1.34c-.388-.261-.719-.48-1.092-.73l-.749.576c.022.052.045.1.068.154Zm-23.974-18.3,1.956-1.057A1.828,1.828,0,0,0,485.337,1111.38Z" transform="translate(-392.113 -1106.55)" fill="currentColor" fill-rule="evenodd"/>
</svg>
