<svg xmlns="http://www.w3.org/2000/svg" width="179.241" height="51.704" viewBox="0 0 179.241 51.704">
  <path id="Caminho_23" data-name="Caminho 23" d="M901.275,1339.16H856.733c-.354.946-.661,1.768-.994,2.66-1.087-.1-2.114-.234-3.146-.284-4.366-.207-8.73-.495-13.1-.551-4.683-.061-9.368.173-14.049.1-.745-.01-1.476-.936-1.556-.99a11.493,11.493,0,0,1-2.458,1.407c-2.718.855-2.712,2.771-2.247,5a5.492,5.492,0,0,1,.145,2.335c-.366,1.456-1.268,2.823-1.408,4.279-.239,2.5-.065,5.044-.065,7.68l-13.641,2.142v-11.652c-3.629,0-7.132.058-10.633-.017-3.306-.07-3.79.357-3.6,3.6a7.9,7.9,0,0,0-4.32,6.01c-.08.521-.955,1.383-1.343,1.321-2.771-.438-5.51-1.074-8.844-1.771,3.3-4.615,6.082-8.406,8.742-12.281,1.825-2.659.706-5.165-2.481-5.479-4.22-.416-8.457-.746-12.694-.875-4.9-.148-6.674,1.338-8.226,6.05a2.434,2.434,0,0,1-1.788,1.365c-6.989-.021-13.978-.165-20.966-.314a8.6,8.6,0,0,1-2.628-.432c-1.208-.425-2.347-1.046-4.34-1.965,1.329,4.308-.419,6-3.308,7.141-2.748,1.082-3.856.342-3.9-2.6-.054-3.623-.2-7.253-.53-10.86-.237-2.613-.9-5.184-1.236-7.791-.143-1.111-.351-2.442,1.6-2.423,4.325.047,6.438,1.965,6.716,6.253a17.1,17.1,0,0,0,.3,1.726l10.986-2.419a2.606,2.606,0,0,0-1.7-.7c-7.024-.28-7.024-.274-6.385-7.184.261-2.818,1.067-3.48,4.07-3.41q5.18.122,10.36.2c5.638.088,11.275.146,16.913.257,1.383.027,3.07.074,2.193,2.223a13.575,13.575,0,0,1-13.188,8.286,25.181,25.181,0,0,0-2.667.183c.008.361.016.723.023,1.084a50.262,50.262,0,0,1,5.166.031c3.027.316,5.325-.408,7.171-3.114,2.033-2.982,4.3-5.756,8.868-4.805,1.125.234,2.75-1.93,4.09-2.949-.368-.418-.772-.878-1.313-1.49,2.113-.39,3.855-.8,5.621-1a3.6,3.6,0,0,1,2.406.424c1.688,1.339,4.093.687,5.786,2.74.868,1.054,4.2.638,6.107-.02.706-.242.529-3.078.725-4.735a.721.721,0,0,0-.1-.452H781.467c-4.41,0-4.508-.107-4.244-4.617.021-.363-.07-.827.117-1.067.427-.546,1.017-1.42,1.5-1.4,5.129.251,10.25.673,15.377.988.635.038,1.294-.4,1.939-.393,1.963.027,4.088-.274,5.846.376,2.017.748,4.45.493,5.406-1.573.838-1.811,1.952-2.726,4.089-1.828a18.436,18.436,0,0,0,.853,2.423c.893,1.771,2.3,1.855,4.1,1.375,1.764-.471,4.063-1.283,5.383-.568,2.685,1.453,5.167,1.172,7.745.53a66.9,66.9,0,0,1,23.46-2.047c1.573.168,2.46.7,2.506,2.194.089,2.917.026,5.838.026,8.909l8.4.556c-.145.222-.289.443-.433.666,1.031.844,2.032,2.372,3.1,2.42,5.984.267,11.986.112,17.978.289a2.961,2.961,0,0,1,2.081,1.805,47.561,47.561,0,0,1,.873,6.29h13.7Q901.276,1337.794,901.275,1339.16Zm-47.807-14.54c-10.5,1.9-20.367-2.687-31.094-3.849-.148,2.278-.268,4.126-.43,6.63h32.218C854.045,1326.93,853.816,1326.01,853.468,1324.62Zm-37.392-4.06c-4.721,2.306-9.316.876-14.094-.29v3.827h14.094Zm46.223,9.98c.826.337,1.664.412,1.829.784,2.131,4.831,6.406,1.985,9.66,2.6.569.107,1.491-1.658,2.25-2.559q-.359-.411-.716-.824Zm-59.539,17.25c.115-2.767-2.037-2.184-3.609-2.3-1.735-.128-3.181.615-3.193,2.456-.017,2.5,2.061,1.909,3.938,2.008C801.281,1350.2,802.671,1349.91,802.76,1347.79Zm-68.635-8.06h-3.446c-.865,4.4.181,6.086,3.97,5.718C734.469,1343.48,734.306,1341.7,734.125,1339.73Z" transform="translate(-722.034 -1311.24)" fill="currentColor" fill-rule="evenodd"/>
</svg>
