<svg xmlns="http://www.w3.org/2000/svg" width="170.5" height="59.492" viewBox="0 0 170.5 59.492">
  <path id="Caminho_20" data-name="Caminho 20" d="M752.016,1130.15c-.187,2.24-.187,2.24-2.314,2.309a5.2,5.2,0,0,1-.683,0c-.6-.061-.974.1-1,.8-.029.884-.521,1.25-1.4,1.117a3.871,3.871,0,0,0-.768,0c-.541.027-1.061.033-1.027-.966-1.092.739-2.054,1.316-2.931,2-.974.765-1.839,1.668-2.816,2.427a2.441,2.441,0,0,1-1.2.219c-.388.033-.78.006-1.256.006v-3.222a19.63,19.63,0,0,0-2.03,1.288,25.376,25.376,0,0,0-5.681,6.614,2.037,2.037,0,0,0-.121.227c-.252.561-.386,1.481-.779,1.609a6.2,6.2,0,0,1-2.525.015,1.026,1.026,0,0,1-.654-.7c-.528-3.41-1.065-6.821-1.479-10.247-.3-2.471-.443-4.963-.6-7.448-.11-1.7-.184-3.4-.174-5.1.007-1.358.161-2.714.26-4.07.01-.135.075-.377.127-.381a15.049,15.049,0,0,1,2.427-.051c.183.019.274.637.47.939a1.973,1.973,0,0,0,.613.6c.147.088.389.02.588.02q16.691,0,33.379.01a2.341,2.341,0,0,0,1.749-.669c1.1-1.024,2.284-1.954,3.426-2.932a.871.871,0,0,0,.337-.455c.09-.889.674-.844,1.307-.743a5.592,5.592,0,0,0,.837.12c3.671.008,7.341-.006,11.012.016.714,0,1.044-.181.78-.936-.046-.132-.045-.279-.078-.417-.075-.311-.159-.62-.24-.93-.148.228-.262.607-.454.652a4.06,4.06,0,0,1-1.248-.021c-.037,0-.022-.241-.092-.31-.807-.787-1.806-.2-2.708-.34-.211-.031-.478.286-.715.451s-.442.445-.662.445a1.057,1.057,0,0,1-.66-.449,1.132,1.132,0,0,1-.149-.649q-.016-3.2,0-6.4a1.048,1.048,0,0,1,.1-.577,4.8,4.8,0,0,0,.84-2.608c.019-.258.978-.487,1.53-.63.084-.022.417.494.445.779a14.132,14.132,0,0,1,.018,2.047c-.024.533.2.738.706.666s1.079.227,1.506-.445a.677.677,0,0,1,1.123.234c.063.122.257.178.39.264.088-.155.265-.321.25-.467-.081-.781.346-.914.985-.872a4.574,4.574,0,0,0,.934-.061c.7-.1,1.262-.075,1.168.9-.016.157.357.5.555.507,2.561.034,5.122.026,7.684.014.175,0,.491-.108.5-.2.1-.833.725-.647,1.235-.651,1.309-.01,2.618-.017,3.927,0,.505.008.8-.089.813-.69,0-.171.378-.468.58-.467a.779.779,0,0,1,.576.482,1.282,1.282,0,0,0,.646.946c.29.191.363,1.1.182,1.548-.754,1.866-1.638,3.682-2.48,5.513-.26.564-.54,1.121-.906,1.88.8,0,1.49-.042,2.172.021.269.024.507.3.775.429a2.3,2.3,0,0,0,.872.31c3.244.022,6.488.012,9.732.016.487,0,1.063-.159,1.185.609.013.08.275.156.43.174a6.761,6.761,0,0,0,.768.011q23.988,0,47.977.014a4.313,4.313,0,0,1,1.341.311c.474.161,1.147-.492,1.149-1.181.006-2.391-.014-4.781.019-7.171a2.205,2.205,0,0,1,.338-1.126c.627.038,1.217-.252,1.91.4a2.225,2.225,0,0,1,.682,1.85c0,.057-.012.14.021.165,1.355,1.141.551,2.689.761,4.044a3.469,3.469,0,0,1,0,.852c-.067.691.069,1.171.923,1.114.611-.04.634.394.637.861.006,1.161.092,1.231,1.28,1.235.683,0,1.367.02,2.049,0s.762.421.795.944c.037.59-.324.645-.766.621a.42.42,0,0,0-.17,0c-.256.106-.509.222-.762.335.243.115.485.232.73.343s.681.169.738.345c.148.458.1.907-.613.884-.986-.032-1.975-.008-2.963-.008v.236h4.229q5.508,0,11.014-.005c.424,0,.933.162,1.141-.453.027-.078.249-.126.38-.127,2.533-.007,5.065-.012,7.6.009.17,0,.483.2.485.315.032,1.6.022,3.207.022,4.933-.225,0-.556,0-.886,0q-4.863.045-9.727.091c-.41,0-.881.109-.945-.56-.011-.117-.385-.287-.593-.287q-6.742-.025-13.487.01c-.23,0-.478.3-.682.5a6.323,6.323,0,0,0-.774.871,1.618,1.618,0,0,0-.341.788c-.037,1.1-.016,2.211-.016,3.493-.945-.065-1.811-.09-2.659-.218-.155-.023-.352-.47-.349-.719.01-.847.073-1.695.167-2.537.1-.873-.81-.833-1.127-1.319-.169.17-.463.326-.483.513-.065.591.024,1.2-.056,1.787-.034.248-.336.646-.527.654-.874.03-1.038.592-1.049,1.259-.009.619.083,1.252-.86,1.144-.87,1.242-2.115.531-3.171.534-11.04.026-22.081-.009-33.121-.011a9.974,9.974,0,0,0-1.384.251c-.524.078-1.047.224-1.441-.38a1.141,1.141,0,0,0-.831-.4c-3.9-.043-7.8-.1-11.692-.047-1.523.021-2.651,1.1-3.783,1.976-.272.21-.169.961-.164,1.463.005.436-.221.976.471,1.214.145.051.212.559.167.832-.024.148-.344.283-.556.357a4.564,4.564,0,0,1-.853.1c.114,1.489.223,2.949.339,4.41a32.668,32.668,0,0,0,2.075,8.4c.734,2.059,1.487,4.111,2.242,6.163.17.466.432.9.562,1.376.134.49-.151.786-.621.945-3.387,1.148-6.761,2.341-10.165,3.435a7.819,7.819,0,0,1-2.368.148c-.149,0-.371-.3-.433-.493-.569-1.844-1.131-3.689-1.656-5.547-.657-2.322-1.351-4.638-1.894-6.987-.633-2.731-1.171-5.487-1.651-8.25-.318-1.835-.24-1.849-2.1-1.849-3.585,0-7.171.02-10.756-.018a1.26,1.26,0,0,0-1.3.793c-1.194,2.254-2.433,4.484-3.677,6.713a11.734,11.734,0,0,0-1.553,4.736c-.057.641-.647.825-1.441.481q-3.91-1.69-7.824-3.37c-.521-.225-1.032-.476-1.566-.66a1.157,1.157,0,0,1-.808-1.32,6.889,6.889,0,0,1,1.889-4.016c1.364-1.739,2.867-3.369,4.247-5.1a7.191,7.191,0,0,0,1.084-2.012,2.327,2.327,0,0,0-1.482-3.16,16.993,16.993,0,0,0-2.788-.769c-.875-.158-1.223-.575-1.148-1.446.049-.564.014-1.137.008-1.706,0-.393.072-.894-.562-.789-.47.076-1.051.083-.991.859.064.85.04,1.7.085,2.556.05.954-.188,1.243-1.143,1.249C755.292,1130.16,753.676,1130.15,752.016,1130.15Zm31.383.86c-.71,0-1.421.031-2.128-.01-.562-.032-.78.2-.946.725a7.023,7.023,0,0,0,.046,3.436c.09.526.217.752.766.739,1.164-.025,2.328,0,3.492-.014a.966.966,0,0,0,.563-.122c.687-.568,1.351-1.161,2.01-1.761a1.523,1.523,0,0,0,.142-1.854c-.7-.644-1.37-1.365-2.5-1.154A8.219,8.219,0,0,1,783.4,1131.01Zm-4.854,4.71c-.551-1.118-1.085-2.237-1.658-3.336-.079-.151-.348-.2-.529-.3a1.6,1.6,0,0,0-.213.5,13.255,13.255,0,0,0,0,1.619A1.977,1.977,0,0,0,778.545,1135.72Z" transform="translate(-722.572 -1100.776)" fill="currentColor" fill-rule="evenodd"/>
</svg>
