<svg xmlns="http://www.w3.org/2000/svg" width="46.1" height="23.834" viewBox="0 0 46.1 23.834">
  <path id="Caminho_591" data-name="Caminho 591" d="M106.085,335.184c0-.359-.115-.654-.254-.654h-1.807c-.107-.507-1.137-.376-1.137-.376v.376H102.3a1.853,1.853,0,0,0-.074-.277v-.7a2.062,2.062,0,0,0-.033-1.578h.033v-.8a3.075,3.075,0,0,0-.5-1.987,3.151,3.151,0,0,0-.974,0,4.31,4.31,0,0,0,0,1.987v.8h-2.4l-.22-.115H94.824a.928.928,0,0,0-1.685,0H87.506l-1.773-.188H72.2l-.254-.253v-.009l.205-.646h.163l.172-.384a4.988,4.988,0,0,0-1.7-.711.338.338,0,0,0-.113.262v.074h-.713a.865.865,0,0,0-.874.85v.818h-.613l-.016-.016H65.69c-.458,0-.614.024-.875.457s-.933,1.432-.933,1.432v.556h-.276v.074a.535.535,0,0,0-.475-.22c-.507,0-.925-.05-1.285-.057h0c-1.667,0-1.478.441-1.478.441a17.707,17.707,0,0,1-.286,6.779c-.386.769.473,1.275,1,.351s.474-5.527,2.29-5.527a.724.724,0,0,1,.032-.074h.916v.147H63.3v1.5c0,.483.074.842.842.728s.581-.687.246-.99-.688-.752-.329-.752h.017c0,.007,0,.007.008.016.369.573.933,1.472,1.022,1.587.123.18.3.245.3,0s.351.163.776.155H67.62a1.7,1.7,0,0,1,.042,1.955l-3.369,5.4v.426a9.712,9.712,0,0,0,1.514,1.005c.425.425,2.027,1.521,2.87,1.349l.089-1.259,3.058-6.787c.32.261.678.286,1.652.286H75.16a.368.368,0,0,1,.139.27,4.141,4.141,0,0,0,.139,1.579,1.21,1.21,0,0,0,.974.8c.335-.016-1.39-1.358.147-2.649h2.453a.572.572,0,0,1-.024.3c-.189.711-.36,1.194-.6,1.856s-.516.8-1.218.8H74.833l-1.317-.8-.081-.589s-.777,1.79-.727,1.685.172-.4.914-.359.664.563,1.317.563h1.9c1.152,0,1.553-.2,1.767-.679s.556-1.439.817-2.183a1.368,1.368,0,0,1,.368-.6h1.03l-.081,1.422s.057.173.163.05a8.113,8.113,0,0,0,.294-1.505c.048-.008.179-.024.311-.057l.392-.064.255.539a39.45,39.45,0,0,0,4.489,11.824.371.371,0,0,0,.465.107c.286-.147,1.643-1.006,1.889-1.153s.147-.3.147-.3a39.55,39.55,0,0,1-4.48-11.824s-.017-.082-.042-.221l.327-.115-.041-.163-.181-.156-.081-.769c.009-.009.009-.016.017-.025a.07.07,0,0,0,.031.009c.009-.033.017-.066.025-.1a.008.008,0,0,0,.008-.008c2.356-.229,4.653-.459,6.952-.687l5.649-.507c.68-.081,1.523,0,1.6-.589l.254-.424-.017-.082h1.341l.474.009v.2h1.244c.016-.065.041-.139.057-.2h.6v.475s1.145.147,1.145-.466v-.009h1.8c.139,0,.253-.3.253-.647ZM71.12,330.409a.2.2,0,1,1,.2.2.2.2,0,0,1-.2-.2Zm29.51,3.843h-.22a1.548,1.548,0,0,0,.105-.793h.115Z" transform="translate(-59.985 -329.154)" fill="currentColor"/>
</svg>
