<svg xmlns="http://www.w3.org/2000/svg" width="112.406" height="86.38" viewBox="0 0 112.406 86.38">
  <path id="Caminho_30" data-name="Caminho 30" d="M169.274,1929.75c-5.593,0-11.186.017-16.778-.021a2.749,2.749,0,0,0-2.749,1.762c-.27.586-.49,1.195-.734,1.793q-1.534,3.773-3.069,7.543c-1.212,2.986-2.387,5.987-3.652,8.95a2.288,2.288,0,0,0,.206,2.567,1.045,1.045,0,0,1-.8,1.568c-1.505-.061-3.02-.1-4.51-.305-3.189-.436-6.366-.965-9.546-1.465-1.634-.258-3.267-.523-4.9-.807-.433-.075-.728-.209-.625-.838a37.312,37.312,0,0,1,2.131-7.4c.643-1.663,1.37-3.3,2.166-4.9,1.106-2.216,2.261-4.412,3.491-6.563,1.376-2.4,2.882-4.734,4.289-7.122a4.74,4.74,0,0,0-.2-4.817,10.9,10.9,0,0,0-1.628-2.146,1.608,1.608,0,0,0-.992-.474c-.882-.065-1.776.03-2.658-.037a7.857,7.857,0,0,1-2.385-.42c-1.226-.508-2.421-1.166-2.408-2.8,0-.091-.1-.179-.133-.275a5.543,5.543,0,0,1-.447-1.39,30.525,30.525,0,0,1-.006-3.355,1.484,1.484,0,0,0-.836-1.672,1.067,1.067,0,0,1-.026-1.789c.7-.273.684-.741.671-1.3-.013-.591-.017-1.183,0-1.773.013-.422.071-.842.107-1.252.373.324.683.6,1.093.953.03.562.07,1.285.109,2.008a11.357,11.357,0,0,0,1.106-1.841,1.061,1.061,0,0,1,1.664-.508c.824.415,1.66.806,2.5,1.186,1.42.643,2.853,1.261,4.27,1.909.235.107.533.283.6.491.062.192-.148.472-.275.811.88,0,1.732-.013,2.583,0,2.1.039,4.205.13,6.308.128,3.554,0,7.108-.063,10.662-.1,2.18-.02,4.361-.044,6.542-.05,1.974,0,3.947.023,5.92.022,3.172,0,6.343-.016,9.514-.021,2.266-.005,4.531-.017,6.8,0,1.381.011,2.762.084,4.143.1,1.614.023,3.229.027,4.844.025,1.281,0,2.562-.022,3.841-.035.778-.008,1.559.015,2.333-.044.218-.017.417-.271.624-.416-.2-.178-.368-.433-.6-.512a2.892,2.892,0,0,0-.939-.063c-4.9.045-9.8.122-14.7.132-4.165.009-8.33-.084-12.495-.089-10.866-.015-21.733,0-32.6-.021a4.089,4.089,0,0,1-1.567-.354c-1.355-.585-2.688-1.225-4.016-1.872-1.76-.857-3.507-1.743-5.26-2.616l.042-.108c.577.177,1.155.353,1.745.532.156-.524.288-.963.41-1.371l2.238.116c-.032-.455-.057-.8-.087-1.242h-3.237c1.438-.373,2.9.489,3.979-.773-.124-.479-.245-.95-.367-1.425a1.308,1.308,0,0,1,1.43.73c.141.5.425.572.879.57q7.03-.018,14.062,0,5.827,0,11.654.016c.215,0,.574.1.617.23.156.476.476.509.883.509q7.979,0,15.957.005a2.878,2.878,0,0,0,.806-.113c.392-.117.479-.34.216-.71a2.148,2.148,0,0,1-.407-.891c-.191-1.356.843-1.88,2.133-1.925a1.871,1.871,0,0,1,1.775,1.019,1.5,1.5,0,0,1-.183,1.662,3.255,3.255,0,0,0-.309.642,6.726,6.726,0,0,0,.737.294,1.929,1.929,0,0,0,.505.013q8.264-.03,16.528-.058c5.088-.014,10.176-.016,15.264-.032a2.38,2.38,0,0,0,.7-.158,4.649,4.649,0,0,1,1.081-.371c2.1-.1,4.193-.154,6.29-.236a1.085,1.085,0,0,0,.518-.184c.559-.368,1.085-.786,1.656-1.134,1.635-1,2.338-.647,2.59,1.331h1.482c-.165.782.293.82.781.753a1.178,1.178,0,0,1,1.468.938c.241.9.456,1.812.7,2.77.261.02.724-.084.9.095.534.542,1.158.37,1.762.39a.685.685,0,0,1,.755.578,8,8,0,0,1-.093,3.92c-.067.309-.49.81-.675.778-1.08-.182-1.962.563-2.994.526-.213.755-.411,1.5-.633,2.241a1.591,1.591,0,0,1-1.824,1.339c-1.477-.006-2.952-.057-4.428-.054-2.527.006-5.055.056-7.582.053-3.667,0-7.334-.05-11-.057-2.257,0-4.514.032-6.77.054-.161,0-.322.033-.581.061-.031,1.2-.07,2.379-.089,3.554a1.755,1.755,0,0,1-1.9,1.948c-.569.006-1.14-.021-1.708.005a.916.916,0,0,0-.552.208q-2.27,2.18-4.511,4.388a1.8,1.8,0,0,0-.6,1.429c.053,1.982.015,3.968.013,5.953,0,.73,0,1.463,0,2.172a2.238,2.238,0,0,1,.766.232,1.753,1.753,0,0,1,.678.868c.037.232-.31.618-.578.782a3.27,3.27,0,0,1-1.166.363,13.293,13.293,0,0,1-1.352.1v43.161c.327.155.751.233.783.392a23.786,23.786,0,0,1,.332,2.542c.009.1-.176.272-.3.312a3.488,3.488,0,0,1-.8.122q-2.61.148-5.22.28c-1.551.078-3.1.138-4.655.221-.733.039-1.464.117-2.2.17-.3.021-.555-.031-.536-.43.036-.736.034-1.475.11-2.206.021-.194.246-.5.411-.522.622-.086.732-.419.731-.984-.01-5.953.011-11.906.014-17.858q0-10.194-.007-20.388v-1.945c-1.238.168-1.844-.469-1.678-1.574a4.6,4.6,0,0,0,.01-.633c.005-.468-.146-.723-.692-.708-.969.024-1.94-.013-2.909-.044-.736-.024-1.4-.684-1.177-1.3.151-.425.624-.734.953-1.1l.137.117v-1.445Zm3.711-15.36-.028-.014-.012-.027.029.011Zm-21.531-.29-.01.028-.031.011.014-.027Zm-3.707-.38-.078.277-.75,0,.015-.048.018.047-1.271.1.027,0-.009-.022c-.006.02-.024.046-.018.059a1.767,1.767,0,0,0,2.2.317,3.7,3.7,0,0,0,.762.2,14.665,14.665,0,0,0,1.755-.006c.19-.014.37-.2.554-.3-.151-.1-.314-.29-.45-.272-.874.111-1.743.269-2.613.411l-.241-.5.255-.129-.009-.032-.154-.075Zm23.764.54.029.022c-.5.066-1.065-.232-1.614.314h2.027c.012-.051.023-.1.034-.152l-.468-.157Zm-32.769-.04-.514.091-.015.212a5.49,5.49,0,0,0,.914.164c.918.017,1.836,0,2.754-.015a.893.893,0,0,0,.428-.061,1.762,1.762,0,0,0,.346-.367,1.634,1.634,0,0,0-.472-.165c-.9-.021-1.8-.032-2.7-.015a3.752,3.752,0,0,0-.77.176Zm22.936-15.56c-2.379-.016-4.757-.009-7.135,0-.054,0-.108.047-.2.238a6.622,6.622,0,0,0,1.209.208c2-.017,3.994-.067,5.991-.113a4.15,4.15,0,0,0,.558-.091,1.516,1.516,0,0,0,.4.1c.739-.029,1.478-.077,2.217-.118,0-.067-.005-.135-.007-.2-.717,0-1.434-.016-2.149.012-.166.006-.327.157-.49.242C161.947,1898.84,161.813,1898.67,161.678,1898.66Zm16.04-2.42a1.345,1.345,0,0,0,2.377-.119.742.742,0,0,0-.134-.661,1.294,1.294,0,0,0-1.958.293.188.188,0,0,1-.2.107l.06-.305c.318-.6.8-.771,1.592-.58.687.165.948.515.971,1.3a.776.776,0,0,0,.048-1.214,1.955,1.955,0,0,0-2.568-.058c-.1.1-.027.369-.034.56C177.418,1895.69,177.543,1895.98,177.718,1896.24Zm-17.625,24.43a3.726,3.726,0,0,0,1.7,3.244c1.007.688,2.119,1.223,3.2,1.833-.476.38-1.038.083-1.518-.068a7.4,7.4,0,0,1-4.246-2.922,5,5,0,0,1-.893-3.43,16.584,16.584,0,0,0,.013-1.98c-.926.055-1.8.092-2.671.175a.64.64,0,0,0-.417.351c-1.065,2.551-2.132,5.1-3.143,7.673a2.885,2.885,0,0,0-.1,1.483,1.049,1.049,0,0,0,1.193.875c3.692-.023,7.385-.011,11.077-.012,1.435,0,2.87,0,4.3,0a1.419,1.419,0,0,0,1.467-1.4c.013-2.363,0-4.728,0-7.092a1.6,1.6,0,0,0-.955-1.378,3.521,3.521,0,0,0-1.55-.6c-2.277-.063-4.558-.025-6.837-.022a2.763,2.763,0,0,0-.28.033C160.312,1918.56,160.116,1919.61,160.093,1920.67Zm-10.255-20.1.193-.106a1.763,1.763,0,0,0,1.268,1.527l.348.481c.065-.042.13-.084.194-.127l-.759-1.278c.937,1.123,2.234.822,3.412.839,3.161.046,6.324.028,9.486.022,2.763-.006,5.524-.032,8.287-.044,1.222-.006,2.443-.008,3.665.007.423.005.629-.161.6-.683h-1.417q-9.966,0-19.932.005a3.508,3.508,0,0,0-1.207.254,1.888,1.888,0,0,1-2.3-.576,1.108,1.108,0,0,1,.378-1.76c.139-.092.287-.17.449-.265-1.858-.053-1.9-.039-2.511.845.124-.266.247-.53.355-.764l-5.175-.467c.282.964.648,1.115,2.043.87a.851.851,0,0,1,.681.141c.16.188.3.6.2.76a1.1,1.1,0,0,1-.789.39c-.9.027-1.8-.033-2.7-.042a.6.6,0,0,0-.408.145,2.141,2.141,0,0,1-1.754.636c-2.118-.048-4.236-.077-6.354-.069-1.422.006-2.844.085-4.265.138-.092,0-.182.061-.3.241a5.918,5.918,0,0,0,.942.291c1.013.141,2.03.3,3.049.344,1.138.053,2.282-.013,3.423-.02a5.307,5.307,0,0,0,1.644-.017c.666-.233,1.23.2,1.879.046a10.9,10.9,0,0,1,1.9-.019c.632-.028,1.262-.12,1.892-.187.146-.016.324-.1.433-.048.8.4,1.579-.064,2.359-.007a11.1,11.1,0,0,1,1.618.35C150.369,1901.76,150.1,1901.17,149.838,1900.57Zm-17.544-.1c1.375.06,2.646.156,3.917.16,2.086.006,4.173-.061,6.259-.07a1.977,1.977,0,0,0,1.882-1.15c-.31-.952-.692-1.162-2.082-1.09-1.241.065-2.481.188-3.721.182-1.291-.007-2.58-.149-3.871-.207-.674-.029-1.35,0-2.025,0-.886,0-1.1.236-1.035,1.182C132.027,1899.6,132.658,1899.57,132.294,1900.47Zm56.968,1.23c.031.093.058.169.086.252.023-.021.063-.04.063-.06a11.392,11.392,0,0,1,.071-1.323,2.376,2.376,0,0,0-.558-1.6.849.849,0,0,0-.767-.258,5.317,5.317,0,0,1-2.205-.014,20.494,20.494,0,0,0-2.806.111c-.471.025-.939.064-1.433.1a2.164,2.164,0,0,1-.353,2.647c2.608.691,5.178.33,7.753.673C189.169,1902.04,189.212,1901.88,189.262,1901.7Zm-13.522,64.99c.009-.938-.024-1.877,0-2.814q.05-1.748.18-3.492a4.249,4.249,0,0,1,.287-.824,1.148,1.148,0,0,0,.058-.493c-.107-.651-.28-1.294-.351-1.948-.039-.363.127-.744.107-1.111-.025-.451-.22-.9-.215-1.347.019-1.47.127-2.94.137-4.411s-.066-2.92-.088-4.379a3.337,3.337,0,0,1,.1-1.412c.148-.313.433-.557.448-.964.059-1.589.139-3.177.209-4.765a.337.337,0,0,0-.03-.186c-.319-.509-.646-1.014-.971-1.52-.285.508-.394,29.229.011,30.246A3.052,3.052,0,0,0,175.74,1966.69Zm15.228-67.87c-.349-.026-.693-.1-1-.144a6.26,6.26,0,0,0-.295,2.871c0,.386.066.671.62.6a6.278,6.278,0,0,1,1.364.161c.45.046.733-.115.694-.632-.074-.979-.139-1.957-.2-2.854C191.657,1898.83,191.31,1898.85,190.968,1898.82Zm-13.3,66.03a2.713,2.713,0,0,0,2.8,2.674,2.7,2.7,0,1,0-2.8-2.674Zm17.849-63.64c-.014-.543-.042-1.087-.1-1.628-.05-.5-.2-.917-.858-.728a1.2,1.2,0,0,1-.41-.064c.054,1.113.1,2.176.157,3.283C195.541,1902.49,195.546,1902.49,195.516,1901.21Zm-27.212-2.49v.156a35.155,35.155,0,0,0,7.979-.156Zm57.536-1.58c-.14-.427-.164-.987-.4-1.1a1.66,1.66,0,0,0-1.218.1,8.62,8.62,0,0,0-1.378,1Zm-40.377,46.35.207.01c.026-.726-.034-1.453-.037-2.184,0-.769.114-1.537.141-2.307s.006-1.56.006-2.339l-.316.019Q185.462,1940.1,185.463,1943.49Zm12-41.86a.529.529,0,0,0,.223.3c.155-.068.362-.162.414-.3a3.455,3.455,0,0,0-.148-2.376c-.059-.176-.321-.283-.491-.422-.049.037-.1.076-.147.114C197.363,1899.84,197.4,1900.73,197.467,1901.63Zm-67.013-.12a2.037,2.037,0,0,0,.767-.11c-.205-.228-.38-.609-.619-.653a9.191,9.191,0,0,0-1.653-.03l-.012.235C129.441,1901.14,129.935,1901.37,130.454,1901.51Zm69.939,7.35c.241.6.887.8,2.229.638A2.339,2.339,0,0,0,200.393,1908.86Zm-5.009-10.56c.107.574.205,1.1.28,1.5a4.38,4.38,0,0,1,.328-1.134c.051-.093.6.1.993.168-.009-.112-.024-.317-.041-.537Zm11.884,10.53c-.1-.025-.229.092-.345.143.064.094.111.243.2.271.493.158,1,.289,1.5.43.039-.129.079-.257.119-.386C208.248,1909.13,207.763,1908.96,207.268,1908.83Zm-14.825-9.58c.159-.235.287-.633.511-.7.244-.07.578.166.881.271v-.533H192.2C192.294,1898.67,192.375,1898.99,192.443,1899.25Zm4.708,3.13c-.5.053-1.094.41-1.359-.522v.916C196.96,1902.98,197.264,1902.89,197.151,1902.38Zm-4.632-.43c.04.264.036.738.127.757a5.773,5.773,0,0,0,1.342.049,3.054,3.054,0,0,0,.07-.495C193.149,1902.63,192.9,1902.55,192.519,1901.95Zm22.545,7.82a1.68,1.68,0,0,0-1.659-.86l-.085.215C213.858,1909.33,214.4,1909.53,215.064,1909.77Zm4.773-1.08c-.024.6.479.9,1.172.835l.075-.176C220.685,1909.14,220.287,1908.93,219.837,1908.69Zm-39.087,63.08.152-.06a3.646,3.646,0,0,0-.432-1.047,1.007,1.007,0,0,0-1.276-.255C180.452,1970.64,180.639,1970.81,180.75,1971.77Zm13.28-59.88c-.216-.549-.515-.668-1.234-.28C193.218,1911.71,193.64,1911.8,194.03,1911.89Z" transform="translate(-122 -1894.392)" fill="currentColor" fill-rule="evenodd"/>
</svg>
