<svg xmlns="http://www.w3.org/2000/svg" width="93.946" height="65.797" viewBox="0 0 93.946 65.797">
  <path id="Caminho_43" data-name="Caminho 43" d="M757.619,2162.97c1.6.5,3.205,1.035,4.84,1.408,3.828.872,7.673,1.672,11.519,2.462a7.848,7.848,0,0,0,1.6-.032c.08,0,.165.077.241.129a3.349,3.349,0,0,0,2.918-.033c.15-.13.311-.471.243-.595-.869-1.613-.223-3.208.124-4.751,1.639-7.316,3.363-14.614,5.051-21.92.271-1.174.5-2.355.766-3.531.071-.32.185-.631.353-1.2.178.5.263.744.348.983a.916.916,0,0,0,.211-.015,11.176,11.176,0,0,1,2.6-.768c4.1-.167,8.2-.134,12.3-.324,7.083-.33,14.175-.24,21.258-.526,1.152-.047,1.588-.6,1.682-2.221-3.55-.251-7.122.419-10.462-.007v-2.023c.877.282,1.282.026,1.776-2.692.741.29,1.514.476,1.742,1.376l.614-.295-.029.07.061-.05.382.235v.041l.033-.02c.229-.008.458-.014.685-.021l-.025-.012.268-.175-1.06-.257h0l1.061.257.38.215.542-.542.041-.022,1.413.641c1.063.373,1.212.245,1.069-.918-.523-.729-.232-1.069.561-1.127.439-.033.883-.007,1.35-.007-.1,1.513-.206,2.969-.307,4.423l.135.009c.126-1.262.285-2.521.364-3.785.048-.76.413-.967,1.117-1,2.13-.109,4.257-.263,6.382-.44a13.344,13.344,0,0,0,1.75-.37v.021c.887-.012,1.775.014,2.66-.043,2.729-.176,5.457-.382,8.172-.774l-9.314.577-.021-.24c1.451-.123,2.9-.262,4.355-.366,1.475-.106,2.959-.12,4.425-.295a19.53,19.53,0,0,0,2.386-.662,4.255,4.255,0,0,1,1,.04l-.754.213a5.145,5.145,0,0,0,1.285-.023,1.4,1.4,0,0,0,.892-.621,1.232,1.232,0,0,0-.338-1.011c-.9-.907-.847-1.394.147-2.166a2.437,2.437,0,0,0,.891-1.376c.32-2.074.469-4.176.78-6.252a1.411,1.411,0,0,0-.684-1.537,1.166,1.166,0,0,1,.079-1.971c.177-.1.416-.157.524-.308a10.574,10.574,0,0,0,.608-1.063,4.021,4.021,0,0,0-1.054-.383c-.854-.056-1.713-.018-2.648-.018.157-.879-.318-1.1-1.016-1.24-2.9-.6-5.764-1.458-8.691-1.795a12.661,12.661,0,0,1-4.266-1.5,3.726,3.726,0,0,0-1.495-.273c-3.993-.144-7.991-.223-11.983-.409-1.438-.066-2.862-.383-4.295-.565-.743-.094-1.438-.155-1.513.951-.044.644-.642.68-1.2.683-4.446.021-8.891.063-13.336.089-3.9.021-7.789.045-11.683.025a4.411,4.411,0,0,1-1.3-.436,4.964,4.964,0,0,0-1.5-.5c-7.029.017-14.059.077-21.088.131a2.87,2.87,0,0,0-3.011,3.088c.058,2.17.074,4.343.214,6.508a39.1,39.1,0,0,0,.588,4.674,4.382,4.382,0,0,0,2.207,3.172c3.554,2.066,3.9,4.968,2.821,8.117-1.035,3.016-2.01,6.056-3.123,9.043-1.21,3.252-2.7,6.406-3.786,9.7a73.1,73.1,0,0,0-2.164,8.786c-.381,1.944-.4,3.958-.616,5.936A1.258,1.258,0,0,0,757.619,2162.97Zm61.065-40.41c-.163-.2-.327-.394-.491-.589h0c.164.2.328.393.495.592a.04.04,0,0,0-.016,0Zm.165.88c-.23-.265-.512-.5-.76-.752h0C818.337,2122.94,818.619,2123.18,818.849,2123.44Zm-2.314,1.95v0Zm.565-.61c.049-.025.1-.052.156-.078C817.2,2124.73,817.149,2124.75,817.1,2124.78Zm-.051.67v.708h0C817.049,2125.9,817.049,2125.64,817.049,2125.45Zm-.085-.6.06-.033C817,2124.83,816.983,2124.84,816.964,2124.85Zm-.417.63a.015.015,0,0,0,0,0S816.546,2125.48,816.547,2125.48Zm.032.09a.017.017,0,0,0,0-.006C816.578,2125.57,816.578,2125.57,816.579,2125.57Zm.049.11,0-.007S816.627,2125.67,816.628,2125.68Zm.068.1a.028.028,0,0,0,0-.007C816.694,2125.78,816.7,2125.78,816.7,2125.78Zm.087.12a.01.01,0,0,1,0,0S816.781,2125.9,816.783,2125.9Zm.1.13s0,0,0,0S816.885,2126.03,816.887,2126.03Zm-.04-1.1a.2.2,0,0,0,.028-.018C816.866,2124.92,816.856,2124.92,816.847,2124.93Zm-.1.07a.13.13,0,0,1,.014-.01C816.758,2125,816.752,2125,816.749,2125Zm-.081.07a.017.017,0,0,0,.007-.006C816.673,2125.07,816.67,2125.07,816.668,2125.07Zm-.061.08a.012.012,0,0,1,.005,0S816.608,2125.15,816.607,2125.15Zm-.043.08,0,0Zm-.024.08a.007.007,0,0,0,0,0C816.542,2125.3,816.54,2125.3,816.54,2125.31Zm1.651-3.33h0c-.061.217-.119.433-.177.65C818.074,2122.41,818.132,2122.19,818.191,2121.98Zm.847-.5c-.152.04-.275.193-.411.3.015.042.015.067,0,.079.017-.012.017-.037,0-.079C818.762,2121.67,818.885,2121.51,819.038,2121.48Zm-1.382,6.71-.027,0h0Zm-.483-1.7,0,0S817.174,2126.49,817.173,2126.49Zm-.013-.02s0,0,0,0S817.159,2126.47,817.16,2126.47Zm-.754-.14.6-.168h0C816.809,2126.22,816.608,2126.27,816.406,2126.33Zm-28.863,4.1c3.218-.384,3.392-.491,3.677-2.371.965.176,1.924.354,2.884.519a.815.815,0,0,0,.405-.05c.964-.361,1.93-.721,2.885-1.1a.958.958,0,0,0,.615-1.342,2.266,2.266,0,0,1,.463-2.468,12.35,12.35,0,0,0,.651-1.1,2.05,2.05,0,0,1,2.31,2.188c-.081,1.856-.275,3.711-.514,5.556a1.892,1.892,0,0,1-1.87,1.767c-3.2.117-6.4.189-9.608.2A1.915,1.915,0,0,1,787.543,2130.43Zm-11.865,33.96c.459-2.389.888-4.787,1.409-7.163.609-2.771,1.326-5.516,1.952-8.282.615-2.719,1.141-5.458,1.769-8.174.682-2.948,1.491-5.867,2.142-8.822.547-2.479.906-5,1.456-7.479.077-.347.76-.756,1.188-.785.705-.051.61.557.5,1.055-.668,3.089-1.3,6.186-2.005,9.266q-1.692,7.4-3.465,14.786c-1.145,4.786-2.355,9.556-3.47,14.351-.194.832-.365,1.51-1.4,1.657A1.244,1.244,0,0,1,775.678,2164.39Zm-6.235-42.22c-.054-.191-.116-.383-.185-.57a7.8,7.8,0,0,0-1.576-2.6,7.808,7.808,0,0,1,1.576,2.6C769.327,2121.78,769.389,2121.98,769.443,2122.17Z" transform="translate(-756.67 -2101.457)" fill="currentColor"/>
</svg>
