<svg xmlns="http://www.w3.org/2000/svg" width="139.209" height="68.469" viewBox="0 0 139.209 68.469">
  <path id="Caminho_10" data-name="Caminho 10" d="M207.946,732.635c.146.75.548,1.77.219,2.228-.751,1.046-.35,1.959-.191,2.948.3,1.891.555,3.789.9,5.671.443,2.436,1.008,4.851,1.43,7.29.54,3.125.95,6.272,1.491,9.4.565,3.268,1.22,6.521,1.8,9.585.937.125,2.242-.073,2.606.422a16.717,16.717,0,0,1,1.751,3.955.737.737,0,0,1-.371.616c-1.2.235-2.42.39-3.629.592-2.447.41-4.912.748-7.328,1.3-.953.217-1.379-.095-1.546-.833-.354-1.563-.6-3.148-.866-4.729-.322-1.924-.581-3.859-.932-5.777-.549-3-1.188-5.981-1.721-8.983-.455-2.56-.793-5.14-1.224-7.7q-.807-4.8-1.693-9.585a9.783,9.783,0,0,0-.517-1.474l-.416.1a13.448,13.448,0,0,0,.2,1.734c.309,1.27-.128,1.757-1.526,1.562-.265-1.2-.532-2.42-.8-3.624-2.685.108-3.146-.034-4.185,2.026a2.391,2.391,0,0,1-2.3,1.41c-2.575-.008-5.154.076-7.723-.049a4.989,4.989,0,0,1-2.338-.988c-1.147-.775-2.19-1.706-3.476-2.729-2.335,5.612-4.562,10.963-6.791,16.318-3.043-1.454-6.09-2.922-9.149-4.365-.779-.367-.913-.708-.352-1.469a28.439,28.439,0,0,0,1.655-2.906c2.2-3.865,4.4-7.727,6.582-11.541-1.142-1.285-2.235-2.539-3.361-3.763a2.532,2.532,0,0,0-.935-.649,11.6,11.6,0,0,0-5.375-1.056c-1.495.159-3.1-.1-4.487.354-5.947,1.938-11.826,4.084-17.74,6.124-5.7,1.964-11.425,3.828-17.1,5.86a20.127,20.127,0,0,1-9.374,1.063q-.2-11.187-.4-22.286c2.25-.158,4.251-.4,6.255-.423,9.7-.128,19.393-.2,29.09-.289,1.677-.015,3.356-.041,5.032.012a5.751,5.751,0,0,0,3.223-.7,13.3,13.3,0,0,1,2.93-1.322,38.755,38.755,0,0,0,10.333-4.905,8.536,8.536,0,0,1,6.679-1.123v4.447h1.753c-.965-.554-1.011-.744-.713-2.46h34c.014,1,.459,2.059-1.071,2.361.225.115.286.176.35.177,6.925.094,13.851.192,20.776.254a2.875,2.875,0,0,0,1.393-.442,16.747,16.747,0,0,0,1.967-1.4c.6-.479,1.35-.788,1.363-1.817a3.239,3.239,0,0,1,.76-1.744,2.447,2.447,0,0,1,1.383-.955c.826-.112,1.893-.381,2.346.725.928,2.263,1.914,4.515,2.635,6.846a57.825,57.825,0,0,1,1.191,5.925,16.547,16.547,0,0,1,2.576-.242,18.081,18.081,0,0,1,2.553.509c.814.157,1.8-.353,2.406.765h-3.365v1.249h3.342c-.13.321-.188.644-.274.651-2.351.213-4.7.394-6.937.57q-.593,3.54-1.186,7.109h-2.41c-.146-1.381-.283-2.66-.414-3.9-.35-.047-.465-.075-.578-.076q-11.763,0-23.523.006a2.975,2.975,0,0,0-1.1.268c-1.326.558-2.64,1.147-4.1,1.786C207.565,731.174,207.8,731.9,207.946,732.635Zm-94.171.944a3.833,3.833,0,0,0,1.046,1.953,13.979,13.979,0,0,0,1.584,1.342,2.518,2.518,0,0,0,2.978.429c3.371-1.425,6.763-2.8,10.187-4.094a3.172,3.172,0,0,0,2.064-2.482c.514-2.072,1.021-4.146,1.552-6.215.391-1.525-.309-2.516-1.824-2.517-5.187,0-10.375-.015-15.562.016a12.273,12.273,0,0,0-2.072.371C113.728,726.251,113.675,729.918,113.775,733.579Zm64.415-.393a1.159,1.159,0,0,0-.749.516c-.3.439-.483.963-.764,1.422-.521.852-.251,1.358.552,1.886.926.609,1.685,1.472,2.6,2.093a4.3,4.3,0,0,0,2.048.813c2.251.1,4.512.076,6.766,0a2.139,2.139,0,0,0,1.231-.729c1.688-1.761,1.088-3.845.717-6.027C186.428,733.163,182.309,733.154,178.19,733.186Zm-37.739-3.774c.726-.231,1.458-.441,2.173-.7a4.277,4.277,0,0,0,2.462-3.849c-.1-1.462-1.538-3.419-3.015-3.556a12.389,12.389,0,0,0-4.387.389c-1.863.521-2.592,1.854-2.592,3.876A3.984,3.984,0,0,0,140.451,729.412Zm36.69-15.221v.187h25.978c0-.063,0-.124,0-.187Zm38.082,7.256c2.3.071,4.6.045,6.9.012.265,0,.526-.27.79-.413-.238-.255-.471-.728-.713-.731-2.755-.053-5.512-.033-8.268-.033q-.093.255-.184.511A4.444,4.444,0,0,0,215.223,721.447Zm12.381-.005c2.556.064,5.113.034,7.756.034.215-.726.066-1.185-.719-1.191-2.594-.021-5.188-.008-7.781-.008-.1.14-.2.279-.293.419C226.913,720.957,227.252,721.434,227.6,721.442Z" transform="translate(-108.73 -708.234)" fill="currentColor" fill-rule="evenodd"/>
</svg>
